<?xml version="1.0" encoding="utf-8" standalone="no"?>
<!DOCTYPE svg PUBLIC "-//W3C//DTD SVG 1.1//EN"
  "http://www.w3.org/Graphics/SVG/1.1/DTD/svg11.dtd">
<svg xmlns:xlink="http://www.w3.org/1999/xlink" width="526.104375pt" height="523.326437pt" viewBox="0 0 526.104375 523.326437" xmlns="http://www.w3.org/2000/svg" version="1.1">
 <metadata>
  <rdf:RDF xmlns:dc="http://purl.org/dc/elements/1.1/" xmlns:cc="http://creativecommons.org/ns#" xmlns:rdf="http://www.w3.org/1999/02/22-rdf-syntax-ns#">
   <cc:Work>
    <dc:type rdf:resource="http://purl.org/dc/dcmitype/StillImage"/>
    <dc:date>2024-11-06T16:27:39.901684</dc:date>
    <dc:format>image/svg+xml</dc:format>
    <dc:creator>
     <cc:Agent>
      <dc:title>Matplotlib v3.7.0, https://matplotlib.org/</dc:title>
     </cc:Agent>
    </dc:creator>
   </cc:Work>
  </rdf:RDF>
 </metadata>
 <defs>
  <style type="text/css">*{stroke-linejoin: round; stroke-linecap: butt}</style>
 </defs>
 <g id="figure_1">
  <g id="patch_1">
   <path d="M 0 523.326437 
L 526.104375 523.326437 
L 526.104375 0 
L 0 0 
z
" style="fill: #ffffff"/>
  </g>
  <g id="axes_1">
   <g id="patch_2">
    <path d="M 61.688125 472.220812 
L 508.088125 472.220812 
L 508.088125 28.700812 
L 61.688125 28.700812 
z
" style="fill: #ffffff"/>
   </g>
   <g id="matplotlib.axis_1">
    <g id="xtick_1">
     <g id="line2d_1">
      <path d="M 61.688125 472.220812 
L 61.688125 28.700812 
" clip-path="url(#p6119483c3f)" style="fill: none; stroke: #b0b0b0; stroke-width: 0.8; stroke-linecap: square"/>
     </g>
     <g id="line2d_2">
      <defs>
       <path id="ma29329831c" d="M 0 0 
L 0 3.5 
" style="stroke: #000000; stroke-width: 0.8"/>
      </defs>
      <g>
       <use xlink:href="#ma29329831c" x="61.688125" y="472.220812" style="stroke: #000000; stroke-width: 0.8"/>
      </g>
     </g>
     <g id="text_1">
      <!-- 10 -->
      <g transform="translate(50.871875 492.138156) scale(0.17 -0.17)">
       <defs>
        <path id="DejaVuSans-31" d="M 794 531 
L 1825 531 
L 1825 4091 
L 703 3866 
L 703 4441 
L 1819 4666 
L 2450 4666 
L 2450 531 
L 3481 531 
L 3481 0 
L 794 0 
L 794 531 
z
" transform="scale(0.015625)"/>
        <path id="DejaVuSans-30" d="M 2034 4250 
Q 1547 4250 1301 3770 
Q 1056 3291 1056 2328 
Q 1056 1369 1301 889 
Q 1547 409 2034 409 
Q 2525 409 2770 889 
Q 3016 1369 3016 2328 
Q 3016 3291 2770 3770 
Q 2525 4250 2034 4250 
z
M 2034 4750 
Q 2819 4750 3233 4129 
Q 3647 3509 3647 2328 
Q 3647 1150 3233 529 
Q 2819 -91 2034 -91 
Q 1250 -91 836 529 
Q 422 1150 422 2328 
Q 422 3509 836 4129 
Q 1250 4750 2034 4750 
z
" transform="scale(0.015625)"/>
       </defs>
       <use xlink:href="#DejaVuSans-31"/>
       <use xlink:href="#DejaVuSans-30" x="63.623047"/>
      </g>
     </g>
    </g>
    <g id="xtick_2">
     <g id="line2d_3">
      <path d="M 173.288125 472.220812 
L 173.288125 28.700812 
" clip-path="url(#p6119483c3f)" style="fill: none; stroke: #b0b0b0; stroke-width: 0.8; stroke-linecap: square"/>
     </g>
     <g id="line2d_4">
      <g>
       <use xlink:href="#ma29329831c" x="173.288125" y="472.220812" style="stroke: #000000; stroke-width: 0.8"/>
      </g>
     </g>
     <g id="text_2">
      <!-- 20 -->
      <g transform="translate(162.471875 492.138156) scale(0.17 -0.17)">
       <defs>
        <path id="DejaVuSans-32" d="M 1228 531 
L 3431 531 
L 3431 0 
L 469 0 
L 469 531 
Q 828 903 1448 1529 
Q 2069 2156 2228 2338 
Q 2531 2678 2651 2914 
Q 2772 3150 2772 3378 
Q 2772 3750 2511 3984 
Q 2250 4219 1831 4219 
Q 1534 4219 1204 4116 
Q 875 4013 500 3803 
L 500 4441 
Q 881 4594 1212 4672 
Q 1544 4750 1819 4750 
Q 2544 4750 2975 4387 
Q 3406 4025 3406 3419 
Q 3406 3131 3298 2873 
Q 3191 2616 2906 2266 
Q 2828 2175 2409 1742 
Q 1991 1309 1228 531 
z
" transform="scale(0.015625)"/>
       </defs>
       <use xlink:href="#DejaVuSans-32"/>
       <use xlink:href="#DejaVuSans-30" x="63.623047"/>
      </g>
     </g>
    </g>
    <g id="xtick_3">
     <g id="line2d_5">
      <path d="M 284.888125 472.220812 
L 284.888125 28.700812 
" clip-path="url(#p6119483c3f)" style="fill: none; stroke: #b0b0b0; stroke-width: 0.8; stroke-linecap: square"/>
     </g>
     <g id="line2d_6">
      <g>
       <use xlink:href="#ma29329831c" x="284.888125" y="472.220812" style="stroke: #000000; stroke-width: 0.8"/>
      </g>
     </g>
     <g id="text_3">
      <!-- 30 -->
      <g transform="translate(274.071875 492.138156) scale(0.17 -0.17)">
       <defs>
        <path id="DejaVuSans-33" d="M 2597 2516 
Q 3050 2419 3304 2112 
Q 3559 1806 3559 1356 
Q 3559 666 3084 287 
Q 2609 -91 1734 -91 
Q 1441 -91 1130 -33 
Q 819 25 488 141 
L 488 750 
Q 750 597 1062 519 
Q 1375 441 1716 441 
Q 2309 441 2620 675 
Q 2931 909 2931 1356 
Q 2931 1769 2642 2001 
Q 2353 2234 1838 2234 
L 1294 2234 
L 1294 2753 
L 1863 2753 
Q 2328 2753 2575 2939 
Q 2822 3125 2822 3475 
Q 2822 3834 2567 4026 
Q 2313 4219 1838 4219 
Q 1578 4219 1281 4162 
Q 984 4106 628 3988 
L 628 4550 
Q 988 4650 1302 4700 
Q 1616 4750 1894 4750 
Q 2613 4750 3031 4423 
Q 3450 4097 3450 3541 
Q 3450 3153 3228 2886 
Q 3006 2619 2597 2516 
z
" transform="scale(0.015625)"/>
       </defs>
       <use xlink:href="#DejaVuSans-33"/>
       <use xlink:href="#DejaVuSans-30" x="63.623047"/>
      </g>
     </g>
    </g>
    <g id="xtick_4">
     <g id="line2d_7">
      <path d="M 396.488125 472.220812 
L 396.488125 28.700812 
" clip-path="url(#p6119483c3f)" style="fill: none; stroke: #b0b0b0; stroke-width: 0.8; stroke-linecap: square"/>
     </g>
     <g id="line2d_8">
      <g>
       <use xlink:href="#ma29329831c" x="396.488125" y="472.220812" style="stroke: #000000; stroke-width: 0.8"/>
      </g>
     </g>
     <g id="text_4">
      <!-- 40 -->
      <g transform="translate(385.671875 492.138156) scale(0.17 -0.17)">
       <defs>
        <path id="DejaVuSans-34" d="M 2419 4116 
L 825 1625 
L 2419 1625 
L 2419 4116 
z
M 2253 4666 
L 3047 4666 
L 3047 1625 
L 3713 1625 
L 3713 1100 
L 3047 1100 
L 3047 0 
L 2419 0 
L 2419 1100 
L 313 1100 
L 313 1709 
L 2253 4666 
z
" transform="scale(0.015625)"/>
       </defs>
       <use xlink:href="#DejaVuSans-34"/>
       <use xlink:href="#DejaVuSans-30" x="63.623047"/>
      </g>
     </g>
    </g>
    <g id="xtick_5">
     <g id="line2d_9">
      <path d="M 508.088125 472.220812 
L 508.088125 28.700812 
" clip-path="url(#p6119483c3f)" style="fill: none; stroke: #b0b0b0; stroke-width: 0.8; stroke-linecap: square"/>
     </g>
     <g id="line2d_10">
      <g>
       <use xlink:href="#ma29329831c" x="508.088125" y="472.220812" style="stroke: #000000; stroke-width: 0.8"/>
      </g>
     </g>
     <g id="text_5">
      <!-- 50 -->
      <g transform="translate(497.271875 492.138156) scale(0.17 -0.17)">
       <defs>
        <path id="DejaVuSans-35" d="M 691 4666 
L 3169 4666 
L 3169 4134 
L 1269 4134 
L 1269 2991 
Q 1406 3038 1543 3061 
Q 1681 3084 1819 3084 
Q 2600 3084 3056 2656 
Q 3513 2228 3513 1497 
Q 3513 744 3044 326 
Q 2575 -91 1722 -91 
Q 1428 -91 1123 -41 
Q 819 9 494 109 
L 494 744 
Q 775 591 1075 516 
Q 1375 441 1709 441 
Q 2250 441 2565 725 
Q 2881 1009 2881 1497 
Q 2881 1984 2565 2268 
Q 2250 2553 1709 2553 
Q 1456 2553 1204 2497 
Q 953 2441 691 2322 
L 691 4666 
z
" transform="scale(0.015625)"/>
       </defs>
       <use xlink:href="#DejaVuSans-35"/>
       <use xlink:href="#DejaVuSans-30" x="63.623047"/>
      </g>
     </g>
    </g>
    <g id="text_6">
     <!-- Error thresholds (mm) -->
     <g transform="translate(191.125156 512.590969) scale(0.17 -0.17)">
      <defs>
       <path id="DejaVuSans-45" d="M 628 4666 
L 3578 4666 
L 3578 4134 
L 1259 4134 
L 1259 2753 
L 3481 2753 
L 3481 2222 
L 1259 2222 
L 1259 531 
L 3634 531 
L 3634 0 
L 628 0 
L 628 4666 
z
" transform="scale(0.015625)"/>
       <path id="DejaVuSans-72" d="M 2631 2963 
Q 2534 3019 2420 3045 
Q 2306 3072 2169 3072 
Q 1681 3072 1420 2755 
Q 1159 2438 1159 1844 
L 1159 0 
L 581 0 
L 581 3500 
L 1159 3500 
L 1159 2956 
Q 1341 3275 1631 3429 
Q 1922 3584 2338 3584 
Q 2397 3584 2469 3576 
Q 2541 3569 2628 3553 
L 2631 2963 
z
" transform="scale(0.015625)"/>
       <path id="DejaVuSans-6f" d="M 1959 3097 
Q 1497 3097 1228 2736 
Q 959 2375 959 1747 
Q 959 1119 1226 758 
Q 1494 397 1959 397 
Q 2419 397 2687 759 
Q 2956 1122 2956 1747 
Q 2956 2369 2687 2733 
Q 2419 3097 1959 3097 
z
M 1959 3584 
Q 2709 3584 3137 3096 
Q 3566 2609 3566 1747 
Q 3566 888 3137 398 
Q 2709 -91 1959 -91 
Q 1206 -91 779 398 
Q 353 888 353 1747 
Q 353 2609 779 3096 
Q 1206 3584 1959 3584 
z
" transform="scale(0.015625)"/>
       <path id="DejaVuSans-20" transform="scale(0.015625)"/>
       <path id="DejaVuSans-74" d="M 1172 4494 
L 1172 3500 
L 2356 3500 
L 2356 3053 
L 1172 3053 
L 1172 1153 
Q 1172 725 1289 603 
Q 1406 481 1766 481 
L 2356 481 
L 2356 0 
L 1766 0 
Q 1100 0 847 248 
Q 594 497 594 1153 
L 594 3053 
L 172 3053 
L 172 3500 
L 594 3500 
L 594 4494 
L 1172 4494 
z
" transform="scale(0.015625)"/>
       <path id="DejaVuSans-68" d="M 3513 2113 
L 3513 0 
L 2938 0 
L 2938 2094 
Q 2938 2591 2744 2837 
Q 2550 3084 2163 3084 
Q 1697 3084 1428 2787 
Q 1159 2491 1159 1978 
L 1159 0 
L 581 0 
L 581 4863 
L 1159 4863 
L 1159 2956 
Q 1366 3272 1645 3428 
Q 1925 3584 2291 3584 
Q 2894 3584 3203 3211 
Q 3513 2838 3513 2113 
z
" transform="scale(0.015625)"/>
       <path id="DejaVuSans-65" d="M 3597 1894 
L 3597 1613 
L 953 1613 
Q 991 1019 1311 708 
Q 1631 397 2203 397 
Q 2534 397 2845 478 
Q 3156 559 3463 722 
L 3463 178 
Q 3153 47 2828 -22 
Q 2503 -91 2169 -91 
Q 1331 -91 842 396 
Q 353 884 353 1716 
Q 353 2575 817 3079 
Q 1281 3584 2069 3584 
Q 2775 3584 3186 3129 
Q 3597 2675 3597 1894 
z
M 3022 2063 
Q 3016 2534 2758 2815 
Q 2500 3097 2075 3097 
Q 1594 3097 1305 2825 
Q 1016 2553 972 2059 
L 3022 2063 
z
" transform="scale(0.015625)"/>
       <path id="DejaVuSans-73" d="M 2834 3397 
L 2834 2853 
Q 2591 2978 2328 3040 
Q 2066 3103 1784 3103 
Q 1356 3103 1142 2972 
Q 928 2841 928 2578 
Q 928 2378 1081 2264 
Q 1234 2150 1697 2047 
L 1894 2003 
Q 2506 1872 2764 1633 
Q 3022 1394 3022 966 
Q 3022 478 2636 193 
Q 2250 -91 1575 -91 
Q 1294 -91 989 -36 
Q 684 19 347 128 
L 347 722 
Q 666 556 975 473 
Q 1284 391 1588 391 
Q 1994 391 2212 530 
Q 2431 669 2431 922 
Q 2431 1156 2273 1281 
Q 2116 1406 1581 1522 
L 1381 1569 
Q 847 1681 609 1914 
Q 372 2147 372 2553 
Q 372 3047 722 3315 
Q 1072 3584 1716 3584 
Q 2034 3584 2315 3537 
Q 2597 3491 2834 3397 
z
" transform="scale(0.015625)"/>
       <path id="DejaVuSans-6c" d="M 603 4863 
L 1178 4863 
L 1178 0 
L 603 0 
L 603 4863 
z
" transform="scale(0.015625)"/>
       <path id="DejaVuSans-64" d="M 2906 2969 
L 2906 4863 
L 3481 4863 
L 3481 0 
L 2906 0 
L 2906 525 
Q 2725 213 2448 61 
Q 2172 -91 1784 -91 
Q 1150 -91 751 415 
Q 353 922 353 1747 
Q 353 2572 751 3078 
Q 1150 3584 1784 3584 
Q 2172 3584 2448 3432 
Q 2725 3281 2906 2969 
z
M 947 1747 
Q 947 1113 1208 752 
Q 1469 391 1925 391 
Q 2381 391 2643 752 
Q 2906 1113 2906 1747 
Q 2906 2381 2643 2742 
Q 2381 3103 1925 3103 
Q 1469 3103 1208 2742 
Q 947 2381 947 1747 
z
" transform="scale(0.015625)"/>
       <path id="DejaVuSans-28" d="M 1984 4856 
Q 1566 4138 1362 3434 
Q 1159 2731 1159 2009 
Q 1159 1288 1364 580 
Q 1569 -128 1984 -844 
L 1484 -844 
Q 1016 -109 783 600 
Q 550 1309 550 2009 
Q 550 2706 781 3412 
Q 1013 4119 1484 4856 
L 1984 4856 
z
" transform="scale(0.015625)"/>
       <path id="DejaVuSans-6d" d="M 3328 2828 
Q 3544 3216 3844 3400 
Q 4144 3584 4550 3584 
Q 5097 3584 5394 3201 
Q 5691 2819 5691 2113 
L 5691 0 
L 5113 0 
L 5113 2094 
Q 5113 2597 4934 2840 
Q 4756 3084 4391 3084 
Q 3944 3084 3684 2787 
Q 3425 2491 3425 1978 
L 3425 0 
L 2847 0 
L 2847 2094 
Q 2847 2600 2669 2842 
Q 2491 3084 2119 3084 
Q 1678 3084 1418 2786 
Q 1159 2488 1159 1978 
L 1159 0 
L 581 0 
L 581 3500 
L 1159 3500 
L 1159 2956 
Q 1356 3278 1631 3431 
Q 1906 3584 2284 3584 
Q 2666 3584 2933 3390 
Q 3200 3197 3328 2828 
z
" transform="scale(0.015625)"/>
       <path id="DejaVuSans-29" d="M 513 4856 
L 1013 4856 
Q 1481 4119 1714 3412 
Q 1947 2706 1947 2009 
Q 1947 1309 1714 600 
Q 1481 -109 1013 -844 
L 513 -844 
Q 928 -128 1133 580 
Q 1338 1288 1338 2009 
Q 1338 2731 1133 3434 
Q 928 4138 513 4856 
z
" transform="scale(0.015625)"/>
      </defs>
      <use xlink:href="#DejaVuSans-45"/>
      <use xlink:href="#DejaVuSans-72" x="63.183594"/>
      <use xlink:href="#DejaVuSans-72" x="102.546875"/>
      <use xlink:href="#DejaVuSans-6f" x="141.410156"/>
      <use xlink:href="#DejaVuSans-72" x="202.591797"/>
      <use xlink:href="#DejaVuSans-20" x="243.705078"/>
      <use xlink:href="#DejaVuSans-74" x="275.492188"/>
      <use xlink:href="#DejaVuSans-68" x="314.701172"/>
      <use xlink:href="#DejaVuSans-72" x="378.080078"/>
      <use xlink:href="#DejaVuSans-65" x="416.943359"/>
      <use xlink:href="#DejaVuSans-73" x="478.466797"/>
      <use xlink:href="#DejaVuSans-68" x="530.566406"/>
      <use xlink:href="#DejaVuSans-6f" x="593.945312"/>
      <use xlink:href="#DejaVuSans-6c" x="655.126953"/>
      <use xlink:href="#DejaVuSans-64" x="682.910156"/>
      <use xlink:href="#DejaVuSans-73" x="746.386719"/>
      <use xlink:href="#DejaVuSans-20" x="798.486328"/>
      <use xlink:href="#DejaVuSans-28" x="830.273438"/>
      <use xlink:href="#DejaVuSans-6d" x="869.287109"/>
      <use xlink:href="#DejaVuSans-6d" x="966.699219"/>
      <use xlink:href="#DejaVuSans-29" x="1064.111328"/>
     </g>
    </g>
   </g>
   <g id="matplotlib.axis_2">
    <g id="ytick_1">
     <g id="line2d_11">
      <path d="M 61.688125 472.220812 
L 508.088125 472.220812 
" clip-path="url(#p6119483c3f)" style="fill: none; stroke: #b0b0b0; stroke-width: 0.8; stroke-linecap: square"/>
     </g>
     <g id="line2d_12">
      <defs>
       <path id="md44a2e68d5" d="M 0 0 
L -3.5 0 
" style="stroke: #000000; stroke-width: 0.8"/>
      </defs>
      <g>
       <use xlink:href="#md44a2e68d5" x="61.688125" y="472.220812" style="stroke: #000000; stroke-width: 0.8"/>
      </g>
     </g>
     <g id="text_7">
      <!-- 0.3 -->
      <g transform="translate(27.652813 478.679484) scale(0.17 -0.17)">
       <defs>
        <path id="DejaVuSans-2e" d="M 684 794 
L 1344 794 
L 1344 0 
L 684 0 
L 684 794 
z
" transform="scale(0.015625)"/>
       </defs>
       <use xlink:href="#DejaVuSans-30"/>
       <use xlink:href="#DejaVuSans-2e" x="63.623047"/>
       <use xlink:href="#DejaVuSans-33" x="95.410156"/>
      </g>
     </g>
    </g>
    <g id="ytick_2">
     <g id="line2d_13">
      <path d="M 61.688125 408.860812 
L 508.088125 408.860812 
" clip-path="url(#p6119483c3f)" style="fill: none; stroke: #b0b0b0; stroke-width: 0.8; stroke-linecap: square"/>
     </g>
     <g id="line2d_14">
      <g>
       <use xlink:href="#md44a2e68d5" x="61.688125" y="408.860812" style="stroke: #000000; stroke-width: 0.8"/>
      </g>
     </g>
     <g id="text_8">
      <!-- 0.4 -->
      <g transform="translate(27.652813 415.319484) scale(0.17 -0.17)">
       <use xlink:href="#DejaVuSans-30"/>
       <use xlink:href="#DejaVuSans-2e" x="63.623047"/>
       <use xlink:href="#DejaVuSans-34" x="95.410156"/>
      </g>
     </g>
    </g>
    <g id="ytick_3">
     <g id="line2d_15">
      <path d="M 61.688125 345.500812 
L 508.088125 345.500812 
" clip-path="url(#p6119483c3f)" style="fill: none; stroke: #b0b0b0; stroke-width: 0.8; stroke-linecap: square"/>
     </g>
     <g id="line2d_16">
      <g>
       <use xlink:href="#md44a2e68d5" x="61.688125" y="345.500812" style="stroke: #000000; stroke-width: 0.8"/>
      </g>
     </g>
     <g id="text_9">
      <!-- 0.5 -->
      <g transform="translate(27.652813 351.959484) scale(0.17 -0.17)">
       <use xlink:href="#DejaVuSans-30"/>
       <use xlink:href="#DejaVuSans-2e" x="63.623047"/>
       <use xlink:href="#DejaVuSans-35" x="95.410156"/>
      </g>
     </g>
    </g>
    <g id="ytick_4">
     <g id="line2d_17">
      <path d="M 61.688125 282.140812 
L 508.088125 282.140812 
" clip-path="url(#p6119483c3f)" style="fill: none; stroke: #b0b0b0; stroke-width: 0.8; stroke-linecap: square"/>
     </g>
     <g id="line2d_18">
      <g>
       <use xlink:href="#md44a2e68d5" x="61.688125" y="282.140812" style="stroke: #000000; stroke-width: 0.8"/>
      </g>
     </g>
     <g id="text_10">
      <!-- 0.6 -->
      <g transform="translate(27.652813 288.599484) scale(0.17 -0.17)">
       <defs>
        <path id="DejaVuSans-36" d="M 2113 2584 
Q 1688 2584 1439 2293 
Q 1191 2003 1191 1497 
Q 1191 994 1439 701 
Q 1688 409 2113 409 
Q 2538 409 2786 701 
Q 3034 994 3034 1497 
Q 3034 2003 2786 2293 
Q 2538 2584 2113 2584 
z
M 3366 4563 
L 3366 3988 
Q 3128 4100 2886 4159 
Q 2644 4219 2406 4219 
Q 1781 4219 1451 3797 
Q 1122 3375 1075 2522 
Q 1259 2794 1537 2939 
Q 1816 3084 2150 3084 
Q 2853 3084 3261 2657 
Q 3669 2231 3669 1497 
Q 3669 778 3244 343 
Q 2819 -91 2113 -91 
Q 1303 -91 875 529 
Q 447 1150 447 2328 
Q 447 3434 972 4092 
Q 1497 4750 2381 4750 
Q 2619 4750 2861 4703 
Q 3103 4656 3366 4563 
z
" transform="scale(0.015625)"/>
       </defs>
       <use xlink:href="#DejaVuSans-30"/>
       <use xlink:href="#DejaVuSans-2e" x="63.623047"/>
       <use xlink:href="#DejaVuSans-36" x="95.410156"/>
      </g>
     </g>
    </g>
    <g id="ytick_5">
     <g id="line2d_19">
      <path d="M 61.688125 218.780813 
L 508.088125 218.780813 
" clip-path="url(#p6119483c3f)" style="fill: none; stroke: #b0b0b0; stroke-width: 0.8; stroke-linecap: square"/>
     </g>
     <g id="line2d_20">
      <g>
       <use xlink:href="#md44a2e68d5" x="61.688125" y="218.780813" style="stroke: #000000; stroke-width: 0.8"/>
      </g>
     </g>
     <g id="text_11">
      <!-- 0.7 -->
      <g transform="translate(27.652813 225.239484) scale(0.17 -0.17)">
       <defs>
        <path id="DejaVuSans-37" d="M 525 4666 
L 3525 4666 
L 3525 4397 
L 1831 0 
L 1172 0 
L 2766 4134 
L 525 4134 
L 525 4666 
z
" transform="scale(0.015625)"/>
       </defs>
       <use xlink:href="#DejaVuSans-30"/>
       <use xlink:href="#DejaVuSans-2e" x="63.623047"/>
       <use xlink:href="#DejaVuSans-37" x="95.410156"/>
      </g>
     </g>
    </g>
    <g id="ytick_6">
     <g id="line2d_21">
      <path d="M 61.688125 155.420812 
L 508.088125 155.420812 
" clip-path="url(#p6119483c3f)" style="fill: none; stroke: #b0b0b0; stroke-width: 0.8; stroke-linecap: square"/>
     </g>
     <g id="line2d_22">
      <g>
       <use xlink:href="#md44a2e68d5" x="61.688125" y="155.420812" style="stroke: #000000; stroke-width: 0.8"/>
      </g>
     </g>
     <g id="text_12">
      <!-- 0.8 -->
      <g transform="translate(27.652813 161.879484) scale(0.17 -0.17)">
       <defs>
        <path id="DejaVuSans-38" d="M 2034 2216 
Q 1584 2216 1326 1975 
Q 1069 1734 1069 1313 
Q 1069 891 1326 650 
Q 1584 409 2034 409 
Q 2484 409 2743 651 
Q 3003 894 3003 1313 
Q 3003 1734 2745 1975 
Q 2488 2216 2034 2216 
z
M 1403 2484 
Q 997 2584 770 2862 
Q 544 3141 544 3541 
Q 544 4100 942 4425 
Q 1341 4750 2034 4750 
Q 2731 4750 3128 4425 
Q 3525 4100 3525 3541 
Q 3525 3141 3298 2862 
Q 3072 2584 2669 2484 
Q 3125 2378 3379 2068 
Q 3634 1759 3634 1313 
Q 3634 634 3220 271 
Q 2806 -91 2034 -91 
Q 1263 -91 848 271 
Q 434 634 434 1313 
Q 434 1759 690 2068 
Q 947 2378 1403 2484 
z
M 1172 3481 
Q 1172 3119 1398 2916 
Q 1625 2713 2034 2713 
Q 2441 2713 2670 2916 
Q 2900 3119 2900 3481 
Q 2900 3844 2670 4047 
Q 2441 4250 2034 4250 
Q 1625 4250 1398 4047 
Q 1172 3844 1172 3481 
z
" transform="scale(0.015625)"/>
       </defs>
       <use xlink:href="#DejaVuSans-30"/>
       <use xlink:href="#DejaVuSans-2e" x="63.623047"/>
       <use xlink:href="#DejaVuSans-38" x="95.410156"/>
      </g>
     </g>
    </g>
    <g id="ytick_7">
     <g id="line2d_23">
      <path d="M 61.688125 92.060812 
L 508.088125 92.060812 
" clip-path="url(#p6119483c3f)" style="fill: none; stroke: #b0b0b0; stroke-width: 0.8; stroke-linecap: square"/>
     </g>
     <g id="line2d_24">
      <g>
       <use xlink:href="#md44a2e68d5" x="61.688125" y="92.060812" style="stroke: #000000; stroke-width: 0.8"/>
      </g>
     </g>
     <g id="text_13">
      <!-- 0.9 -->
      <g transform="translate(27.652813 98.519484) scale(0.17 -0.17)">
       <defs>
        <path id="DejaVuSans-39" d="M 703 97 
L 703 672 
Q 941 559 1184 500 
Q 1428 441 1663 441 
Q 2288 441 2617 861 
Q 2947 1281 2994 2138 
Q 2813 1869 2534 1725 
Q 2256 1581 1919 1581 
Q 1219 1581 811 2004 
Q 403 2428 403 3163 
Q 403 3881 828 4315 
Q 1253 4750 1959 4750 
Q 2769 4750 3195 4129 
Q 3622 3509 3622 2328 
Q 3622 1225 3098 567 
Q 2575 -91 1691 -91 
Q 1453 -91 1209 -44 
Q 966 3 703 97 
z
M 1959 2075 
Q 2384 2075 2632 2365 
Q 2881 2656 2881 3163 
Q 2881 3666 2632 3958 
Q 2384 4250 1959 4250 
Q 1534 4250 1286 3958 
Q 1038 3666 1038 3163 
Q 1038 2656 1286 2365 
Q 1534 2075 1959 2075 
z
" transform="scale(0.015625)"/>
       </defs>
       <use xlink:href="#DejaVuSans-30"/>
       <use xlink:href="#DejaVuSans-2e" x="63.623047"/>
       <use xlink:href="#DejaVuSans-39" x="95.410156"/>
      </g>
     </g>
    </g>
    <g id="ytick_8">
     <g id="line2d_25">
      <path d="M 61.688125 28.700812 
L 508.088125 28.700812 
" clip-path="url(#p6119483c3f)" style="fill: none; stroke: #b0b0b0; stroke-width: 0.8; stroke-linecap: square"/>
     </g>
     <g id="line2d_26">
      <g>
       <use xlink:href="#md44a2e68d5" x="61.688125" y="28.700812" style="stroke: #000000; stroke-width: 0.8"/>
      </g>
     </g>
     <g id="text_14">
      <!-- 1.0 -->
      <g transform="translate(27.652813 35.159484) scale(0.17 -0.17)">
       <use xlink:href="#DejaVuSans-31"/>
       <use xlink:href="#DejaVuSans-2e" x="63.623047"/>
       <use xlink:href="#DejaVuSans-30" x="95.410156"/>
      </g>
     </g>
    </g>
    <g id="text_15">
     <!-- Joint 3D PCK -->
     <g transform="translate(20.117344 303.2405) rotate(-90) scale(0.17 -0.17)">
      <defs>
       <path id="DejaVuSans-4a" d="M 628 4666 
L 1259 4666 
L 1259 325 
Q 1259 -519 939 -900 
Q 619 -1281 -91 -1281 
L -331 -1281 
L -331 -750 
L -134 -750 
Q 284 -750 456 -515 
Q 628 -281 628 325 
L 628 4666 
z
" transform="scale(0.015625)"/>
       <path id="DejaVuSans-69" d="M 603 3500 
L 1178 3500 
L 1178 0 
L 603 0 
L 603 3500 
z
M 603 4863 
L 1178 4863 
L 1178 4134 
L 603 4134 
L 603 4863 
z
" transform="scale(0.015625)"/>
       <path id="DejaVuSans-6e" d="M 3513 2113 
L 3513 0 
L 2938 0 
L 2938 2094 
Q 2938 2591 2744 2837 
Q 2550 3084 2163 3084 
Q 1697 3084 1428 2787 
Q 1159 2491 1159 1978 
L 1159 0 
L 581 0 
L 581 3500 
L 1159 3500 
L 1159 2956 
Q 1366 3272 1645 3428 
Q 1925 3584 2291 3584 
Q 2894 3584 3203 3211 
Q 3513 2838 3513 2113 
z
" transform="scale(0.015625)"/>
       <path id="DejaVuSans-44" d="M 1259 4147 
L 1259 519 
L 2022 519 
Q 2988 519 3436 956 
Q 3884 1394 3884 2338 
Q 3884 3275 3436 3711 
Q 2988 4147 2022 4147 
L 1259 4147 
z
M 628 4666 
L 1925 4666 
Q 3281 4666 3915 4102 
Q 4550 3538 4550 2338 
Q 4550 1131 3912 565 
Q 3275 0 1925 0 
L 628 0 
L 628 4666 
z
" transform="scale(0.015625)"/>
       <path id="DejaVuSans-50" d="M 1259 4147 
L 1259 2394 
L 2053 2394 
Q 2494 2394 2734 2622 
Q 2975 2850 2975 3272 
Q 2975 3691 2734 3919 
Q 2494 4147 2053 4147 
L 1259 4147 
z
M 628 4666 
L 2053 4666 
Q 2838 4666 3239 4311 
Q 3641 3956 3641 3272 
Q 3641 2581 3239 2228 
Q 2838 1875 2053 1875 
L 1259 1875 
L 1259 0 
L 628 0 
L 628 4666 
z
" transform="scale(0.015625)"/>
       <path id="DejaVuSans-43" d="M 4122 4306 
L 4122 3641 
Q 3803 3938 3442 4084 
Q 3081 4231 2675 4231 
Q 1875 4231 1450 3742 
Q 1025 3253 1025 2328 
Q 1025 1406 1450 917 
Q 1875 428 2675 428 
Q 3081 428 3442 575 
Q 3803 722 4122 1019 
L 4122 359 
Q 3791 134 3420 21 
Q 3050 -91 2638 -91 
Q 1578 -91 968 557 
Q 359 1206 359 2328 
Q 359 3453 968 4101 
Q 1578 4750 2638 4750 
Q 3056 4750 3426 4639 
Q 3797 4528 4122 4306 
z
" transform="scale(0.015625)"/>
       <path id="DejaVuSans-4b" d="M 628 4666 
L 1259 4666 
L 1259 2694 
L 3353 4666 
L 4166 4666 
L 1850 2491 
L 4331 0 
L 3500 0 
L 1259 2247 
L 1259 0 
L 628 0 
L 628 4666 
z
" transform="scale(0.015625)"/>
      </defs>
      <use xlink:href="#DejaVuSans-4a"/>
      <use xlink:href="#DejaVuSans-6f" x="29.492188"/>
      <use xlink:href="#DejaVuSans-69" x="90.673828"/>
      <use xlink:href="#DejaVuSans-6e" x="118.457031"/>
      <use xlink:href="#DejaVuSans-74" x="181.835938"/>
      <use xlink:href="#DejaVuSans-20" x="221.044922"/>
      <use xlink:href="#DejaVuSans-33" x="252.832031"/>
      <use xlink:href="#DejaVuSans-44" x="316.455078"/>
      <use xlink:href="#DejaVuSans-20" x="393.457031"/>
      <use xlink:href="#DejaVuSans-50" x="425.244141"/>
      <use xlink:href="#DejaVuSans-43" x="485.546875"/>
      <use xlink:href="#DejaVuSans-4b" x="555.371094"/>
     </g>
    </g>
   </g>
   <g id="line2d_27">
    <path d="M 10.411885 524.326437 
L 12.088125 519.153268 
L 17.724489 501.500453 
L 23.360852 483.514157 
L 28.997216 465.600167 
L 34.63358 447.719763 
L 40.269943 430.1357 
L 45.906307 412.968094 
L 51.54267 396.111448 
L 57.179034 379.812713 
L 62.815398 363.771201 
L 68.451761 348.400209 
L 74.088125 333.531416 
L 79.724489 319.322475 
L 85.360852 305.687645 
L 90.997216 292.59334 
L 96.63358 280.180223 
L 102.269943 268.114812 
L 107.906307 256.790253 
L 113.54267 246.001479 
L 119.179034 235.720434 
L 124.815398 225.919856 
L 130.451761 216.573272 
L 136.088125 207.707551 
L 141.724489 199.376427 
L 147.360852 191.383132 
L 152.997216 183.847387 
L 158.63358 176.66409 
L 164.269943 169.870777 
L 169.906307 163.450854 
L 175.54267 157.453709 
L 181.179034 151.688501 
L 186.815398 146.261516 
L 192.451761 141.02735 
L 198.088125 136.044481 
L 203.724489 131.406947 
L 209.360852 126.926672 
L 214.997216 122.695323 
L 220.63358 118.676548 
L 226.269943 114.777891 
L 231.906307 111.141594 
L 237.54267 107.655442 
L 243.179034 104.356578 
L 248.815398 101.217738 
L 254.451761 98.219166 
L 260.088125 95.362837 
L 265.724489 92.679967 
L 271.360852 90.173715 
L 276.997216 87.765454 
L 282.63358 85.466245 
L 288.269943 83.279647 
L 293.906307 81.139277 
L 299.54267 79.083858 
L 305.179034 77.124849 
L 310.815398 75.24684 
L 316.451761 73.493688 
L 322.088125 71.844849 
L 327.724489 70.184156 
L 333.360852 68.670843 
L 338.997216 67.186769 
L 344.63358 65.791202 
L 350.269943 64.398401 
L 355.906307 63.095293 
L 361.54267 61.859355 
L 367.179034 60.626973 
L 372.815398 59.468083 
L 378.451761 58.353447 
L 384.088125 57.296499 
L 389.724489 56.234414 
L 395.360852 55.284939 
L 400.997216 54.333093 
L 406.63358 53.442885 
L 412.269943 52.564532 
L 417.906307 51.7411 
L 423.54267 50.935053 
L 429.179034 50.182743 
L 434.815398 49.424111 
L 440.451761 48.726328 
L 446.088125 48.063315 
L 451.724489 47.396351 
L 457.360852 46.774826 
L 462.997216 46.197159 
L 468.63358 45.606453 
L 474.269943 45.068694 
L 479.906307 44.539232 
L 485.54267 44.024785 
L 491.179034 43.524167 
L 496.815398 43.049626 
L 502.451761 42.591286 
L 508.088125 42.144405 
" clip-path="url(#p6119483c3f)" style="fill: none; stroke-dasharray: 9.99,4.32; stroke-dashoffset: 0; stroke: #1f77b4; stroke-opacity: 0.705882; stroke-width: 2.7"/>
   </g>
   <g id="line2d_28">
    <path d="M 22.260567 524.326437 
L 23.360852 520.905234 
L 28.997216 502.901157 
L 34.63358 484.62089 
L 40.269943 466.016625 
L 45.906307 447.554208 
L 51.54267 429.420926 
L 57.179034 411.406576 
L 62.815398 393.81224 
L 68.451761 376.711409 
L 74.088125 360.315869 
L 79.724489 344.31624 
L 85.360852 329.070502 
L 90.997216 314.51583 
L 96.63358 300.428191 
L 102.269943 287.052165 
L 107.906307 274.452946 
L 113.54267 262.391092 
L 119.179034 250.97526 
L 124.815398 240.206636 
L 130.451761 229.862372 
L 136.088125 220.101306 
L 141.724489 210.833747 
L 147.360852 202.145829 
L 152.997216 193.885433 
L 158.63358 186.026084 
L 164.269943 178.753489 
L 169.906307 171.862977 
L 175.54267 165.190176 
L 181.179034 158.995471 
L 186.815398 153.07577 
L 192.451761 147.525508 
L 198.088125 142.351005 
L 203.724489 137.34996 
L 209.360852 132.603768 
L 214.997216 128.116381 
L 220.63358 123.825763 
L 226.269943 119.817262 
L 231.906307 116.031214 
L 237.54267 112.376346 
L 243.179034 108.969614 
L 248.815398 105.70236 
L 254.451761 102.538627 
L 260.088125 99.525831 
L 265.724489 96.746551 
L 271.360852 94.060519 
L 276.997216 91.513965 
L 282.63358 89.032606 
L 288.269943 86.702183 
L 293.906307 84.462638 
L 299.54267 82.300537 
L 305.179034 80.292138 
L 310.815398 78.364738 
L 316.451761 76.579187 
L 322.088125 74.792846 
L 327.724489 73.128992 
L 333.360852 71.479757 
L 338.997216 69.973557 
L 344.63358 68.486322 
L 350.269943 67.097472 
L 355.906307 65.765915 
L 361.54267 64.470708 
L 367.179034 63.245834 
L 372.815398 62.090105 
L 378.451761 60.967962 
L 384.088125 59.912989 
L 389.724489 58.876587 
L 395.360852 57.908541 
L 400.997216 56.960251 
L 406.63358 56.053449 
L 412.269943 55.125705 
L 417.906307 54.296346 
L 423.54267 53.473705 
L 429.179034 52.7048 
L 434.815398 51.946563 
L 440.451761 51.222701 
L 446.088125 50.510298 
L 451.724489 49.883637 
L 457.360852 49.235639 
L 462.997216 48.589221 
L 468.63358 47.9997 
L 474.269943 47.419268 
L 479.906307 46.848713 
L 485.54267 46.314905 
L 491.179034 45.786233 
L 496.815398 45.319201 
L 502.451761 44.84308 
L 508.088125 44.40252 
" clip-path="url(#p6119483c3f)" style="fill: none; stroke-dasharray: 9.99,4.32; stroke-dashoffset: 0; stroke: #ff7f0e; stroke-opacity: 0.705882; stroke-width: 2.7"/>
   </g>
   <g id="line2d_29">
    <path d="M 11.645236 524.326437 
L 12.088125 523.048369 
L 17.724489 506.367552 
L 23.360852 489.419238 
L 28.997216 472.359895 
L 34.63358 455.348757 
L 40.269943 438.425335 
L 45.906307 421.953142 
L 51.54267 405.733036 
L 57.179034 389.882368 
L 62.815398 374.351352 
L 68.451761 359.317003 
L 74.088125 344.898648 
L 79.724489 330.880155 
L 85.360852 317.436959 
L 90.997216 304.537448 
L 96.63358 292.098253 
L 102.269943 280.262408 
L 107.906307 269.043741 
L 113.54267 258.071235 
L 119.179034 247.62345 
L 124.815398 237.811413 
L 130.451761 228.428874 
L 136.088125 219.490054 
L 141.724489 210.952283 
L 147.360852 202.880754 
L 152.997216 195.216595 
L 158.63358 187.959805 
L 164.269943 181.04282 
L 169.906307 174.514238 
L 175.54267 168.233397 
L 181.179034 162.308559 
L 186.815398 156.571009 
L 192.451761 151.251497 
L 198.088125 146.025234 
L 203.724489 141.097286 
L 209.360852 136.369665 
L 214.997216 131.867263 
L 220.63358 127.573485 
L 226.269943 123.532189 
L 231.906307 119.618121 
L 237.54267 115.882254 
L 243.179034 112.345922 
L 248.815398 108.980678 
L 254.451761 105.790867 
L 260.088125 102.771354 
L 265.724489 99.902776 
L 271.360852 97.151945 
L 276.997216 94.563903 
L 282.63358 92.045798 
L 288.269943 89.663219 
L 293.906307 87.415377 
L 299.54267 85.184919 
L 305.179034 83.145306 
L 310.815398 81.150735 
L 316.451761 79.241907 
L 322.088125 77.431068 
L 327.724489 75.685819 
L 333.360852 74.077677 
L 338.997216 72.466769 
L 344.63358 70.905647 
L 350.269943 69.4437 
L 355.906307 68.024425 
L 361.54267 66.684571 
L 367.179034 65.391735 
L 372.815398 64.137226 
L 378.451761 62.977547 
L 384.088125 61.831696 
L 389.724489 60.736026 
L 395.360852 59.690536 
L 400.997216 58.684954 
L 406.63358 57.753259 
L 412.269943 56.850803 
L 417.906307 55.99102 
L 423.54267 55.145856 
L 429.179034 54.316498 
L 434.815398 53.556285 
L 440.451761 52.812273 
L 446.088125 52.087226 
L 451.724489 51.386281 
L 457.360852 50.72643 
L 462.997216 50.062626 
L 468.63358 49.420555 
L 474.269943 48.845259 
L 479.906307 48.254553 
L 485.54267 47.697038 
L 491.179034 47.121347 
L 496.815398 46.606109 
L 502.451761 46.078623 
L 508.088125 45.589068 
" clip-path="url(#p6119483c3f)" style="fill: none; stroke-dasharray: 9.99,4.32; stroke-dashoffset: 0; stroke: #2ca02c; stroke-opacity: 0.705882; stroke-width: 2.7"/>
   </g>
   <g id="line2d_30">
    <path d="M 12.485647 524.326437 
L 17.724489 506.302357 
L 23.360852 486.487441 
L 28.997216 466.639335 
L 34.63358 447.21717 
L 40.269943 427.873633 
L 45.906307 409.252377 
L 51.54267 391.124628 
L 57.179034 373.52871 
L 62.815398 356.859747 
L 68.451761 340.858933 
L 74.088125 325.644804 
L 79.724489 311.161649 
L 85.360852 297.430409 
L 90.997216 284.311606 
L 96.63358 271.924568 
L 102.269943 260.210025 
L 107.906307 249.021387 
L 113.54267 238.581504 
L 119.179034 228.58218 
L 124.815398 219.215445 
L 130.451761 210.432699 
L 136.088125 202.096439 
L 141.724489 194.281344 
L 147.360852 187.031271 
L 152.997216 180.124954 
L 158.63358 173.57385 
L 164.269943 167.473974 
L 169.906307 161.721015 
L 175.54267 156.284152 
L 181.179034 151.084361 
L 186.815398 146.091614 
L 192.451761 141.382564 
L 198.088125 136.90782 
L 203.724489 132.620759 
L 209.360852 128.510711 
L 214.997216 124.606917 
L 220.63358 120.893967 
L 226.269943 117.421645 
L 231.906307 114.006615 
L 237.54267 110.824312 
L 243.179034 107.793735 
L 248.815398 104.93306 
L 254.451761 102.184204 
L 260.088125 99.609596 
L 265.724489 97.092281 
L 271.360852 94.785961 
L 276.997216 92.515597 
L 282.63358 90.347568 
L 288.269943 88.255008 
L 293.906307 86.323658 
L 299.54267 84.404951 
L 305.179034 82.660492 
L 310.815398 80.896278 
L 316.451761 79.291692 
L 322.088125 77.740842 
L 327.724489 76.222393 
L 333.360852 74.75768 
L 338.997216 73.343938 
L 344.63358 72.047151 
L 350.269943 70.764589 
L 355.906307 69.577646 
L 361.54267 68.444834 
L 367.179034 67.327037 
L 372.815398 66.237294 
L 378.451761 65.200102 
L 384.088125 64.193334 
L 389.724489 63.213829 
L 395.360852 62.291617 
L 400.997216 61.359132 
L 406.63358 60.501719 
L 412.269943 59.627712 
L 417.906307 58.812578 
L 423.54267 58.063824 
L 429.179034 57.323762 
L 434.815398 56.587257 
L 440.451761 55.855888 
L 446.088125 55.190505 
L 451.724489 54.546853 
L 457.360852 53.944294 
L 462.997216 53.308149 
L 468.63358 52.751819 
L 474.269943 52.178499 
L 479.906307 51.641134 
L 485.54267 51.091126 
L 491.179034 50.581025 
L 496.815398 50.083963 
L 502.451761 49.58532 
L 508.088125 49.1092 
" clip-path="url(#p6119483c3f)" style="fill: none; stroke-dasharray: 9.99,4.32; stroke-dashoffset: 0; stroke: #b42728; stroke-opacity: 0.705882; stroke-width: 2.7"/>
   </g>
   <g id="line2d_31">
    <path d="M 20.065576 524.326437 
L 23.360852 514.448169 
L 28.997216 497.245002 
L 34.63358 479.763275 
L 40.269943 462.188299 
L 45.906307 444.484909 
L 51.54267 427.097616 
L 57.179034 409.996785 
L 62.815398 393.363382 
L 68.451761 377.146042 
L 74.088125 361.433666 
L 79.724489 346.368498 
L 85.360852 331.773524 
L 90.997216 317.71947 
L 96.63358 304.359248 
L 102.269943 291.337646 
L 107.906307 279.022124 
L 113.54267 267.308766 
L 119.179034 255.973934 
L 124.815398 245.331749 
L 130.451761 235.164104 
L 136.088125 225.469023 
L 141.724489 216.129156 
L 147.360852 207.342064 
L 152.997216 199.002248 
L 158.63358 191.059133 
L 164.269943 183.448315 
L 169.906307 176.223926 
L 175.54267 169.346452 
L 181.179034 162.847899 
L 186.815398 156.689941 
L 192.451761 150.882059 
L 198.088125 145.402523 
L 203.724489 140.12766 
L 209.360852 135.098166 
L 214.997216 130.392672 
L 220.63358 125.861821 
L 226.269943 121.601628 
L 231.906307 117.560727 
L 237.54267 113.724894 
L 243.179034 110.192118 
L 248.815398 106.796845 
L 254.451761 103.584117 
L 260.088125 100.475701 
L 265.724489 97.619768 
L 271.360852 94.814015 
L 276.997216 92.135095 
L 282.63358 89.65018 
L 288.269943 87.298421 
L 293.906307 85.051764 
L 299.54267 82.888872 
L 305.179034 80.797892 
L 310.815398 78.832166 
L 316.451761 76.936376 
L 322.088125 75.10104 
L 327.724489 73.411898 
L 333.360852 71.776493 
L 338.997216 70.238288 
L 344.63358 68.756189 
L 350.269943 67.364574 
L 355.906307 65.966241 
L 361.54267 64.65523 
L 367.179034 63.420477 
L 372.815398 62.246968 
L 378.451761 61.163152 
L 384.088125 60.132281 
L 389.724489 59.107733 
L 395.360852 58.110843 
L 400.997216 57.177963 
L 406.63358 56.28736 
L 412.269943 55.447333 
L 417.906307 54.624297 
L 423.54267 53.853021 
L 429.179034 53.120072 
L 434.815398 52.416757 
L 440.451761 51.721344 
L 446.088125 51.098238 
L 451.724489 50.491333 
L 457.360852 49.908529 
L 462.997216 49.349828 
L 468.63358 48.788757 
L 474.269943 48.250997 
L 479.906307 47.716399 
L 485.54267 47.239093 
L 491.179034 46.77127 
L 496.815398 46.322412 
L 502.451761 45.909511 
L 508.088125 45.5136 
" clip-path="url(#p6119483c3f)" style="fill: none; stroke-dasharray: 9.99,4.32; stroke-dashoffset: 0; stroke: #9467bd; stroke-opacity: 0.705882; stroke-width: 2.7"/>
   </g>
   <g id="line2d_32">
    <path d="M 29.460331 524.326437 
L 34.63358 512.615203 
L 40.269943 499.671834 
L 45.906307 486.654577 
L 51.54267 473.640877 
L 57.179034 460.740576 
L 62.815398 447.737939 
L 68.451761 434.952618 
L 74.088125 422.364463 
L 79.724489 409.741932 
L 85.360852 397.478171 
L 90.997216 385.432121 
L 96.63358 373.638554 
L 102.269943 362.039386 
L 107.906307 350.817559 
L 113.54267 339.840311 
L 119.179034 329.140833 
L 124.815398 318.877174 
L 130.451761 308.954504 
L 136.088125 299.209243 
L 141.724489 289.738196 
L 147.360852 280.573368 
L 152.997216 271.7681 
L 158.63358 263.257197 
L 164.269943 254.9968 
L 169.906307 247.029188 
L 175.54267 239.340136 
L 181.179034 231.974688 
L 186.815398 224.924547 
L 192.451761 218.030478 
L 198.088125 211.492808 
L 203.724489 205.202089 
L 209.360852 199.097472 
L 214.997216 193.186069 
L 220.63358 187.516085 
L 226.269943 182.113992 
L 231.906307 176.931982 
L 237.54267 171.916713 
L 243.179034 167.158668 
L 248.815398 162.486759 
L 254.451761 158.083532 
L 260.088125 153.823339 
L 265.724489 149.742136 
L 271.360852 145.805546 
L 276.997216 142.035303 
L 282.63358 138.341713 
L 288.269943 134.858328 
L 293.906307 131.48044 
L 299.54267 128.17802 
L 305.179034 124.99295 
L 310.815398 121.989242 
L 316.451761 119.110786 
L 322.088125 116.255248 
L 327.724489 113.528124 
L 333.360852 110.989472 
L 338.997216 108.554738 
L 344.63358 106.186778 
L 350.269943 103.848058 
L 355.906307 101.588362 
L 361.54267 99.460241 
L 367.179034 97.370051 
L 372.815398 95.394052 
L 378.451761 93.470209 
L 384.088125 91.607214 
L 389.724489 89.829565 
L 395.360852 88.101702 
L 400.997216 86.470643 
L 406.63358 84.892135 
L 412.269943 83.343261 
L 417.906307 81.909367 
L 423.54267 80.513801 
L 429.179034 79.124161 
L 434.815398 77.801691 
L 440.451761 76.493446 
L 446.088125 75.279239 
L 451.724489 74.067799 
L 457.360852 72.913651 
L 462.997216 71.775308 
L 468.63358 70.700974 
L 474.269943 69.643631 
L 479.906307 68.591424 
L 485.54267 67.618636 
L 491.179034 66.679829 
L 496.815398 65.76552 
L 502.451761 64.880449 
L 508.088125 64.053461 
" clip-path="url(#p6119483c3f)" style="fill: none; stroke-dasharray: 9.99,4.32; stroke-dashoffset: 0; stroke: #8c564b; stroke-opacity: 0.705882; stroke-width: 2.7"/>
   </g>
   <g id="line2d_33">
    <path d="M 9.685022 524.326437 
L 12.088125 516.951654 
L 17.724489 499.395644 
L 23.360852 481.621923 
L 28.997216 463.924855 
L 34.63358 446.334865 
L 40.269943 429.058205 
L 45.906307 412.041931 
L 51.54267 395.507703 
L 57.179034 379.347655 
L 62.815398 363.68546 
L 68.451761 348.651111 
L 74.088125 334.169141 
L 79.724489 320.222956 
L 85.360852 306.977714 
L 90.997216 294.224003 
L 96.63358 282.032945 
L 102.269943 270.481191 
L 107.906307 259.337598 
L 113.54267 248.804071 
L 119.179034 238.784596 
L 124.815398 229.190271 
L 130.451761 220.095775 
L 136.088125 211.380989 
L 141.724489 203.058954 
L 147.360852 195.158117 
L 152.997216 187.660304 
L 158.63358 180.572626 
L 164.269943 173.883625 
L 169.906307 167.473974 
L 175.54267 161.32866 
L 181.179034 155.498256 
L 186.815398 150.055862 
L 192.451761 144.824066 
L 198.088125 139.890192 
L 203.724489 135.147161 
L 209.360852 130.64792 
L 214.997216 126.275118 
L 220.63358 122.181666 
L 226.269943 118.252979 
L 231.906307 114.548326 
L 237.54267 111.04874 
L 243.179034 107.698116 
L 248.815398 104.516602 
L 254.451761 101.497484 
L 260.088125 98.59295 
L 265.724489 95.816041 
L 271.360852 93.136727 
L 276.997216 90.628104 
L 282.63358 88.231696 
L 288.269943 85.978322 
L 293.906307 83.815826 
L 299.54267 81.669134 
L 305.179034 79.665476 
L 310.815398 77.787467 
L 316.451761 75.977418 
L 322.088125 74.201745 
L 327.724489 72.537101 
L 333.360852 70.940022 
L 338.997216 69.399051 
L 344.63358 67.94145 
L 350.269943 66.513483 
L 355.906307 65.205238 
L 361.54267 63.950729 
L 367.179034 62.747191 
L 372.815398 61.539702 
L 378.451761 60.370539 
L 384.088125 59.302133 
L 389.724489 58.292599 
L 395.360852 57.372362 
L 400.997216 56.425258 
L 406.63358 55.51885 
L 412.269943 54.641287 
L 417.906307 53.817065 
L 423.54267 53.028008 
L 429.179034 52.242903 
L 434.815398 51.489408 
L 440.451761 50.773844 
L 446.088125 50.114782 
L 451.724489 49.48654 
L 457.360852 48.859879 
L 462.997216 48.241119 
L 468.63358 47.647253 
L 474.269943 47.080254 
L 479.906307 46.521553 
L 485.54267 46.002365 
L 491.179034 45.521898 
L 496.815398 45.029972 
L 502.451761 44.556617 
L 508.088125 44.117638 
" clip-path="url(#p6119483c3f)" style="fill: none; stroke-dasharray: 9.99,4.32; stroke-dashoffset: 0; stroke: #e377c2; stroke-opacity: 0.705882; stroke-width: 2.7"/>
   </g>
   <g id="line2d_34">
    <path d="M 8.295951 524.326437 
L 12.088125 512.49074 
L 17.724489 494.654984 
L 23.360852 476.720449 
L 28.997216 458.80725 
L 34.63358 441.092401 
L 40.269943 423.715381 
L 45.906307 406.671053 
L 51.54267 389.970084 
L 57.179034 373.749188 
L 62.815398 358.129665 
L 68.451761 342.936478 
L 74.088125 328.453718 
L 79.724489 314.497259 
L 85.360852 301.230286 
L 90.997216 288.581678 
L 96.63358 276.449887 
L 102.269943 264.932509 
L 107.906307 253.937086 
L 113.54267 243.461247 
L 119.179034 233.389616 
L 124.815398 223.873525 
L 130.451761 214.936287 
L 136.088125 206.36493 
L 141.724489 198.243616 
L 147.360852 190.525325 
L 152.997216 183.210848 
L 158.63358 176.289911 
L 164.269943 169.615924 
L 169.906307 163.343776 
L 175.54267 157.327666 
L 181.179034 151.665189 
L 186.815398 146.261516 
L 192.451761 141.047501 
L 198.088125 136.124295 
L 203.724489 131.519557 
L 209.360852 127.216691 
L 214.997216 122.990478 
L 220.63358 118.966172 
L 226.269943 115.271792 
L 231.906307 111.689231 
L 237.54267 108.247729 
L 243.179034 104.969411 
L 248.815398 101.927771 
L 254.451761 98.978193 
L 260.088125 96.179552 
L 265.724489 93.511696 
L 271.360852 90.970674 
L 276.997216 88.541471 
L 282.63358 86.206307 
L 288.269943 84.045786 
L 293.906307 81.956387 
L 299.54267 79.97367 
L 305.179034 78.054173 
L 310.815398 76.184857 
L 316.451761 74.486232 
L 322.088125 72.853988 
L 327.724489 71.256514 
L 333.360852 69.67445 
L 338.997216 68.221986 
L 344.63358 66.777029 
L 350.269943 65.43915 
L 355.906307 64.151451 
L 361.54267 62.942381 
L 367.179034 61.772823 
L 372.815398 60.663719 
L 378.451761 59.549478 
L 384.088125 58.506754 
L 389.724489 57.536337 
L 395.360852 56.574218 
L 400.997216 55.665045 
L 406.63358 54.785111 
L 412.269943 53.973138 
L 417.906307 53.205418 
L 423.54267 52.453108 
L 429.179034 51.712651 
L 434.815398 51.001038 
L 440.451761 50.338026 
L 446.088125 49.676989 
L 451.724489 49.049932 
L 457.360852 48.419714 
L 462.997216 47.830194 
L 468.63358 47.241068 
L 474.269943 46.681182 
L 479.906307 46.187281 
L 485.54267 45.701282 
L 491.179034 45.206196 
L 496.815398 44.718617 
L 502.451761 44.274501 
L 508.088125 43.842634 
" clip-path="url(#p6119483c3f)" style="fill: none; stroke-dasharray: 9.99,4.32; stroke-dashoffset: 0; stroke: #aec7e8; stroke-opacity: 0.705882; stroke-width: 2.7"/>
   </g>
   <g id="line2d_35">
    <path d="M 10.526912 524.326437 
L 12.088125 519.693003 
L 17.724489 502.558982 
L 23.360852 485.258615 
L 28.997216 467.908068 
L 34.63358 450.606516 
L 40.269943 433.710753 
L 45.906307 416.999907 
L 51.54267 400.602787 
L 57.179034 384.69206 
L 62.815398 369.089528 
L 68.451761 354.069008 
L 74.088125 339.562936 
L 79.724489 325.574077 
L 85.360852 312.428011 
L 90.997216 299.59251 
L 96.63358 287.283706 
L 102.269943 275.704294 
L 107.906307 264.523559 
L 113.54267 253.73676 
L 119.179034 243.465988 
L 124.815398 233.785922 
L 130.451761 224.561826 
L 136.088125 215.702821 
L 141.724489 207.302552 
L 147.360852 199.274091 
L 152.997216 191.617834 
L 158.63358 184.422288 
L 164.269943 177.584722 
L 169.906307 171.082218 
L 175.54267 164.877635 
L 181.179034 158.9445 
L 186.815398 153.339316 
L 192.451761 147.998467 
L 198.088125 142.893111 
L 203.724489 138.032334 
L 209.360852 133.463551 
L 214.997216 129.010144 
L 220.63358 124.851102 
L 226.269943 120.845367 
L 231.906307 117.032451 
L 237.54267 113.368495 
L 243.179034 109.949514 
L 248.815398 106.671987 
L 254.451761 103.575029 
L 260.088125 100.611623 
L 265.724489 97.75727 
L 271.360852 95.039629 
L 276.997216 92.449216 
L 282.63358 89.968252 
L 288.269943 87.614913 
L 293.906307 85.368651 
L 299.54267 83.145701 
L 305.179034 81.103716 
L 310.815398 79.134829 
L 316.451761 77.236273 
L 322.088125 75.421878 
L 327.724489 73.670307 
L 333.360852 72.045966 
L 338.997216 70.44375 
L 344.63358 68.943477 
L 350.269943 67.478764 
L 355.906307 66.09426 
L 361.54267 64.793917 
L 367.179034 63.537038 
L 372.815398 62.275417 
L 378.451761 61.074645 
L 384.088125 59.962775 
L 389.724489 58.908197 
L 395.360852 57.917629 
L 400.997216 56.936544 
L 406.63358 56.021049 
L 412.269943 55.139139 
L 417.906307 54.272639 
L 423.54267 53.438144 
L 429.179034 52.619849 
L 434.815398 51.842646 
L 440.451761 51.098633 
L 446.088125 50.411518 
L 451.724489 49.743764 
L 457.360852 49.095766 
L 462.997216 48.442631 
L 468.63358 47.806881 
L 474.269943 47.227634 
L 479.906307 46.650363 
L 485.54267 46.122876 
L 491.179034 45.603688 
L 496.815398 45.091611 
L 502.451761 44.623788 
L 508.088125 44.182833 
" clip-path="url(#p6119483c3f)" style="fill: none; stroke-dasharray: 9.99,4.32; stroke-dashoffset: 0; stroke: #bcbd22; stroke-opacity: 0.705882; stroke-width: 2.7"/>
   </g>
   <g id="line2d_36">
    <path d="M 10.548284 524.326437 
L 12.088125 519.63413 
L 17.724489 502.135413 
L 23.360852 484.448618 
L 28.997216 466.898535 
L 34.63358 449.31052 
L 40.269943 431.937451 
L 45.906307 414.981235 
L 51.54267 398.380627 
L 57.179034 382.118243 
L 62.815398 366.448935 
L 68.451761 351.194109 
L 74.088125 336.604666 
L 79.724489 322.577481 
L 85.360852 309.15246 
L 90.997216 296.423246 
L 96.63358 284.134197 
L 102.269943 272.469044 
L 107.906307 261.298582 
L 113.54267 250.772168 
L 119.179034 240.625464 
L 124.815398 231.003876 
L 130.451761 221.774643 
L 136.088125 213.050375 
L 141.724489 204.744144 
L 147.360852 196.775742 
L 152.997216 189.343123 
L 158.63358 182.174446 
L 164.269943 175.289465 
L 169.906307 168.830819 
L 175.54267 162.629397 
L 181.179034 156.769755 
L 186.815398 151.17998 
L 192.451761 145.831229 
L 198.088125 140.746419 
L 203.724489 135.952418 
L 209.360852 131.429864 
L 214.997216 127.061013 
L 220.63358 122.893278 
L 226.269943 119.013587 
L 231.906307 115.248875 
L 237.54267 111.664734 
L 243.179034 108.247729 
L 248.815398 105.045669 
L 254.451761 101.939624 
L 260.088125 99.013754 
L 265.724489 96.174811 
L 271.360852 93.50656 
L 276.997216 90.975416 
L 282.63358 88.476276 
L 288.269943 86.18339 
L 293.906307 83.967552 
L 299.54267 81.863138 
L 305.179034 79.837354 
L 310.815398 77.877554 
L 316.451761 76.043403 
L 322.088125 74.324232 
L 327.724489 72.641808 
L 333.360852 70.994154 
L 338.997216 69.4599 
L 344.63358 67.925645 
L 350.269943 66.496098 
L 355.906307 65.126609 
L 361.54267 63.849183 
L 367.179034 62.64525 
L 372.815398 61.465024 
L 378.451761 60.297837 
L 384.088125 59.183991 
L 389.724489 58.146799 
L 395.360852 57.135685 
L 400.997216 56.159736 
L 406.63358 55.245032 
L 412.269943 54.395522 
L 417.906307 53.591056 
L 423.54267 52.767624 
L 429.179034 51.999114 
L 434.815398 51.263004 
L 440.451761 50.561664 
L 446.088125 49.882056 
L 451.724489 49.22418 
L 457.360852 48.559192 
L 462.997216 47.942803 
L 468.63358 47.336293 
L 474.269943 46.757441 
L 479.906307 46.228374 
L 485.54267 45.711951 
L 491.179034 45.194342 
L 496.815398 44.683846 
L 502.451761 44.226691 
L 508.088125 43.770722 
" clip-path="url(#p6119483c3f)" style="fill: none; stroke-dasharray: 9.99,4.32; stroke-dashoffset: 0; stroke: #17becf; stroke-opacity: 0.705882; stroke-width: 2.7"/>
   </g>
   <g id="line2d_37">
    <path d="M 11.726173 524.326437 
L 12.088125 523.248695 
L 17.724489 506.202787 
L 23.360852 488.828532 
L 28.997216 471.343249 
L 34.63358 453.873376 
L 40.269943 436.823911 
L 45.906307 419.883499 
L 51.54267 403.338603 
L 57.179034 387.207004 
L 62.815398 371.524657 
L 68.451761 356.326729 
L 74.088125 341.822632 
L 79.724489 327.830613 
L 85.360852 314.528869 
L 90.997216 301.848255 
L 96.63358 289.538265 
L 102.269943 277.89761 
L 107.906307 266.646938 
L 113.54267 255.890563 
L 119.179034 245.707509 
L 124.815398 235.904955 
L 130.451761 226.598279 
L 136.088125 217.667757 
L 141.724489 209.159225 
L 147.360852 201.091252 
L 152.997216 193.369405 
L 158.63358 186.131976 
L 164.269943 179.202347 
L 169.906307 172.622004 
L 175.54267 166.325753 
L 181.179034 160.294628 
L 186.815398 154.6282 
L 192.451761 149.211883 
L 198.088125 144.095463 
L 203.724489 139.190433 
L 209.360852 134.564358 
L 214.997216 130.09001 
L 220.63358 125.854709 
L 226.269943 121.775876 
L 231.906307 117.943204 
L 237.54267 114.276088 
L 243.179034 110.81878 
L 248.815398 107.479614 
L 254.451761 104.31351 
L 260.088125 101.276611 
L 265.724489 98.388278 
L 271.360852 95.609393 
L 276.997216 92.995273 
L 282.63358 90.449115 
L 288.269943 88.073253 
L 293.906307 85.770093 
L 299.54267 83.547143 
L 305.179034 81.440754 
L 310.815398 79.457643 
L 316.451761 77.544467 
L 322.088125 75.714268 
L 327.724489 73.931087 
L 333.360852 72.254984 
L 338.997216 70.619579 
L 344.63358 69.096388 
L 350.269943 67.608758 
L 355.906307 66.203709 
L 361.54267 64.876498 
L 367.179034 63.588799 
L 372.815398 62.324807 
L 378.451761 61.095981 
L 384.088125 59.97937 
L 389.724489 58.901085 
L 395.360852 57.887995 
L 400.997216 56.895056 
L 406.63358 55.960595 
L 412.269943 55.048261 
L 417.906307 54.169513 
L 423.54267 53.323164 
L 429.179034 52.484717 
L 434.815398 51.695661 
L 440.451761 50.938214 
L 446.088125 50.223836 
L 451.724489 49.550155 
L 457.360852 48.902157 
L 462.997216 48.252578 
L 468.63358 47.627497 
L 474.269943 47.027703 
L 479.906307 46.469793 
L 485.54267 45.92334 
L 491.179034 45.414425 
L 496.815398 44.890494 
L 502.451761 44.406076 
L 508.088125 43.933907 
" clip-path="url(#p6119483c3f)" style="fill: none; stroke-dasharray: 9.99,4.32; stroke-dashoffset: 0; stroke: #ffbb78; stroke-opacity: 0.705882; stroke-width: 2.7"/>
   </g>
   <g id="line2d_38">
    <path d="M 6.451761 518.419133 
L 12.088125 499.359293 
L 17.724489 479.74984 
L 23.360852 460.337158 
L 28.997216 441.062767 
L 34.63358 422.221824 
L 40.269943 403.67011 
L 45.906307 385.637979 
L 51.54267 368.079599 
L 57.179034 351.243499 
L 62.815398 335.054607 
L 68.451761 319.673343 
L 74.088125 304.965759 
L 79.724489 290.859549 
L 85.360852 277.463372 
L 90.997216 264.645651 
L 96.63358 252.641089 
L 102.269943 241.258448 
L 107.906307 230.403688 
L 113.54267 220.154648 
L 119.179034 210.295987 
L 124.815398 201.141432 
L 130.451761 192.414398 
L 136.088125 184.031909 
L 141.724489 176.268179 
L 147.360852 168.91498 
L 152.997216 161.935565 
L 158.63358 155.252096 
L 164.269943 149.109942 
L 169.906307 143.214739 
L 175.54267 137.601652 
L 181.179034 132.335481 
L 186.815398 127.316656 
L 192.451761 122.592196 
L 198.088125 118.104018 
L 203.724489 113.889659 
L 209.360852 109.890641 
L 214.997216 106.118817 
L 220.63358 102.591178 
L 226.269943 99.259914 
L 231.906307 96.158216 
L 237.54267 93.135936 
L 243.179034 90.326232 
L 248.815398 87.663117 
L 254.451761 85.140666 
L 260.088125 82.783375 
L 265.724489 80.529605 
L 271.360852 78.375011 
L 276.997216 76.357524 
L 282.63358 74.428544 
L 288.269943 72.60111 
L 293.906307 70.862579 
L 299.54267 69.168695 
L 305.179034 67.556207 
L 310.815398 66.053168 
L 316.451761 64.627571 
L 322.088125 63.254131 
L 327.724489 61.949442 
L 333.360852 60.690192 
L 338.997216 59.492186 
L 344.63358 58.402047 
L 350.269943 57.329294 
L 355.906307 56.296053 
L 361.54267 55.337095 
L 367.179034 54.418834 
L 372.815398 53.546012 
L 378.451761 52.724556 
L 384.088125 51.927597 
L 389.724489 51.172521 
L 395.360852 50.437991 
L 400.997216 49.785252 
L 406.63358 49.1254 
L 412.269943 48.482143 
L 417.906307 47.870496 
L 423.54267 47.303498 
L 429.179034 46.728202 
L 434.815398 46.187281 
L 440.451761 45.6756 
L 446.088125 45.198689 
L 451.724489 44.715456 
L 457.360852 44.278847 
L 462.997216 43.84461 
L 468.63358 43.414323 
L 474.269943 43.012485 
L 479.906307 42.623686 
L 485.54267 42.249902 
L 491.179034 41.892713 
L 496.815398 41.539079 
L 502.451761 41.196905 
L 508.088125 40.849989 
" clip-path="url(#p6119483c3f)" style="fill: none; stroke-dasharray: 9.99,4.32; stroke-dashoffset: 0; stroke: #ff0000; stroke-opacity: 0.705882; stroke-width: 2.7"/>
   </g>
   <g id="patch_3">
    <path d="M 61.688125 472.220812 
L 61.688125 28.700812 
" style="fill: none; stroke: #000000; stroke-width: 0.8; stroke-linejoin: miter; stroke-linecap: square"/>
   </g>
   <g id="patch_4">
    <path d="M 508.088125 472.220812 
L 508.088125 28.700812 
" style="fill: none; stroke: #000000; stroke-width: 0.8; stroke-linejoin: miter; stroke-linecap: square"/>
   </g>
   <g id="patch_5">
    <path d="M 61.688125 472.220812 
L 508.088125 472.220812 
" style="fill: none; stroke: #000000; stroke-width: 0.8; stroke-linejoin: miter; stroke-linecap: square"/>
   </g>
   <g id="patch_6">
    <path d="M 61.688125 28.700812 
L 508.088125 28.700812 
" style="fill: none; stroke: #000000; stroke-width: 0.8; stroke-linejoin: miter; stroke-linecap: square"/>
   </g>
   <g id="text_16">
    <!-- DexYCB Joint AUC -->
    <g transform="translate(194.514531 22.700812) scale(0.204 -0.204)">
     <defs>
      <path id="DejaVuSans-78" d="M 3513 3500 
L 2247 1797 
L 3578 0 
L 2900 0 
L 1881 1375 
L 863 0 
L 184 0 
L 1544 1831 
L 300 3500 
L 978 3500 
L 1906 2253 
L 2834 3500 
L 3513 3500 
z
" transform="scale(0.015625)"/>
      <path id="DejaVuSans-59" d="M -13 4666 
L 666 4666 
L 1959 2747 
L 3244 4666 
L 3922 4666 
L 2272 2222 
L 2272 0 
L 1638 0 
L 1638 2222 
L -13 4666 
z
" transform="scale(0.015625)"/>
      <path id="DejaVuSans-42" d="M 1259 2228 
L 1259 519 
L 2272 519 
Q 2781 519 3026 730 
Q 3272 941 3272 1375 
Q 3272 1813 3026 2020 
Q 2781 2228 2272 2228 
L 1259 2228 
z
M 1259 4147 
L 1259 2741 
L 2194 2741 
Q 2656 2741 2882 2914 
Q 3109 3088 3109 3444 
Q 3109 3797 2882 3972 
Q 2656 4147 2194 4147 
L 1259 4147 
z
M 628 4666 
L 2241 4666 
Q 2963 4666 3353 4366 
Q 3744 4066 3744 3513 
Q 3744 3084 3544 2831 
Q 3344 2578 2956 2516 
Q 3422 2416 3680 2098 
Q 3938 1781 3938 1306 
Q 3938 681 3513 340 
Q 3088 0 2303 0 
L 628 0 
L 628 4666 
z
" transform="scale(0.015625)"/>
      <path id="DejaVuSans-41" d="M 2188 4044 
L 1331 1722 
L 3047 1722 
L 2188 4044 
z
M 1831 4666 
L 2547 4666 
L 4325 0 
L 3669 0 
L 3244 1197 
L 1141 1197 
L 716 0 
L 50 0 
L 1831 4666 
z
" transform="scale(0.015625)"/>
      <path id="DejaVuSans-55" d="M 556 4666 
L 1191 4666 
L 1191 1831 
Q 1191 1081 1462 751 
Q 1734 422 2344 422 
Q 2950 422 3222 751 
Q 3494 1081 3494 1831 
L 3494 4666 
L 4128 4666 
L 4128 1753 
Q 4128 841 3676 375 
Q 3225 -91 2344 -91 
Q 1459 -91 1007 375 
Q 556 841 556 1753 
L 556 4666 
z
" transform="scale(0.015625)"/>
     </defs>
     <use xlink:href="#DejaVuSans-44"/>
     <use xlink:href="#DejaVuSans-65" x="77.001953"/>
     <use xlink:href="#DejaVuSans-78" x="136.775391"/>
     <use xlink:href="#DejaVuSans-59" x="195.955078"/>
     <use xlink:href="#DejaVuSans-43" x="251.539062"/>
     <use xlink:href="#DejaVuSans-42" x="321.363281"/>
     <use xlink:href="#DejaVuSans-20" x="389.966797"/>
     <use xlink:href="#DejaVuSans-4a" x="421.753906"/>
     <use xlink:href="#DejaVuSans-6f" x="451.246094"/>
     <use xlink:href="#DejaVuSans-69" x="512.427734"/>
     <use xlink:href="#DejaVuSans-6e" x="540.210938"/>
     <use xlink:href="#DejaVuSans-74" x="603.589844"/>
     <use xlink:href="#DejaVuSans-20" x="642.798828"/>
     <use xlink:href="#DejaVuSans-41" x="674.585938"/>
     <use xlink:href="#DejaVuSans-55" x="742.994141"/>
     <use xlink:href="#DejaVuSans-43" x="816.1875"/>
    </g>
   </g>
   <g id="legend_1">
    <g id="patch_7">
     <path d="M 172.507828 465.140313 
L 498.175425 465.140313 
Q 501.007625 465.140313 501.007625 462.308112 
L 501.007625 214.295899 
Q 501.007625 211.463699 498.175425 211.463699 
L 172.507828 211.463699 
Q 169.675628 211.463699 169.675628 214.295899 
L 169.675628 462.308112 
Q 169.675628 465.140313 172.507828 465.140313 
z
" style="fill: #ffffff; opacity: 0.75; stroke: #cccccc; stroke-linejoin: miter"/>
    </g>
    <g id="line2d_39">
     <path d="M 175.340028 222.931896 
L 189.501028 222.931896 
L 203.662028 222.931896 
" style="fill: none; stroke-dasharray: 9.99,4.32; stroke-dashoffset: 0; stroke: #1f77b4; stroke-opacity: 0.705882; stroke-width: 2.7"/>
    </g>
    <g id="text_17">
     <!-- HandOccNet (CVPR2022): AUC=72.8 -->
     <g transform="translate(214.990828 227.888246) scale(0.14161 -0.14161)">
      <defs>
       <path id="DejaVuSans-48" d="M 628 4666 
L 1259 4666 
L 1259 2753 
L 3553 2753 
L 3553 4666 
L 4184 4666 
L 4184 0 
L 3553 0 
L 3553 2222 
L 1259 2222 
L 1259 0 
L 628 0 
L 628 4666 
z
" transform="scale(0.015625)"/>
       <path id="DejaVuSans-61" d="M 2194 1759 
Q 1497 1759 1228 1600 
Q 959 1441 959 1056 
Q 959 750 1161 570 
Q 1363 391 1709 391 
Q 2188 391 2477 730 
Q 2766 1069 2766 1631 
L 2766 1759 
L 2194 1759 
z
M 3341 1997 
L 3341 0 
L 2766 0 
L 2766 531 
Q 2569 213 2275 61 
Q 1981 -91 1556 -91 
Q 1019 -91 701 211 
Q 384 513 384 1019 
Q 384 1609 779 1909 
Q 1175 2209 1959 2209 
L 2766 2209 
L 2766 2266 
Q 2766 2663 2505 2880 
Q 2244 3097 1772 3097 
Q 1472 3097 1187 3025 
Q 903 2953 641 2809 
L 641 3341 
Q 956 3463 1253 3523 
Q 1550 3584 1831 3584 
Q 2591 3584 2966 3190 
Q 3341 2797 3341 1997 
z
" transform="scale(0.015625)"/>
       <path id="DejaVuSans-4f" d="M 2522 4238 
Q 1834 4238 1429 3725 
Q 1025 3213 1025 2328 
Q 1025 1447 1429 934 
Q 1834 422 2522 422 
Q 3209 422 3611 934 
Q 4013 1447 4013 2328 
Q 4013 3213 3611 3725 
Q 3209 4238 2522 4238 
z
M 2522 4750 
Q 3503 4750 4090 4092 
Q 4678 3434 4678 2328 
Q 4678 1225 4090 567 
Q 3503 -91 2522 -91 
Q 1538 -91 948 565 
Q 359 1222 359 2328 
Q 359 3434 948 4092 
Q 1538 4750 2522 4750 
z
" transform="scale(0.015625)"/>
       <path id="DejaVuSans-63" d="M 3122 3366 
L 3122 2828 
Q 2878 2963 2633 3030 
Q 2388 3097 2138 3097 
Q 1578 3097 1268 2742 
Q 959 2388 959 1747 
Q 959 1106 1268 751 
Q 1578 397 2138 397 
Q 2388 397 2633 464 
Q 2878 531 3122 666 
L 3122 134 
Q 2881 22 2623 -34 
Q 2366 -91 2075 -91 
Q 1284 -91 818 406 
Q 353 903 353 1747 
Q 353 2603 823 3093 
Q 1294 3584 2113 3584 
Q 2378 3584 2631 3529 
Q 2884 3475 3122 3366 
z
" transform="scale(0.015625)"/>
       <path id="DejaVuSans-4e" d="M 628 4666 
L 1478 4666 
L 3547 763 
L 3547 4666 
L 4159 4666 
L 4159 0 
L 3309 0 
L 1241 3903 
L 1241 0 
L 628 0 
L 628 4666 
z
" transform="scale(0.015625)"/>
       <path id="DejaVuSans-56" d="M 1831 0 
L 50 4666 
L 709 4666 
L 2188 738 
L 3669 4666 
L 4325 4666 
L 2547 0 
L 1831 0 
z
" transform="scale(0.015625)"/>
       <path id="DejaVuSans-52" d="M 2841 2188 
Q 3044 2119 3236 1894 
Q 3428 1669 3622 1275 
L 4263 0 
L 3584 0 
L 2988 1197 
Q 2756 1666 2539 1819 
Q 2322 1972 1947 1972 
L 1259 1972 
L 1259 0 
L 628 0 
L 628 4666 
L 2053 4666 
Q 2853 4666 3247 4331 
Q 3641 3997 3641 3322 
Q 3641 2881 3436 2590 
Q 3231 2300 2841 2188 
z
M 1259 4147 
L 1259 2491 
L 2053 2491 
Q 2509 2491 2742 2702 
Q 2975 2913 2975 3322 
Q 2975 3731 2742 3939 
Q 2509 4147 2053 4147 
L 1259 4147 
z
" transform="scale(0.015625)"/>
       <path id="DejaVuSans-3a" d="M 750 794 
L 1409 794 
L 1409 0 
L 750 0 
L 750 794 
z
M 750 3309 
L 1409 3309 
L 1409 2516 
L 750 2516 
L 750 3309 
z
" transform="scale(0.015625)"/>
       <path id="DejaVuSans-3d" d="M 678 2906 
L 4684 2906 
L 4684 2381 
L 678 2381 
L 678 2906 
z
M 678 1631 
L 4684 1631 
L 4684 1100 
L 678 1100 
L 678 1631 
z
" transform="scale(0.015625)"/>
      </defs>
      <use xlink:href="#DejaVuSans-48"/>
      <use xlink:href="#DejaVuSans-61" x="75.195312"/>
      <use xlink:href="#DejaVuSans-6e" x="136.474609"/>
      <use xlink:href="#DejaVuSans-64" x="199.853516"/>
      <use xlink:href="#DejaVuSans-4f" x="263.330078"/>
      <use xlink:href="#DejaVuSans-63" x="342.041016"/>
      <use xlink:href="#DejaVuSans-63" x="397.021484"/>
      <use xlink:href="#DejaVuSans-4e" x="452.001953"/>
      <use xlink:href="#DejaVuSans-65" x="526.806641"/>
      <use xlink:href="#DejaVuSans-74" x="588.330078"/>
      <use xlink:href="#DejaVuSans-20" x="627.539062"/>
      <use xlink:href="#DejaVuSans-28" x="659.326172"/>
      <use xlink:href="#DejaVuSans-43" x="698.339844"/>
      <use xlink:href="#DejaVuSans-56" x="768.164062"/>
      <use xlink:href="#DejaVuSans-50" x="836.572266"/>
      <use xlink:href="#DejaVuSans-52" x="896.875"/>
      <use xlink:href="#DejaVuSans-32" x="966.357422"/>
      <use xlink:href="#DejaVuSans-30" x="1029.980469"/>
      <use xlink:href="#DejaVuSans-32" x="1093.603516"/>
      <use xlink:href="#DejaVuSans-32" x="1157.226562"/>
      <use xlink:href="#DejaVuSans-29" x="1220.849609"/>
      <use xlink:href="#DejaVuSans-3a" x="1259.863281"/>
      <use xlink:href="#DejaVuSans-20" x="1293.554688"/>
      <use xlink:href="#DejaVuSans-41" x="1325.341797"/>
      <use xlink:href="#DejaVuSans-55" x="1393.75"/>
      <use xlink:href="#DejaVuSans-43" x="1466.943359"/>
      <use xlink:href="#DejaVuSans-3d" x="1536.767578"/>
      <use xlink:href="#DejaVuSans-37" x="1620.556641"/>
      <use xlink:href="#DejaVuSans-32" x="1684.179688"/>
      <use xlink:href="#DejaVuSans-2e" x="1747.802734"/>
      <use xlink:href="#DejaVuSans-38" x="1779.589844"/>
     </g>
    </g>
    <g id="line2d_40">
     <path d="M 175.340028 243.717589 
L 189.501028 243.717589 
L 203.662028 243.717589 
" style="fill: none; stroke-dasharray: 9.99,4.32; stroke-dashoffset: 0; stroke: #ff7f0e; stroke-opacity: 0.705882; stroke-width: 2.7"/>
    </g>
    <g id="text_18">
     <!-- MobRecon (CVPR2022): AUC=71.2 -->
     <g transform="translate(214.990828 248.673939) scale(0.14161 -0.14161)">
      <defs>
       <path id="DejaVuSans-4d" d="M 628 4666 
L 1569 4666 
L 2759 1491 
L 3956 4666 
L 4897 4666 
L 4897 0 
L 4281 0 
L 4281 4097 
L 3078 897 
L 2444 897 
L 1241 4097 
L 1241 0 
L 628 0 
L 628 4666 
z
" transform="scale(0.015625)"/>
       <path id="DejaVuSans-62" d="M 3116 1747 
Q 3116 2381 2855 2742 
Q 2594 3103 2138 3103 
Q 1681 3103 1420 2742 
Q 1159 2381 1159 1747 
Q 1159 1113 1420 752 
Q 1681 391 2138 391 
Q 2594 391 2855 752 
Q 3116 1113 3116 1747 
z
M 1159 2969 
Q 1341 3281 1617 3432 
Q 1894 3584 2278 3584 
Q 2916 3584 3314 3078 
Q 3713 2572 3713 1747 
Q 3713 922 3314 415 
Q 2916 -91 2278 -91 
Q 1894 -91 1617 61 
Q 1341 213 1159 525 
L 1159 0 
L 581 0 
L 581 4863 
L 1159 4863 
L 1159 2969 
z
" transform="scale(0.015625)"/>
      </defs>
      <use xlink:href="#DejaVuSans-4d"/>
      <use xlink:href="#DejaVuSans-6f" x="86.279297"/>
      <use xlink:href="#DejaVuSans-62" x="147.460938"/>
      <use xlink:href="#DejaVuSans-52" x="210.9375"/>
      <use xlink:href="#DejaVuSans-65" x="275.919922"/>
      <use xlink:href="#DejaVuSans-63" x="337.443359"/>
      <use xlink:href="#DejaVuSans-6f" x="392.423828"/>
      <use xlink:href="#DejaVuSans-6e" x="453.605469"/>
      <use xlink:href="#DejaVuSans-20" x="516.984375"/>
      <use xlink:href="#DejaVuSans-28" x="548.771484"/>
      <use xlink:href="#DejaVuSans-43" x="587.785156"/>
      <use xlink:href="#DejaVuSans-56" x="657.609375"/>
      <use xlink:href="#DejaVuSans-50" x="726.017578"/>
      <use xlink:href="#DejaVuSans-52" x="786.320312"/>
      <use xlink:href="#DejaVuSans-32" x="855.802734"/>
      <use xlink:href="#DejaVuSans-30" x="919.425781"/>
      <use xlink:href="#DejaVuSans-32" x="983.048828"/>
      <use xlink:href="#DejaVuSans-32" x="1046.671875"/>
      <use xlink:href="#DejaVuSans-29" x="1110.294922"/>
      <use xlink:href="#DejaVuSans-3a" x="1149.308594"/>
      <use xlink:href="#DejaVuSans-20" x="1183"/>
      <use xlink:href="#DejaVuSans-41" x="1214.787109"/>
      <use xlink:href="#DejaVuSans-55" x="1283.195312"/>
      <use xlink:href="#DejaVuSans-43" x="1356.388672"/>
      <use xlink:href="#DejaVuSans-3d" x="1426.212891"/>
      <use xlink:href="#DejaVuSans-37" x="1510.001953"/>
      <use xlink:href="#DejaVuSans-31" x="1573.625"/>
      <use xlink:href="#DejaVuSans-2e" x="1637.248047"/>
      <use xlink:href="#DejaVuSans-32" x="1669.035156"/>
     </g>
    </g>
    <g id="line2d_41">
     <path d="M 175.340028 264.503282 
L 189.501028 264.503282 
L 203.662028 264.503282 
" style="fill: none; stroke-dasharray: 9.99,4.32; stroke-dashoffset: 0; stroke: #2ca02c; stroke-opacity: 0.705882; stroke-width: 2.7"/>
    </g>
    <g id="text_19">
     <!-- H2ONet (CVPR2023): AUC=71.8 -->
     <g transform="translate(214.990828 269.459632) scale(0.14161 -0.14161)">
      <use xlink:href="#DejaVuSans-48"/>
      <use xlink:href="#DejaVuSans-32" x="75.195312"/>
      <use xlink:href="#DejaVuSans-4f" x="138.818359"/>
      <use xlink:href="#DejaVuSans-4e" x="217.529297"/>
      <use xlink:href="#DejaVuSans-65" x="292.333984"/>
      <use xlink:href="#DejaVuSans-74" x="353.857422"/>
      <use xlink:href="#DejaVuSans-20" x="393.066406"/>
      <use xlink:href="#DejaVuSans-28" x="424.853516"/>
      <use xlink:href="#DejaVuSans-43" x="463.867188"/>
      <use xlink:href="#DejaVuSans-56" x="533.691406"/>
      <use xlink:href="#DejaVuSans-50" x="602.099609"/>
      <use xlink:href="#DejaVuSans-52" x="662.402344"/>
      <use xlink:href="#DejaVuSans-32" x="731.884766"/>
      <use xlink:href="#DejaVuSans-30" x="795.507812"/>
      <use xlink:href="#DejaVuSans-32" x="859.130859"/>
      <use xlink:href="#DejaVuSans-33" x="922.753906"/>
      <use xlink:href="#DejaVuSans-29" x="986.376953"/>
      <use xlink:href="#DejaVuSans-3a" x="1025.390625"/>
      <use xlink:href="#DejaVuSans-20" x="1059.082031"/>
      <use xlink:href="#DejaVuSans-41" x="1090.869141"/>
      <use xlink:href="#DejaVuSans-55" x="1159.277344"/>
      <use xlink:href="#DejaVuSans-43" x="1232.470703"/>
      <use xlink:href="#DejaVuSans-3d" x="1302.294922"/>
      <use xlink:href="#DejaVuSans-37" x="1386.083984"/>
      <use xlink:href="#DejaVuSans-31" x="1449.707031"/>
      <use xlink:href="#DejaVuSans-2e" x="1513.330078"/>
      <use xlink:href="#DejaVuSans-38" x="1545.117188"/>
     </g>
    </g>
    <g id="line2d_42">
     <path d="M 175.340028 285.288975 
L 189.501028 285.288975 
L 203.662028 285.288975 
" style="fill: none; stroke-dasharray: 9.99,4.32; stroke-dashoffset: 0; stroke: #b42728; stroke-opacity: 0.705882; stroke-width: 2.7"/>
    </g>
    <g id="text_20">
     <!-- SimpleHand (CVPR2024): AUC=72.4 -->
     <g transform="translate(214.990828 290.245325) scale(0.14161 -0.14161)">
      <defs>
       <path id="DejaVuSans-53" d="M 3425 4513 
L 3425 3897 
Q 3066 4069 2747 4153 
Q 2428 4238 2131 4238 
Q 1616 4238 1336 4038 
Q 1056 3838 1056 3469 
Q 1056 3159 1242 3001 
Q 1428 2844 1947 2747 
L 2328 2669 
Q 3034 2534 3370 2195 
Q 3706 1856 3706 1288 
Q 3706 609 3251 259 
Q 2797 -91 1919 -91 
Q 1588 -91 1214 -16 
Q 841 59 441 206 
L 441 856 
Q 825 641 1194 531 
Q 1563 422 1919 422 
Q 2459 422 2753 634 
Q 3047 847 3047 1241 
Q 3047 1584 2836 1778 
Q 2625 1972 2144 2069 
L 1759 2144 
Q 1053 2284 737 2584 
Q 422 2884 422 3419 
Q 422 4038 858 4394 
Q 1294 4750 2059 4750 
Q 2388 4750 2728 4690 
Q 3069 4631 3425 4513 
z
" transform="scale(0.015625)"/>
       <path id="DejaVuSans-70" d="M 1159 525 
L 1159 -1331 
L 581 -1331 
L 581 3500 
L 1159 3500 
L 1159 2969 
Q 1341 3281 1617 3432 
Q 1894 3584 2278 3584 
Q 2916 3584 3314 3078 
Q 3713 2572 3713 1747 
Q 3713 922 3314 415 
Q 2916 -91 2278 -91 
Q 1894 -91 1617 61 
Q 1341 213 1159 525 
z
M 3116 1747 
Q 3116 2381 2855 2742 
Q 2594 3103 2138 3103 
Q 1681 3103 1420 2742 
Q 1159 2381 1159 1747 
Q 1159 1113 1420 752 
Q 1681 391 2138 391 
Q 2594 391 2855 752 
Q 3116 1113 3116 1747 
z
" transform="scale(0.015625)"/>
      </defs>
      <use xlink:href="#DejaVuSans-53"/>
      <use xlink:href="#DejaVuSans-69" x="63.476562"/>
      <use xlink:href="#DejaVuSans-6d" x="91.259766"/>
      <use xlink:href="#DejaVuSans-70" x="188.671875"/>
      <use xlink:href="#DejaVuSans-6c" x="252.148438"/>
      <use xlink:href="#DejaVuSans-65" x="279.931641"/>
      <use xlink:href="#DejaVuSans-48" x="341.455078"/>
      <use xlink:href="#DejaVuSans-61" x="416.650391"/>
      <use xlink:href="#DejaVuSans-6e" x="477.929688"/>
      <use xlink:href="#DejaVuSans-64" x="541.308594"/>
      <use xlink:href="#DejaVuSans-20" x="604.785156"/>
      <use xlink:href="#DejaVuSans-28" x="636.572266"/>
      <use xlink:href="#DejaVuSans-43" x="675.585938"/>
      <use xlink:href="#DejaVuSans-56" x="745.410156"/>
      <use xlink:href="#DejaVuSans-50" x="813.818359"/>
      <use xlink:href="#DejaVuSans-52" x="874.121094"/>
      <use xlink:href="#DejaVuSans-32" x="943.603516"/>
      <use xlink:href="#DejaVuSans-30" x="1007.226562"/>
      <use xlink:href="#DejaVuSans-32" x="1070.849609"/>
      <use xlink:href="#DejaVuSans-34" x="1134.472656"/>
      <use xlink:href="#DejaVuSans-29" x="1198.095703"/>
      <use xlink:href="#DejaVuSans-3a" x="1237.109375"/>
      <use xlink:href="#DejaVuSans-20" x="1270.800781"/>
      <use xlink:href="#DejaVuSans-41" x="1302.587891"/>
      <use xlink:href="#DejaVuSans-55" x="1370.996094"/>
      <use xlink:href="#DejaVuSans-43" x="1444.189453"/>
      <use xlink:href="#DejaVuSans-3d" x="1514.013672"/>
      <use xlink:href="#DejaVuSans-37" x="1597.802734"/>
      <use xlink:href="#DejaVuSans-32" x="1661.425781"/>
      <use xlink:href="#DejaVuSans-2e" x="1725.048828"/>
      <use xlink:href="#DejaVuSans-34" x="1756.835938"/>
     </g>
    </g>
    <g id="line2d_43">
     <path d="M 175.340028 306.074667 
L 189.501028 306.074667 
L 203.662028 306.074667 
" style="fill: none; stroke-dasharray: 9.99,4.32; stroke-dashoffset: 0; stroke: #9467bd; stroke-opacity: 0.705882; stroke-width: 2.7"/>
    </g>
    <g id="text_21">
     <!-- Liu et al. (CVPR2021): AUC=71.1 -->
     <g transform="translate(214.990828 311.031017) scale(0.14161 -0.14161)">
      <defs>
       <path id="DejaVuSans-4c" d="M 628 4666 
L 1259 4666 
L 1259 531 
L 3531 531 
L 3531 0 
L 628 0 
L 628 4666 
z
" transform="scale(0.015625)"/>
       <path id="DejaVuSans-75" d="M 544 1381 
L 544 3500 
L 1119 3500 
L 1119 1403 
Q 1119 906 1312 657 
Q 1506 409 1894 409 
Q 2359 409 2629 706 
Q 2900 1003 2900 1516 
L 2900 3500 
L 3475 3500 
L 3475 0 
L 2900 0 
L 2900 538 
Q 2691 219 2414 64 
Q 2138 -91 1772 -91 
Q 1169 -91 856 284 
Q 544 659 544 1381 
z
M 1991 3584 
L 1991 3584 
z
" transform="scale(0.015625)"/>
      </defs>
      <use xlink:href="#DejaVuSans-4c"/>
      <use xlink:href="#DejaVuSans-69" x="55.712891"/>
      <use xlink:href="#DejaVuSans-75" x="83.496094"/>
      <use xlink:href="#DejaVuSans-20" x="146.875"/>
      <use xlink:href="#DejaVuSans-65" x="178.662109"/>
      <use xlink:href="#DejaVuSans-74" x="240.185547"/>
      <use xlink:href="#DejaVuSans-20" x="279.394531"/>
      <use xlink:href="#DejaVuSans-61" x="311.181641"/>
      <use xlink:href="#DejaVuSans-6c" x="372.460938"/>
      <use xlink:href="#DejaVuSans-2e" x="400.244141"/>
      <use xlink:href="#DejaVuSans-20" x="432.03125"/>
      <use xlink:href="#DejaVuSans-28" x="463.818359"/>
      <use xlink:href="#DejaVuSans-43" x="502.832031"/>
      <use xlink:href="#DejaVuSans-56" x="572.65625"/>
      <use xlink:href="#DejaVuSans-50" x="641.064453"/>
      <use xlink:href="#DejaVuSans-52" x="701.367188"/>
      <use xlink:href="#DejaVuSans-32" x="770.849609"/>
      <use xlink:href="#DejaVuSans-30" x="834.472656"/>
      <use xlink:href="#DejaVuSans-32" x="898.095703"/>
      <use xlink:href="#DejaVuSans-31" x="961.71875"/>
      <use xlink:href="#DejaVuSans-29" x="1025.341797"/>
      <use xlink:href="#DejaVuSans-3a" x="1064.355469"/>
      <use xlink:href="#DejaVuSans-20" x="1098.046875"/>
      <use xlink:href="#DejaVuSans-41" x="1129.833984"/>
      <use xlink:href="#DejaVuSans-55" x="1198.242188"/>
      <use xlink:href="#DejaVuSans-43" x="1271.435547"/>
      <use xlink:href="#DejaVuSans-3d" x="1341.259766"/>
      <use xlink:href="#DejaVuSans-37" x="1425.048828"/>
      <use xlink:href="#DejaVuSans-31" x="1488.671875"/>
      <use xlink:href="#DejaVuSans-2e" x="1552.294922"/>
      <use xlink:href="#DejaVuSans-31" x="1584.082031"/>
     </g>
    </g>
    <g id="line2d_44">
     <path d="M 175.340028 326.86036 
L 189.501028 326.86036 
L 203.662028 326.86036 
" style="fill: none; stroke-dasharray: 9.99,4.32; stroke-dashoffset: 0; stroke: #8c564b; stroke-opacity: 0.705882; stroke-width: 2.7"/>
    </g>
    <g id="text_22">
     <!-- Keypoint Trans. (CVPR2022): AUC=64.5 -->
     <g transform="translate(214.990828 331.81671) scale(0.14161 -0.14161)">
      <defs>
       <path id="DejaVuSans-79" d="M 2059 -325 
Q 1816 -950 1584 -1140 
Q 1353 -1331 966 -1331 
L 506 -1331 
L 506 -850 
L 844 -850 
Q 1081 -850 1212 -737 
Q 1344 -625 1503 -206 
L 1606 56 
L 191 3500 
L 800 3500 
L 1894 763 
L 2988 3500 
L 3597 3500 
L 2059 -325 
z
" transform="scale(0.015625)"/>
       <path id="DejaVuSans-54" d="M -19 4666 
L 3928 4666 
L 3928 4134 
L 2272 4134 
L 2272 0 
L 1638 0 
L 1638 4134 
L -19 4134 
L -19 4666 
z
" transform="scale(0.015625)"/>
      </defs>
      <use xlink:href="#DejaVuSans-4b"/>
      <use xlink:href="#DejaVuSans-65" x="60.576172"/>
      <use xlink:href="#DejaVuSans-79" x="122.099609"/>
      <use xlink:href="#DejaVuSans-70" x="181.279297"/>
      <use xlink:href="#DejaVuSans-6f" x="244.755859"/>
      <use xlink:href="#DejaVuSans-69" x="305.9375"/>
      <use xlink:href="#DejaVuSans-6e" x="333.720703"/>
      <use xlink:href="#DejaVuSans-74" x="397.099609"/>
      <use xlink:href="#DejaVuSans-20" x="436.308594"/>
      <use xlink:href="#DejaVuSans-54" x="468.095703"/>
      <use xlink:href="#DejaVuSans-72" x="514.429688"/>
      <use xlink:href="#DejaVuSans-61" x="555.542969"/>
      <use xlink:href="#DejaVuSans-6e" x="616.822266"/>
      <use xlink:href="#DejaVuSans-73" x="680.201172"/>
      <use xlink:href="#DejaVuSans-2e" x="732.300781"/>
      <use xlink:href="#DejaVuSans-20" x="764.087891"/>
      <use xlink:href="#DejaVuSans-28" x="795.875"/>
      <use xlink:href="#DejaVuSans-43" x="834.888672"/>
      <use xlink:href="#DejaVuSans-56" x="904.712891"/>
      <use xlink:href="#DejaVuSans-50" x="973.121094"/>
      <use xlink:href="#DejaVuSans-52" x="1033.423828"/>
      <use xlink:href="#DejaVuSans-32" x="1102.90625"/>
      <use xlink:href="#DejaVuSans-30" x="1166.529297"/>
      <use xlink:href="#DejaVuSans-32" x="1230.152344"/>
      <use xlink:href="#DejaVuSans-32" x="1293.775391"/>
      <use xlink:href="#DejaVuSans-29" x="1357.398438"/>
      <use xlink:href="#DejaVuSans-3a" x="1396.412109"/>
      <use xlink:href="#DejaVuSans-20" x="1430.103516"/>
      <use xlink:href="#DejaVuSans-41" x="1461.890625"/>
      <use xlink:href="#DejaVuSans-55" x="1530.298828"/>
      <use xlink:href="#DejaVuSans-43" x="1603.492188"/>
      <use xlink:href="#DejaVuSans-3d" x="1673.316406"/>
      <use xlink:href="#DejaVuSans-36" x="1757.105469"/>
      <use xlink:href="#DejaVuSans-34" x="1820.728516"/>
      <use xlink:href="#DejaVuSans-2e" x="1884.351562"/>
      <use xlink:href="#DejaVuSans-35" x="1916.138672"/>
     </g>
    </g>
    <g id="line2d_45">
     <path d="M 175.340028 347.646053 
L 189.501028 347.646053 
L 203.662028 347.646053 
" style="fill: none; stroke-dasharray: 9.99,4.32; stroke-dashoffset: 0; stroke: #e377c2; stroke-opacity: 0.705882; stroke-width: 2.7"/>
    </g>
    <g id="text_23">
     <!-- HFL-Net (CVPR2023): AUC=72.5 -->
     <g transform="translate(214.990828 352.602403) scale(0.14161 -0.14161)">
      <defs>
       <path id="DejaVuSans-46" d="M 628 4666 
L 3309 4666 
L 3309 4134 
L 1259 4134 
L 1259 2759 
L 3109 2759 
L 3109 2228 
L 1259 2228 
L 1259 0 
L 628 0 
L 628 4666 
z
" transform="scale(0.015625)"/>
       <path id="DejaVuSans-2d" d="M 313 2009 
L 1997 2009 
L 1997 1497 
L 313 1497 
L 313 2009 
z
" transform="scale(0.015625)"/>
      </defs>
      <use xlink:href="#DejaVuSans-48"/>
      <use xlink:href="#DejaVuSans-46" x="75.195312"/>
      <use xlink:href="#DejaVuSans-4c" x="132.714844"/>
      <use xlink:href="#DejaVuSans-2d" x="186.677734"/>
      <use xlink:href="#DejaVuSans-4e" x="222.761719"/>
      <use xlink:href="#DejaVuSans-65" x="297.566406"/>
      <use xlink:href="#DejaVuSans-74" x="359.089844"/>
      <use xlink:href="#DejaVuSans-20" x="398.298828"/>
      <use xlink:href="#DejaVuSans-28" x="430.085938"/>
      <use xlink:href="#DejaVuSans-43" x="469.099609"/>
      <use xlink:href="#DejaVuSans-56" x="538.923828"/>
      <use xlink:href="#DejaVuSans-50" x="607.332031"/>
      <use xlink:href="#DejaVuSans-52" x="667.634766"/>
      <use xlink:href="#DejaVuSans-32" x="737.117188"/>
      <use xlink:href="#DejaVuSans-30" x="800.740234"/>
      <use xlink:href="#DejaVuSans-32" x="864.363281"/>
      <use xlink:href="#DejaVuSans-33" x="927.986328"/>
      <use xlink:href="#DejaVuSans-29" x="991.609375"/>
      <use xlink:href="#DejaVuSans-3a" x="1030.623047"/>
      <use xlink:href="#DejaVuSans-20" x="1064.314453"/>
      <use xlink:href="#DejaVuSans-41" x="1096.101562"/>
      <use xlink:href="#DejaVuSans-55" x="1164.509766"/>
      <use xlink:href="#DejaVuSans-43" x="1237.703125"/>
      <use xlink:href="#DejaVuSans-3d" x="1307.527344"/>
      <use xlink:href="#DejaVuSans-37" x="1391.316406"/>
      <use xlink:href="#DejaVuSans-32" x="1454.939453"/>
      <use xlink:href="#DejaVuSans-2e" x="1518.5625"/>
      <use xlink:href="#DejaVuSans-35" x="1550.349609"/>
     </g>
    </g>
    <g id="line2d_46">
     <path d="M 175.340028 368.431746 
L 189.501028 368.431746 
L 203.662028 368.431746 
" style="fill: none; stroke-dasharray: 9.99,4.32; stroke-dashoffset: 0; stroke: #aec7e8; stroke-opacity: 0.705882; stroke-width: 2.7"/>
    </g>
    <g id="text_24">
     <!-- H2ONet$\dagger$ + HFL-Net$\dagger$: AUC=73.0 -->
     <g transform="translate(214.990828 373.388096) scale(0.14161 -0.14161)">
      <defs>
       <path id="DejaVuSans-2020" d="M 1325 4666 
L 1875 4666 
L 1875 3353 
L 3022 3353 
L 3022 2875 
L 1875 2875 
L 1875 -616 
L 1325 -616 
L 1325 2875 
L 178 2875 
L 178 3353 
L 1325 3353 
L 1325 4666 
z
" transform="scale(0.015625)"/>
       <path id="DejaVuSans-2b" d="M 2944 4013 
L 2944 2272 
L 4684 2272 
L 4684 1741 
L 2944 1741 
L 2944 0 
L 2419 0 
L 2419 1741 
L 678 1741 
L 678 2272 
L 2419 2272 
L 2419 4013 
L 2944 4013 
z
" transform="scale(0.015625)"/>
      </defs>
      <use xlink:href="#DejaVuSans-48" transform="translate(0 0.78125)"/>
      <use xlink:href="#DejaVuSans-32" transform="translate(75.195312 0.78125)"/>
      <use xlink:href="#DejaVuSans-4f" transform="translate(138.818359 0.78125)"/>
      <use xlink:href="#DejaVuSans-4e" transform="translate(217.529297 0.78125)"/>
      <use xlink:href="#DejaVuSans-65" transform="translate(292.333984 0.78125)"/>
      <use xlink:href="#DejaVuSans-74" transform="translate(353.857422 0.78125)"/>
      <use xlink:href="#DejaVuSans-2020" transform="translate(393.066406 0.78125)"/>
      <use xlink:href="#DejaVuSans-20" transform="translate(443.066406 0.78125)"/>
      <use xlink:href="#DejaVuSans-2b" transform="translate(474.853516 0.78125)"/>
      <use xlink:href="#DejaVuSans-20" transform="translate(558.642578 0.78125)"/>
      <use xlink:href="#DejaVuSans-48" transform="translate(590.429688 0.78125)"/>
      <use xlink:href="#DejaVuSans-46" transform="translate(665.625 0.78125)"/>
      <use xlink:href="#DejaVuSans-4c" transform="translate(723.144531 0.78125)"/>
      <use xlink:href="#DejaVuSans-2d" transform="translate(778.857422 0.78125)"/>
      <use xlink:href="#DejaVuSans-4e" transform="translate(814.941406 0.78125)"/>
      <use xlink:href="#DejaVuSans-65" transform="translate(889.746094 0.78125)"/>
      <use xlink:href="#DejaVuSans-74" transform="translate(951.269531 0.78125)"/>
      <use xlink:href="#DejaVuSans-2020" transform="translate(990.478516 0.78125)"/>
      <use xlink:href="#DejaVuSans-3a" transform="translate(1040.478516 0.78125)"/>
      <use xlink:href="#DejaVuSans-20" transform="translate(1074.169922 0.78125)"/>
      <use xlink:href="#DejaVuSans-41" transform="translate(1105.957031 0.78125)"/>
      <use xlink:href="#DejaVuSans-55" transform="translate(1174.365234 0.78125)"/>
      <use xlink:href="#DejaVuSans-43" transform="translate(1247.558594 0.78125)"/>
      <use xlink:href="#DejaVuSans-3d" transform="translate(1317.382812 0.78125)"/>
      <use xlink:href="#DejaVuSans-37" transform="translate(1401.171875 0.78125)"/>
      <use xlink:href="#DejaVuSans-33" transform="translate(1464.794922 0.78125)"/>
      <use xlink:href="#DejaVuSans-2e" transform="translate(1528.417969 0.78125)"/>
      <use xlink:href="#DejaVuSans-30" transform="translate(1560.205078 0.78125)"/>
     </g>
    </g>
    <g id="line2d_47">
     <path d="M 175.340028 389.217439 
L 189.501028 389.217439 
L 203.662028 389.217439 
" style="fill: none; stroke-dasharray: 9.99,4.32; stroke-dashoffset: 0; stroke: #bcbd22; stroke-opacity: 0.705882; stroke-width: 2.7"/>
    </g>
    <g id="text_25">
     <!-- H2ONet$$ + HFL-Net$$: AUC=72.2 -->
     <g transform="translate(214.990828 394.173789) scale(0.14161 -0.14161)">
      <defs>
       <path id="DejaVuSans-2021" d="M 3022 697 
L 1875 697 
L 1875 -616 
L 1325 -616 
L 1325 697 
L 178 697 
L 178 1178 
L 1325 1178 
L 1325 2875 
L 178 2875 
L 178 3353 
L 1325 3353 
L 1325 4666 
L 1875 4666 
L 1875 3353 
L 3022 3353 
L 3022 2875 
L 1875 2875 
L 1875 1178 
L 3022 1178 
L 3022 697 
z
" transform="scale(0.015625)"/>
      </defs>
      <use xlink:href="#DejaVuSans-48" transform="translate(0 0.78125)"/>
      <use xlink:href="#DejaVuSans-32" transform="translate(75.195312 0.78125)"/>
      <use xlink:href="#DejaVuSans-4f" transform="translate(138.818359 0.78125)"/>
      <use xlink:href="#DejaVuSans-4e" transform="translate(217.529297 0.78125)"/>
      <use xlink:href="#DejaVuSans-65" transform="translate(292.333984 0.78125)"/>
      <use xlink:href="#DejaVuSans-74" transform="translate(353.857422 0.78125)"/>
      <use xlink:href="#DejaVuSans-2021" transform="translate(393.066406 0.78125)"/>
      <use xlink:href="#DejaVuSans-20" transform="translate(443.066406 0.78125)"/>
      <use xlink:href="#DejaVuSans-2b" transform="translate(474.853516 0.78125)"/>
      <use xlink:href="#DejaVuSans-20" transform="translate(558.642578 0.78125)"/>
      <use xlink:href="#DejaVuSans-48" transform="translate(590.429688 0.78125)"/>
      <use xlink:href="#DejaVuSans-46" transform="translate(665.625 0.78125)"/>
      <use xlink:href="#DejaVuSans-4c" transform="translate(723.144531 0.78125)"/>
      <use xlink:href="#DejaVuSans-2d" transform="translate(778.857422 0.78125)"/>
      <use xlink:href="#DejaVuSans-4e" transform="translate(814.941406 0.78125)"/>
      <use xlink:href="#DejaVuSans-65" transform="translate(889.746094 0.78125)"/>
      <use xlink:href="#DejaVuSans-74" transform="translate(951.269531 0.78125)"/>
      <use xlink:href="#DejaVuSans-2021" transform="translate(990.478516 0.78125)"/>
      <use xlink:href="#DejaVuSans-3a" transform="translate(1040.478516 0.78125)"/>
      <use xlink:href="#DejaVuSans-20" transform="translate(1074.169922 0.78125)"/>
      <use xlink:href="#DejaVuSans-41" transform="translate(1105.957031 0.78125)"/>
      <use xlink:href="#DejaVuSans-55" transform="translate(1174.365234 0.78125)"/>
      <use xlink:href="#DejaVuSans-43" transform="translate(1247.558594 0.78125)"/>
      <use xlink:href="#DejaVuSans-3d" transform="translate(1317.382812 0.78125)"/>
      <use xlink:href="#DejaVuSans-37" transform="translate(1401.171875 0.78125)"/>
      <use xlink:href="#DejaVuSans-32" transform="translate(1464.794922 0.78125)"/>
      <use xlink:href="#DejaVuSans-2e" transform="translate(1528.417969 0.78125)"/>
      <use xlink:href="#DejaVuSans-32" transform="translate(1554.705078 0.78125)"/>
     </g>
    </g>
    <g id="line2d_48">
     <path d="M 175.340028 410.003131 
L 189.501028 410.003131 
L 203.662028 410.003131 
" style="fill: none; stroke-dasharray: 9.99,4.32; stroke-dashoffset: 0; stroke: #17becf; stroke-opacity: 0.705882; stroke-width: 2.7"/>
    </g>
    <g id="text_26">
     <!-- HandOccNet$\dagger$ + HFL-Net$\dagger$: AUC=72.4 -->
     <g transform="translate(214.990828 414.959481) scale(0.14161 -0.14161)">
      <use xlink:href="#DejaVuSans-48" transform="translate(0 0.015625)"/>
      <use xlink:href="#DejaVuSans-61" transform="translate(75.195312 0.015625)"/>
      <use xlink:href="#DejaVuSans-6e" transform="translate(136.474609 0.015625)"/>
      <use xlink:href="#DejaVuSans-64" transform="translate(199.853516 0.015625)"/>
      <use xlink:href="#DejaVuSans-4f" transform="translate(263.330078 0.015625)"/>
      <use xlink:href="#DejaVuSans-63" transform="translate(342.041016 0.015625)"/>
      <use xlink:href="#DejaVuSans-63" transform="translate(397.021484 0.015625)"/>
      <use xlink:href="#DejaVuSans-4e" transform="translate(452.001953 0.015625)"/>
      <use xlink:href="#DejaVuSans-65" transform="translate(526.806641 0.015625)"/>
      <use xlink:href="#DejaVuSans-74" transform="translate(588.330078 0.015625)"/>
      <use xlink:href="#DejaVuSans-2020" transform="translate(627.539062 0.015625)"/>
      <use xlink:href="#DejaVuSans-20" transform="translate(677.539062 0.015625)"/>
      <use xlink:href="#DejaVuSans-2b" transform="translate(709.326172 0.015625)"/>
      <use xlink:href="#DejaVuSans-20" transform="translate(793.115234 0.015625)"/>
      <use xlink:href="#DejaVuSans-48" transform="translate(824.902344 0.015625)"/>
      <use xlink:href="#DejaVuSans-46" transform="translate(900.097656 0.015625)"/>
      <use xlink:href="#DejaVuSans-4c" transform="translate(957.617188 0.015625)"/>
      <use xlink:href="#DejaVuSans-2d" transform="translate(1013.330078 0.015625)"/>
      <use xlink:href="#DejaVuSans-4e" transform="translate(1049.414062 0.015625)"/>
      <use xlink:href="#DejaVuSans-65" transform="translate(1124.21875 0.015625)"/>
      <use xlink:href="#DejaVuSans-74" transform="translate(1185.742188 0.015625)"/>
      <use xlink:href="#DejaVuSans-2020" transform="translate(1224.951172 0.015625)"/>
      <use xlink:href="#DejaVuSans-3a" transform="translate(1274.951172 0.015625)"/>
      <use xlink:href="#DejaVuSans-20" transform="translate(1308.642578 0.015625)"/>
      <use xlink:href="#DejaVuSans-41" transform="translate(1340.429688 0.015625)"/>
      <use xlink:href="#DejaVuSans-55" transform="translate(1408.837891 0.015625)"/>
      <use xlink:href="#DejaVuSans-43" transform="translate(1482.03125 0.015625)"/>
      <use xlink:href="#DejaVuSans-3d" transform="translate(1551.855469 0.015625)"/>
      <use xlink:href="#DejaVuSans-37" transform="translate(1635.644531 0.015625)"/>
      <use xlink:href="#DejaVuSans-32" transform="translate(1699.267578 0.015625)"/>
      <use xlink:href="#DejaVuSans-2e" transform="translate(1762.890625 0.015625)"/>
      <use xlink:href="#DejaVuSans-34" transform="translate(1794.677734 0.015625)"/>
     </g>
    </g>
    <g id="line2d_49">
     <path d="M 175.340028 430.788824 
L 189.501028 430.788824 
L 203.662028 430.788824 
" style="fill: none; stroke-dasharray: 9.99,4.32; stroke-dashoffset: 0; stroke: #ffbb78; stroke-opacity: 0.705882; stroke-width: 2.7"/>
    </g>
    <g id="text_27">
     <!-- HandOccNet$$ + HFL-Net$$: AUC=72.0 -->
     <g transform="translate(214.990828 435.745174) scale(0.14161 -0.14161)">
      <use xlink:href="#DejaVuSans-48" transform="translate(0 0.015625)"/>
      <use xlink:href="#DejaVuSans-61" transform="translate(75.195312 0.015625)"/>
      <use xlink:href="#DejaVuSans-6e" transform="translate(136.474609 0.015625)"/>
      <use xlink:href="#DejaVuSans-64" transform="translate(199.853516 0.015625)"/>
      <use xlink:href="#DejaVuSans-4f" transform="translate(263.330078 0.015625)"/>
      <use xlink:href="#DejaVuSans-63" transform="translate(342.041016 0.015625)"/>
      <use xlink:href="#DejaVuSans-63" transform="translate(397.021484 0.015625)"/>
      <use xlink:href="#DejaVuSans-4e" transform="translate(452.001953 0.015625)"/>
      <use xlink:href="#DejaVuSans-65" transform="translate(526.806641 0.015625)"/>
      <use xlink:href="#DejaVuSans-74" transform="translate(588.330078 0.015625)"/>
      <use xlink:href="#DejaVuSans-2021" transform="translate(627.539062 0.015625)"/>
      <use xlink:href="#DejaVuSans-20" transform="translate(677.539062 0.015625)"/>
      <use xlink:href="#DejaVuSans-2b" transform="translate(709.326172 0.015625)"/>
      <use xlink:href="#DejaVuSans-20" transform="translate(793.115234 0.015625)"/>
      <use xlink:href="#DejaVuSans-48" transform="translate(824.902344 0.015625)"/>
      <use xlink:href="#DejaVuSans-46" transform="translate(900.097656 0.015625)"/>
      <use xlink:href="#DejaVuSans-4c" transform="translate(957.617188 0.015625)"/>
      <use xlink:href="#DejaVuSans-2d" transform="translate(1013.330078 0.015625)"/>
      <use xlink:href="#DejaVuSans-4e" transform="translate(1049.414062 0.015625)"/>
      <use xlink:href="#DejaVuSans-65" transform="translate(1124.21875 0.015625)"/>
      <use xlink:href="#DejaVuSans-74" transform="translate(1185.742188 0.015625)"/>
      <use xlink:href="#DejaVuSans-2021" transform="translate(1224.951172 0.015625)"/>
      <use xlink:href="#DejaVuSans-3a" transform="translate(1274.951172 0.015625)"/>
      <use xlink:href="#DejaVuSans-20" transform="translate(1308.642578 0.015625)"/>
      <use xlink:href="#DejaVuSans-41" transform="translate(1340.429688 0.015625)"/>
      <use xlink:href="#DejaVuSans-55" transform="translate(1408.837891 0.015625)"/>
      <use xlink:href="#DejaVuSans-43" transform="translate(1482.03125 0.015625)"/>
      <use xlink:href="#DejaVuSans-3d" transform="translate(1551.855469 0.015625)"/>
      <use xlink:href="#DejaVuSans-37" transform="translate(1635.644531 0.015625)"/>
      <use xlink:href="#DejaVuSans-32" transform="translate(1699.267578 0.015625)"/>
      <use xlink:href="#DejaVuSans-2e" transform="translate(1762.890625 0.015625)"/>
      <use xlink:href="#DejaVuSans-30" transform="translate(1794.677734 0.015625)"/>
     </g>
    </g>
    <g id="line2d_50">
     <path d="M 175.340028 451.574517 
L 189.501028 451.574517 
L 203.662028 451.574517 
" style="fill: none; stroke-dasharray: 9.99,4.32; stroke-dashoffset: 0; stroke: #ff0000; stroke-opacity: 0.705882; stroke-width: 2.7"/>
    </g>
    <g id="text_28">
     <!-- Ours: AUC=74.9 -->
     <g transform="translate(214.990828 456.530867) scale(0.14161 -0.14161)">
      <use xlink:href="#DejaVuSans-4f"/>
      <use xlink:href="#DejaVuSans-75" x="78.710938"/>
      <use xlink:href="#DejaVuSans-72" x="142.089844"/>
      <use xlink:href="#DejaVuSans-73" x="183.203125"/>
      <use xlink:href="#DejaVuSans-3a" x="235.302734"/>
      <use xlink:href="#DejaVuSans-20" x="268.994141"/>
      <use xlink:href="#DejaVuSans-41" x="300.78125"/>
      <use xlink:href="#DejaVuSans-55" x="369.189453"/>
      <use xlink:href="#DejaVuSans-43" x="442.382812"/>
      <use xlink:href="#DejaVuSans-3d" x="512.207031"/>
      <use xlink:href="#DejaVuSans-37" x="595.996094"/>
      <use xlink:href="#DejaVuSans-34" x="659.619141"/>
      <use xlink:href="#DejaVuSans-2e" x="723.242188"/>
      <use xlink:href="#DejaVuSans-39" x="755.029297"/>
     </g>
    </g>
   </g>
  </g>
 </g>
 <defs>
  <clipPath id="p6119483c3f">
   <rect x="61.688125" y="28.700812" width="446.4" height="443.52"/>
  </clipPath>
 </defs>
</svg>
