<?xml version="1.0" encoding="utf-8" standalone="no"?>
<!DOCTYPE svg PUBLIC "-//W3C//DTD SVG 1.1//EN"
  "http://www.w3.org/Graphics/SVG/1.1/DTD/svg11.dtd">
<svg xmlns:xlink="http://www.w3.org/1999/xlink" width="526.104375pt" height="523.326437pt" viewBox="0 0 526.104375 523.326437" xmlns="http://www.w3.org/2000/svg" version="1.1">
 <metadata>
  <rdf:RDF xmlns:dc="http://purl.org/dc/elements/1.1/" xmlns:cc="http://creativecommons.org/ns#" xmlns:rdf="http://www.w3.org/1999/02/22-rdf-syntax-ns#">
   <cc:Work>
    <dc:type rdf:resource="http://purl.org/dc/dcmitype/StillImage"/>
    <dc:date>2024-11-07T11:58:14.654192</dc:date>
    <dc:format>image/svg+xml</dc:format>
    <dc:creator>
     <cc:Agent>
      <dc:title>Matplotlib v3.7.0, https://matplotlib.org/</dc:title>
     </cc:Agent>
    </dc:creator>
   </cc:Work>
  </rdf:RDF>
 </metadata>
 <defs>
  <style type="text/css">*{stroke-linejoin: round; stroke-linecap: butt}</style>
 </defs>
 <g id="figure_1">
  <g id="patch_1">
   <path d="M 0 523.326437 
L 526.104375 523.326437 
L 526.104375 0 
L 0 0 
z
" style="fill: #ffffff"/>
  </g>
  <g id="axes_1">
   <g id="patch_2">
    <path d="M 61.688125 472.220812 
L 508.088125 472.220812 
L 508.088125 28.700812 
L 61.688125 28.700812 
z
" style="fill: #ffffff"/>
   </g>
   <g id="matplotlib.axis_1">
    <g id="xtick_1">
     <g id="line2d_1">
      <path d="M 61.688125 472.220812 
L 61.688125 28.700812 
" clip-path="url(#pfb7dcdc37d)" style="fill: none; stroke: #b0b0b0; stroke-width: 0.8; stroke-linecap: square"/>
     </g>
     <g id="line2d_2">
      <defs>
       <path id="m217c34d8ac" d="M 0 0 
L 0 3.5 
" style="stroke: #000000; stroke-width: 0.8"/>
      </defs>
      <g>
       <use xlink:href="#m217c34d8ac" x="61.688125" y="472.220812" style="stroke: #000000; stroke-width: 0.8"/>
      </g>
     </g>
     <g id="text_1">
      <!-- 10 -->
      <g transform="translate(50.871875 492.138156) scale(0.17 -0.17)">
       <defs>
        <path id="DejaVuSans-31" d="M 794 531 
L 1825 531 
L 1825 4091 
L 703 3866 
L 703 4441 
L 1819 4666 
L 2450 4666 
L 2450 531 
L 3481 531 
L 3481 0 
L 794 0 
L 794 531 
z
" transform="scale(0.015625)"/>
        <path id="DejaVuSans-30" d="M 2034 4250 
Q 1547 4250 1301 3770 
Q 1056 3291 1056 2328 
Q 1056 1369 1301 889 
Q 1547 409 2034 409 
Q 2525 409 2770 889 
Q 3016 1369 3016 2328 
Q 3016 3291 2770 3770 
Q 2525 4250 2034 4250 
z
M 2034 4750 
Q 2819 4750 3233 4129 
Q 3647 3509 3647 2328 
Q 3647 1150 3233 529 
Q 2819 -91 2034 -91 
Q 1250 -91 836 529 
Q 422 1150 422 2328 
Q 422 3509 836 4129 
Q 1250 4750 2034 4750 
z
" transform="scale(0.015625)"/>
       </defs>
       <use xlink:href="#DejaVuSans-31"/>
       <use xlink:href="#DejaVuSans-30" x="63.623047"/>
      </g>
     </g>
    </g>
    <g id="xtick_2">
     <g id="line2d_3">
      <path d="M 173.288125 472.220812 
L 173.288125 28.700812 
" clip-path="url(#pfb7dcdc37d)" style="fill: none; stroke: #b0b0b0; stroke-width: 0.8; stroke-linecap: square"/>
     </g>
     <g id="line2d_4">
      <g>
       <use xlink:href="#m217c34d8ac" x="173.288125" y="472.220812" style="stroke: #000000; stroke-width: 0.8"/>
      </g>
     </g>
     <g id="text_2">
      <!-- 20 -->
      <g transform="translate(162.471875 492.138156) scale(0.17 -0.17)">
       <defs>
        <path id="DejaVuSans-32" d="M 1228 531 
L 3431 531 
L 3431 0 
L 469 0 
L 469 531 
Q 828 903 1448 1529 
Q 2069 2156 2228 2338 
Q 2531 2678 2651 2914 
Q 2772 3150 2772 3378 
Q 2772 3750 2511 3984 
Q 2250 4219 1831 4219 
Q 1534 4219 1204 4116 
Q 875 4013 500 3803 
L 500 4441 
Q 881 4594 1212 4672 
Q 1544 4750 1819 4750 
Q 2544 4750 2975 4387 
Q 3406 4025 3406 3419 
Q 3406 3131 3298 2873 
Q 3191 2616 2906 2266 
Q 2828 2175 2409 1742 
Q 1991 1309 1228 531 
z
" transform="scale(0.015625)"/>
       </defs>
       <use xlink:href="#DejaVuSans-32"/>
       <use xlink:href="#DejaVuSans-30" x="63.623047"/>
      </g>
     </g>
    </g>
    <g id="xtick_3">
     <g id="line2d_5">
      <path d="M 284.888125 472.220812 
L 284.888125 28.700812 
" clip-path="url(#pfb7dcdc37d)" style="fill: none; stroke: #b0b0b0; stroke-width: 0.8; stroke-linecap: square"/>
     </g>
     <g id="line2d_6">
      <g>
       <use xlink:href="#m217c34d8ac" x="284.888125" y="472.220812" style="stroke: #000000; stroke-width: 0.8"/>
      </g>
     </g>
     <g id="text_3">
      <!-- 30 -->
      <g transform="translate(274.071875 492.138156) scale(0.17 -0.17)">
       <defs>
        <path id="DejaVuSans-33" d="M 2597 2516 
Q 3050 2419 3304 2112 
Q 3559 1806 3559 1356 
Q 3559 666 3084 287 
Q 2609 -91 1734 -91 
Q 1441 -91 1130 -33 
Q 819 25 488 141 
L 488 750 
Q 750 597 1062 519 
Q 1375 441 1716 441 
Q 2309 441 2620 675 
Q 2931 909 2931 1356 
Q 2931 1769 2642 2001 
Q 2353 2234 1838 2234 
L 1294 2234 
L 1294 2753 
L 1863 2753 
Q 2328 2753 2575 2939 
Q 2822 3125 2822 3475 
Q 2822 3834 2567 4026 
Q 2313 4219 1838 4219 
Q 1578 4219 1281 4162 
Q 984 4106 628 3988 
L 628 4550 
Q 988 4650 1302 4700 
Q 1616 4750 1894 4750 
Q 2613 4750 3031 4423 
Q 3450 4097 3450 3541 
Q 3450 3153 3228 2886 
Q 3006 2619 2597 2516 
z
" transform="scale(0.015625)"/>
       </defs>
       <use xlink:href="#DejaVuSans-33"/>
       <use xlink:href="#DejaVuSans-30" x="63.623047"/>
      </g>
     </g>
    </g>
    <g id="xtick_4">
     <g id="line2d_7">
      <path d="M 396.488125 472.220812 
L 396.488125 28.700812 
" clip-path="url(#pfb7dcdc37d)" style="fill: none; stroke: #b0b0b0; stroke-width: 0.8; stroke-linecap: square"/>
     </g>
     <g id="line2d_8">
      <g>
       <use xlink:href="#m217c34d8ac" x="396.488125" y="472.220812" style="stroke: #000000; stroke-width: 0.8"/>
      </g>
     </g>
     <g id="text_4">
      <!-- 40 -->
      <g transform="translate(385.671875 492.138156) scale(0.17 -0.17)">
       <defs>
        <path id="DejaVuSans-34" d="M 2419 4116 
L 825 1625 
L 2419 1625 
L 2419 4116 
z
M 2253 4666 
L 3047 4666 
L 3047 1625 
L 3713 1625 
L 3713 1100 
L 3047 1100 
L 3047 0 
L 2419 0 
L 2419 1100 
L 313 1100 
L 313 1709 
L 2253 4666 
z
" transform="scale(0.015625)"/>
       </defs>
       <use xlink:href="#DejaVuSans-34"/>
       <use xlink:href="#DejaVuSans-30" x="63.623047"/>
      </g>
     </g>
    </g>
    <g id="xtick_5">
     <g id="line2d_9">
      <path d="M 508.088125 472.220812 
L 508.088125 28.700812 
" clip-path="url(#pfb7dcdc37d)" style="fill: none; stroke: #b0b0b0; stroke-width: 0.8; stroke-linecap: square"/>
     </g>
     <g id="line2d_10">
      <g>
       <use xlink:href="#m217c34d8ac" x="508.088125" y="472.220812" style="stroke: #000000; stroke-width: 0.8"/>
      </g>
     </g>
     <g id="text_5">
      <!-- 50 -->
      <g transform="translate(497.271875 492.138156) scale(0.17 -0.17)">
       <defs>
        <path id="DejaVuSans-35" d="M 691 4666 
L 3169 4666 
L 3169 4134 
L 1269 4134 
L 1269 2991 
Q 1406 3038 1543 3061 
Q 1681 3084 1819 3084 
Q 2600 3084 3056 2656 
Q 3513 2228 3513 1497 
Q 3513 744 3044 326 
Q 2575 -91 1722 -91 
Q 1428 -91 1123 -41 
Q 819 9 494 109 
L 494 744 
Q 775 591 1075 516 
Q 1375 441 1709 441 
Q 2250 441 2565 725 
Q 2881 1009 2881 1497 
Q 2881 1984 2565 2268 
Q 2250 2553 1709 2553 
Q 1456 2553 1204 2497 
Q 953 2441 691 2322 
L 691 4666 
z
" transform="scale(0.015625)"/>
       </defs>
       <use xlink:href="#DejaVuSans-35"/>
       <use xlink:href="#DejaVuSans-30" x="63.623047"/>
      </g>
     </g>
    </g>
    <g id="text_6">
     <!-- Error thresholds (mm) -->
     <g transform="translate(191.125156 512.590969) scale(0.17 -0.17)">
      <defs>
       <path id="DejaVuSans-45" d="M 628 4666 
L 3578 4666 
L 3578 4134 
L 1259 4134 
L 1259 2753 
L 3481 2753 
L 3481 2222 
L 1259 2222 
L 1259 531 
L 3634 531 
L 3634 0 
L 628 0 
L 628 4666 
z
" transform="scale(0.015625)"/>
       <path id="DejaVuSans-72" d="M 2631 2963 
Q 2534 3019 2420 3045 
Q 2306 3072 2169 3072 
Q 1681 3072 1420 2755 
Q 1159 2438 1159 1844 
L 1159 0 
L 581 0 
L 581 3500 
L 1159 3500 
L 1159 2956 
Q 1341 3275 1631 3429 
Q 1922 3584 2338 3584 
Q 2397 3584 2469 3576 
Q 2541 3569 2628 3553 
L 2631 2963 
z
" transform="scale(0.015625)"/>
       <path id="DejaVuSans-6f" d="M 1959 3097 
Q 1497 3097 1228 2736 
Q 959 2375 959 1747 
Q 959 1119 1226 758 
Q 1494 397 1959 397 
Q 2419 397 2687 759 
Q 2956 1122 2956 1747 
Q 2956 2369 2687 2733 
Q 2419 3097 1959 3097 
z
M 1959 3584 
Q 2709 3584 3137 3096 
Q 3566 2609 3566 1747 
Q 3566 888 3137 398 
Q 2709 -91 1959 -91 
Q 1206 -91 779 398 
Q 353 888 353 1747 
Q 353 2609 779 3096 
Q 1206 3584 1959 3584 
z
" transform="scale(0.015625)"/>
       <path id="DejaVuSans-20" transform="scale(0.015625)"/>
       <path id="DejaVuSans-74" d="M 1172 4494 
L 1172 3500 
L 2356 3500 
L 2356 3053 
L 1172 3053 
L 1172 1153 
Q 1172 725 1289 603 
Q 1406 481 1766 481 
L 2356 481 
L 2356 0 
L 1766 0 
Q 1100 0 847 248 
Q 594 497 594 1153 
L 594 3053 
L 172 3053 
L 172 3500 
L 594 3500 
L 594 4494 
L 1172 4494 
z
" transform="scale(0.015625)"/>
       <path id="DejaVuSans-68" d="M 3513 2113 
L 3513 0 
L 2938 0 
L 2938 2094 
Q 2938 2591 2744 2837 
Q 2550 3084 2163 3084 
Q 1697 3084 1428 2787 
Q 1159 2491 1159 1978 
L 1159 0 
L 581 0 
L 581 4863 
L 1159 4863 
L 1159 2956 
Q 1366 3272 1645 3428 
Q 1925 3584 2291 3584 
Q 2894 3584 3203 3211 
Q 3513 2838 3513 2113 
z
" transform="scale(0.015625)"/>
       <path id="DejaVuSans-65" d="M 3597 1894 
L 3597 1613 
L 953 1613 
Q 991 1019 1311 708 
Q 1631 397 2203 397 
Q 2534 397 2845 478 
Q 3156 559 3463 722 
L 3463 178 
Q 3153 47 2828 -22 
Q 2503 -91 2169 -91 
Q 1331 -91 842 396 
Q 353 884 353 1716 
Q 353 2575 817 3079 
Q 1281 3584 2069 3584 
Q 2775 3584 3186 3129 
Q 3597 2675 3597 1894 
z
M 3022 2063 
Q 3016 2534 2758 2815 
Q 2500 3097 2075 3097 
Q 1594 3097 1305 2825 
Q 1016 2553 972 2059 
L 3022 2063 
z
" transform="scale(0.015625)"/>
       <path id="DejaVuSans-73" d="M 2834 3397 
L 2834 2853 
Q 2591 2978 2328 3040 
Q 2066 3103 1784 3103 
Q 1356 3103 1142 2972 
Q 928 2841 928 2578 
Q 928 2378 1081 2264 
Q 1234 2150 1697 2047 
L 1894 2003 
Q 2506 1872 2764 1633 
Q 3022 1394 3022 966 
Q 3022 478 2636 193 
Q 2250 -91 1575 -91 
Q 1294 -91 989 -36 
Q 684 19 347 128 
L 347 722 
Q 666 556 975 473 
Q 1284 391 1588 391 
Q 1994 391 2212 530 
Q 2431 669 2431 922 
Q 2431 1156 2273 1281 
Q 2116 1406 1581 1522 
L 1381 1569 
Q 847 1681 609 1914 
Q 372 2147 372 2553 
Q 372 3047 722 3315 
Q 1072 3584 1716 3584 
Q 2034 3584 2315 3537 
Q 2597 3491 2834 3397 
z
" transform="scale(0.015625)"/>
       <path id="DejaVuSans-6c" d="M 603 4863 
L 1178 4863 
L 1178 0 
L 603 0 
L 603 4863 
z
" transform="scale(0.015625)"/>
       <path id="DejaVuSans-64" d="M 2906 2969 
L 2906 4863 
L 3481 4863 
L 3481 0 
L 2906 0 
L 2906 525 
Q 2725 213 2448 61 
Q 2172 -91 1784 -91 
Q 1150 -91 751 415 
Q 353 922 353 1747 
Q 353 2572 751 3078 
Q 1150 3584 1784 3584 
Q 2172 3584 2448 3432 
Q 2725 3281 2906 2969 
z
M 947 1747 
Q 947 1113 1208 752 
Q 1469 391 1925 391 
Q 2381 391 2643 752 
Q 2906 1113 2906 1747 
Q 2906 2381 2643 2742 
Q 2381 3103 1925 3103 
Q 1469 3103 1208 2742 
Q 947 2381 947 1747 
z
" transform="scale(0.015625)"/>
       <path id="DejaVuSans-28" d="M 1984 4856 
Q 1566 4138 1362 3434 
Q 1159 2731 1159 2009 
Q 1159 1288 1364 580 
Q 1569 -128 1984 -844 
L 1484 -844 
Q 1016 -109 783 600 
Q 550 1309 550 2009 
Q 550 2706 781 3412 
Q 1013 4119 1484 4856 
L 1984 4856 
z
" transform="scale(0.015625)"/>
       <path id="DejaVuSans-6d" d="M 3328 2828 
Q 3544 3216 3844 3400 
Q 4144 3584 4550 3584 
Q 5097 3584 5394 3201 
Q 5691 2819 5691 2113 
L 5691 0 
L 5113 0 
L 5113 2094 
Q 5113 2597 4934 2840 
Q 4756 3084 4391 3084 
Q 3944 3084 3684 2787 
Q 3425 2491 3425 1978 
L 3425 0 
L 2847 0 
L 2847 2094 
Q 2847 2600 2669 2842 
Q 2491 3084 2119 3084 
Q 1678 3084 1418 2786 
Q 1159 2488 1159 1978 
L 1159 0 
L 581 0 
L 581 3500 
L 1159 3500 
L 1159 2956 
Q 1356 3278 1631 3431 
Q 1906 3584 2284 3584 
Q 2666 3584 2933 3390 
Q 3200 3197 3328 2828 
z
" transform="scale(0.015625)"/>
       <path id="DejaVuSans-29" d="M 513 4856 
L 1013 4856 
Q 1481 4119 1714 3412 
Q 1947 2706 1947 2009 
Q 1947 1309 1714 600 
Q 1481 -109 1013 -844 
L 513 -844 
Q 928 -128 1133 580 
Q 1338 1288 1338 2009 
Q 1338 2731 1133 3434 
Q 928 4138 513 4856 
z
" transform="scale(0.015625)"/>
      </defs>
      <use xlink:href="#DejaVuSans-45"/>
      <use xlink:href="#DejaVuSans-72" x="63.183594"/>
      <use xlink:href="#DejaVuSans-72" x="102.546875"/>
      <use xlink:href="#DejaVuSans-6f" x="141.410156"/>
      <use xlink:href="#DejaVuSans-72" x="202.591797"/>
      <use xlink:href="#DejaVuSans-20" x="243.705078"/>
      <use xlink:href="#DejaVuSans-74" x="275.492188"/>
      <use xlink:href="#DejaVuSans-68" x="314.701172"/>
      <use xlink:href="#DejaVuSans-72" x="378.080078"/>
      <use xlink:href="#DejaVuSans-65" x="416.943359"/>
      <use xlink:href="#DejaVuSans-73" x="478.466797"/>
      <use xlink:href="#DejaVuSans-68" x="530.566406"/>
      <use xlink:href="#DejaVuSans-6f" x="593.945312"/>
      <use xlink:href="#DejaVuSans-6c" x="655.126953"/>
      <use xlink:href="#DejaVuSans-64" x="682.910156"/>
      <use xlink:href="#DejaVuSans-73" x="746.386719"/>
      <use xlink:href="#DejaVuSans-20" x="798.486328"/>
      <use xlink:href="#DejaVuSans-28" x="830.273438"/>
      <use xlink:href="#DejaVuSans-6d" x="869.287109"/>
      <use xlink:href="#DejaVuSans-6d" x="966.699219"/>
      <use xlink:href="#DejaVuSans-29" x="1064.111328"/>
     </g>
    </g>
   </g>
   <g id="matplotlib.axis_2">
    <g id="ytick_1">
     <g id="line2d_11">
      <path d="M 61.688125 472.220813 
L 508.088125 472.220813 
" clip-path="url(#pfb7dcdc37d)" style="fill: none; stroke: #b0b0b0; stroke-width: 0.8; stroke-linecap: square"/>
     </g>
     <g id="line2d_12">
      <defs>
       <path id="mfee9521bc6" d="M 0 0 
L -3.5 0 
" style="stroke: #000000; stroke-width: 0.8"/>
      </defs>
      <g>
       <use xlink:href="#mfee9521bc6" x="61.688125" y="472.220813" style="stroke: #000000; stroke-width: 0.8"/>
      </g>
     </g>
     <g id="text_7">
      <!-- 0.1 -->
      <g transform="translate(27.652813 478.679484) scale(0.17 -0.17)">
       <defs>
        <path id="DejaVuSans-2e" d="M 684 794 
L 1344 794 
L 1344 0 
L 684 0 
L 684 794 
z
" transform="scale(0.015625)"/>
       </defs>
       <use xlink:href="#DejaVuSans-30"/>
       <use xlink:href="#DejaVuSans-2e" x="63.623047"/>
       <use xlink:href="#DejaVuSans-31" x="95.410156"/>
      </g>
     </g>
    </g>
    <g id="ytick_2">
     <g id="line2d_13">
      <path d="M 61.688125 420.041989 
L 508.088125 420.041989 
" clip-path="url(#pfb7dcdc37d)" style="fill: none; stroke: #b0b0b0; stroke-width: 0.8; stroke-linecap: square"/>
     </g>
     <g id="line2d_14">
      <g>
       <use xlink:href="#mfee9521bc6" x="61.688125" y="420.041989" style="stroke: #000000; stroke-width: 0.8"/>
      </g>
     </g>
     <g id="text_8">
      <!-- 0.2 -->
      <g transform="translate(27.652813 426.500661) scale(0.17 -0.17)">
       <use xlink:href="#DejaVuSans-30"/>
       <use xlink:href="#DejaVuSans-2e" x="63.623047"/>
       <use xlink:href="#DejaVuSans-32" x="95.410156"/>
      </g>
     </g>
    </g>
    <g id="ytick_3">
     <g id="line2d_15">
      <path d="M 61.688125 367.863165 
L 508.088125 367.863165 
" clip-path="url(#pfb7dcdc37d)" style="fill: none; stroke: #b0b0b0; stroke-width: 0.8; stroke-linecap: square"/>
     </g>
     <g id="line2d_16">
      <g>
       <use xlink:href="#mfee9521bc6" x="61.688125" y="367.863165" style="stroke: #000000; stroke-width: 0.8"/>
      </g>
     </g>
     <g id="text_9">
      <!-- 0.3 -->
      <g transform="translate(27.652813 374.321837) scale(0.17 -0.17)">
       <use xlink:href="#DejaVuSans-30"/>
       <use xlink:href="#DejaVuSans-2e" x="63.623047"/>
       <use xlink:href="#DejaVuSans-33" x="95.410156"/>
      </g>
     </g>
    </g>
    <g id="ytick_4">
     <g id="line2d_17">
      <path d="M 61.688125 315.684342 
L 508.088125 315.684342 
" clip-path="url(#pfb7dcdc37d)" style="fill: none; stroke: #b0b0b0; stroke-width: 0.8; stroke-linecap: square"/>
     </g>
     <g id="line2d_18">
      <g>
       <use xlink:href="#mfee9521bc6" x="61.688125" y="315.684342" style="stroke: #000000; stroke-width: 0.8"/>
      </g>
     </g>
     <g id="text_10">
      <!-- 0.4 -->
      <g transform="translate(27.652813 322.143014) scale(0.17 -0.17)">
       <use xlink:href="#DejaVuSans-30"/>
       <use xlink:href="#DejaVuSans-2e" x="63.623047"/>
       <use xlink:href="#DejaVuSans-34" x="95.410156"/>
      </g>
     </g>
    </g>
    <g id="ytick_5">
     <g id="line2d_19">
      <path d="M 61.688125 263.505518 
L 508.088125 263.505518 
" clip-path="url(#pfb7dcdc37d)" style="fill: none; stroke: #b0b0b0; stroke-width: 0.8; stroke-linecap: square"/>
     </g>
     <g id="line2d_20">
      <g>
       <use xlink:href="#mfee9521bc6" x="61.688125" y="263.505518" style="stroke: #000000; stroke-width: 0.8"/>
      </g>
     </g>
     <g id="text_11">
      <!-- 0.5 -->
      <g transform="translate(27.652813 269.96419) scale(0.17 -0.17)">
       <use xlink:href="#DejaVuSans-30"/>
       <use xlink:href="#DejaVuSans-2e" x="63.623047"/>
       <use xlink:href="#DejaVuSans-35" x="95.410156"/>
      </g>
     </g>
    </g>
    <g id="ytick_6">
     <g id="line2d_21">
      <path d="M 61.688125 211.326695 
L 508.088125 211.326695 
" clip-path="url(#pfb7dcdc37d)" style="fill: none; stroke: #b0b0b0; stroke-width: 0.8; stroke-linecap: square"/>
     </g>
     <g id="line2d_22">
      <g>
       <use xlink:href="#mfee9521bc6" x="61.688125" y="211.326695" style="stroke: #000000; stroke-width: 0.8"/>
      </g>
     </g>
     <g id="text_12">
      <!-- 0.6 -->
      <g transform="translate(27.652813 217.785367) scale(0.17 -0.17)">
       <defs>
        <path id="DejaVuSans-36" d="M 2113 2584 
Q 1688 2584 1439 2293 
Q 1191 2003 1191 1497 
Q 1191 994 1439 701 
Q 1688 409 2113 409 
Q 2538 409 2786 701 
Q 3034 994 3034 1497 
Q 3034 2003 2786 2293 
Q 2538 2584 2113 2584 
z
M 3366 4563 
L 3366 3988 
Q 3128 4100 2886 4159 
Q 2644 4219 2406 4219 
Q 1781 4219 1451 3797 
Q 1122 3375 1075 2522 
Q 1259 2794 1537 2939 
Q 1816 3084 2150 3084 
Q 2853 3084 3261 2657 
Q 3669 2231 3669 1497 
Q 3669 778 3244 343 
Q 2819 -91 2113 -91 
Q 1303 -91 875 529 
Q 447 1150 447 2328 
Q 447 3434 972 4092 
Q 1497 4750 2381 4750 
Q 2619 4750 2861 4703 
Q 3103 4656 3366 4563 
z
" transform="scale(0.015625)"/>
       </defs>
       <use xlink:href="#DejaVuSans-30"/>
       <use xlink:href="#DejaVuSans-2e" x="63.623047"/>
       <use xlink:href="#DejaVuSans-36" x="95.410156"/>
      </g>
     </g>
    </g>
    <g id="ytick_7">
     <g id="line2d_23">
      <path d="M 61.688125 159.147871 
L 508.088125 159.147871 
" clip-path="url(#pfb7dcdc37d)" style="fill: none; stroke: #b0b0b0; stroke-width: 0.8; stroke-linecap: square"/>
     </g>
     <g id="line2d_24">
      <g>
       <use xlink:href="#mfee9521bc6" x="61.688125" y="159.147871" style="stroke: #000000; stroke-width: 0.8"/>
      </g>
     </g>
     <g id="text_13">
      <!-- 0.7 -->
      <g transform="translate(27.652813 165.606543) scale(0.17 -0.17)">
       <defs>
        <path id="DejaVuSans-37" d="M 525 4666 
L 3525 4666 
L 3525 4397 
L 1831 0 
L 1172 0 
L 2766 4134 
L 525 4134 
L 525 4666 
z
" transform="scale(0.015625)"/>
       </defs>
       <use xlink:href="#DejaVuSans-30"/>
       <use xlink:href="#DejaVuSans-2e" x="63.623047"/>
       <use xlink:href="#DejaVuSans-37" x="95.410156"/>
      </g>
     </g>
    </g>
    <g id="ytick_8">
     <g id="line2d_25">
      <path d="M 61.688125 106.969048 
L 508.088125 106.969048 
" clip-path="url(#pfb7dcdc37d)" style="fill: none; stroke: #b0b0b0; stroke-width: 0.8; stroke-linecap: square"/>
     </g>
     <g id="line2d_26">
      <g>
       <use xlink:href="#mfee9521bc6" x="61.688125" y="106.969048" style="stroke: #000000; stroke-width: 0.8"/>
      </g>
     </g>
     <g id="text_14">
      <!-- 0.8 -->
      <g transform="translate(27.652813 113.42772) scale(0.17 -0.17)">
       <defs>
        <path id="DejaVuSans-38" d="M 2034 2216 
Q 1584 2216 1326 1975 
Q 1069 1734 1069 1313 
Q 1069 891 1326 650 
Q 1584 409 2034 409 
Q 2484 409 2743 651 
Q 3003 894 3003 1313 
Q 3003 1734 2745 1975 
Q 2488 2216 2034 2216 
z
M 1403 2484 
Q 997 2584 770 2862 
Q 544 3141 544 3541 
Q 544 4100 942 4425 
Q 1341 4750 2034 4750 
Q 2731 4750 3128 4425 
Q 3525 4100 3525 3541 
Q 3525 3141 3298 2862 
Q 3072 2584 2669 2484 
Q 3125 2378 3379 2068 
Q 3634 1759 3634 1313 
Q 3634 634 3220 271 
Q 2806 -91 2034 -91 
Q 1263 -91 848 271 
Q 434 634 434 1313 
Q 434 1759 690 2068 
Q 947 2378 1403 2484 
z
M 1172 3481 
Q 1172 3119 1398 2916 
Q 1625 2713 2034 2713 
Q 2441 2713 2670 2916 
Q 2900 3119 2900 3481 
Q 2900 3844 2670 4047 
Q 2441 4250 2034 4250 
Q 1625 4250 1398 4047 
Q 1172 3844 1172 3481 
z
" transform="scale(0.015625)"/>
       </defs>
       <use xlink:href="#DejaVuSans-30"/>
       <use xlink:href="#DejaVuSans-2e" x="63.623047"/>
       <use xlink:href="#DejaVuSans-38" x="95.410156"/>
      </g>
     </g>
    </g>
    <g id="ytick_9">
     <g id="line2d_27">
      <path d="M 61.688125 54.790224 
L 508.088125 54.790224 
" clip-path="url(#pfb7dcdc37d)" style="fill: none; stroke: #b0b0b0; stroke-width: 0.8; stroke-linecap: square"/>
     </g>
     <g id="line2d_28">
      <g>
       <use xlink:href="#mfee9521bc6" x="61.688125" y="54.790224" style="stroke: #000000; stroke-width: 0.8"/>
      </g>
     </g>
     <g id="text_15">
      <!-- 0.9 -->
      <g transform="translate(27.652813 61.248896) scale(0.17 -0.17)">
       <defs>
        <path id="DejaVuSans-39" d="M 703 97 
L 703 672 
Q 941 559 1184 500 
Q 1428 441 1663 441 
Q 2288 441 2617 861 
Q 2947 1281 2994 2138 
Q 2813 1869 2534 1725 
Q 2256 1581 1919 1581 
Q 1219 1581 811 2004 
Q 403 2428 403 3163 
Q 403 3881 828 4315 
Q 1253 4750 1959 4750 
Q 2769 4750 3195 4129 
Q 3622 3509 3622 2328 
Q 3622 1225 3098 567 
Q 2575 -91 1691 -91 
Q 1453 -91 1209 -44 
Q 966 3 703 97 
z
M 1959 2075 
Q 2384 2075 2632 2365 
Q 2881 2656 2881 3163 
Q 2881 3666 2632 3958 
Q 2384 4250 1959 4250 
Q 1534 4250 1286 3958 
Q 1038 3666 1038 3163 
Q 1038 2656 1286 2365 
Q 1534 2075 1959 2075 
z
" transform="scale(0.015625)"/>
       </defs>
       <use xlink:href="#DejaVuSans-30"/>
       <use xlink:href="#DejaVuSans-2e" x="63.623047"/>
       <use xlink:href="#DejaVuSans-39" x="95.410156"/>
      </g>
     </g>
    </g>
    <g id="text_16">
     <!-- Joint 3D PCK -->
     <g transform="translate(20.117344 303.2405) rotate(-90) scale(0.17 -0.17)">
      <defs>
       <path id="DejaVuSans-4a" d="M 628 4666 
L 1259 4666 
L 1259 325 
Q 1259 -519 939 -900 
Q 619 -1281 -91 -1281 
L -331 -1281 
L -331 -750 
L -134 -750 
Q 284 -750 456 -515 
Q 628 -281 628 325 
L 628 4666 
z
" transform="scale(0.015625)"/>
       <path id="DejaVuSans-69" d="M 603 3500 
L 1178 3500 
L 1178 0 
L 603 0 
L 603 3500 
z
M 603 4863 
L 1178 4863 
L 1178 4134 
L 603 4134 
L 603 4863 
z
" transform="scale(0.015625)"/>
       <path id="DejaVuSans-6e" d="M 3513 2113 
L 3513 0 
L 2938 0 
L 2938 2094 
Q 2938 2591 2744 2837 
Q 2550 3084 2163 3084 
Q 1697 3084 1428 2787 
Q 1159 2491 1159 1978 
L 1159 0 
L 581 0 
L 581 3500 
L 1159 3500 
L 1159 2956 
Q 1366 3272 1645 3428 
Q 1925 3584 2291 3584 
Q 2894 3584 3203 3211 
Q 3513 2838 3513 2113 
z
" transform="scale(0.015625)"/>
       <path id="DejaVuSans-44" d="M 1259 4147 
L 1259 519 
L 2022 519 
Q 2988 519 3436 956 
Q 3884 1394 3884 2338 
Q 3884 3275 3436 3711 
Q 2988 4147 2022 4147 
L 1259 4147 
z
M 628 4666 
L 1925 4666 
Q 3281 4666 3915 4102 
Q 4550 3538 4550 2338 
Q 4550 1131 3912 565 
Q 3275 0 1925 0 
L 628 0 
L 628 4666 
z
" transform="scale(0.015625)"/>
       <path id="DejaVuSans-50" d="M 1259 4147 
L 1259 2394 
L 2053 2394 
Q 2494 2394 2734 2622 
Q 2975 2850 2975 3272 
Q 2975 3691 2734 3919 
Q 2494 4147 2053 4147 
L 1259 4147 
z
M 628 4666 
L 2053 4666 
Q 2838 4666 3239 4311 
Q 3641 3956 3641 3272 
Q 3641 2581 3239 2228 
Q 2838 1875 2053 1875 
L 1259 1875 
L 1259 0 
L 628 0 
L 628 4666 
z
" transform="scale(0.015625)"/>
       <path id="DejaVuSans-43" d="M 4122 4306 
L 4122 3641 
Q 3803 3938 3442 4084 
Q 3081 4231 2675 4231 
Q 1875 4231 1450 3742 
Q 1025 3253 1025 2328 
Q 1025 1406 1450 917 
Q 1875 428 2675 428 
Q 3081 428 3442 575 
Q 3803 722 4122 1019 
L 4122 359 
Q 3791 134 3420 21 
Q 3050 -91 2638 -91 
Q 1578 -91 968 557 
Q 359 1206 359 2328 
Q 359 3453 968 4101 
Q 1578 4750 2638 4750 
Q 3056 4750 3426 4639 
Q 3797 4528 4122 4306 
z
" transform="scale(0.015625)"/>
       <path id="DejaVuSans-4b" d="M 628 4666 
L 1259 4666 
L 1259 2694 
L 3353 4666 
L 4166 4666 
L 1850 2491 
L 4331 0 
L 3500 0 
L 1259 2247 
L 1259 0 
L 628 0 
L 628 4666 
z
" transform="scale(0.015625)"/>
      </defs>
      <use xlink:href="#DejaVuSans-4a"/>
      <use xlink:href="#DejaVuSans-6f" x="29.492188"/>
      <use xlink:href="#DejaVuSans-69" x="90.673828"/>
      <use xlink:href="#DejaVuSans-6e" x="118.457031"/>
      <use xlink:href="#DejaVuSans-74" x="181.835938"/>
      <use xlink:href="#DejaVuSans-20" x="221.044922"/>
      <use xlink:href="#DejaVuSans-33" x="252.832031"/>
      <use xlink:href="#DejaVuSans-44" x="316.455078"/>
      <use xlink:href="#DejaVuSans-20" x="393.457031"/>
      <use xlink:href="#DejaVuSans-50" x="425.244141"/>
      <use xlink:href="#DejaVuSans-43" x="485.546875"/>
      <use xlink:href="#DejaVuSans-4b" x="555.371094"/>
     </g>
    </g>
   </g>
   <g id="line2d_29">
    <path d="M 6.451762 486.734479 
L 12.088125 483.638299 
L 17.724489 479.968593 
L 23.360853 475.770639 
L 28.997216 471.415288 
L 34.63358 466.50366 
L 40.269943 461.359172 
L 45.906307 456.055132 
L 51.542671 450.488045 
L 57.179034 444.481111 
L 62.815398 438.569046 
L 68.451761 432.357281 
L 74.088125 425.973027 
L 79.724488 419.39688 
L 85.360852 412.939318 
L 90.997216 406.393355 
L 96.633579 399.394609 
L 102.269943 392.514449 
L 107.906306 385.459644 
L 113.54267 378.687289 
L 119.179035 371.412561 
L 124.815398 364.392253 
L 130.451762 357.335292 
L 136.088125 350.517659 
L 141.724489 343.600845 
L 147.360853 336.837115 
L 152.997216 330.051824 
L 158.63358 323.320436 
L 164.269943 316.755068 
L 169.906307 310.351409 
L 175.54267 304.126708 
L 181.179034 297.983939 
L 186.815398 291.953288 
L 192.451761 285.877358 
L 198.088125 279.91139 
L 203.724488 273.956204 
L 209.360852 268.307184 
L 214.997215 262.584857 
L 220.633579 256.713759 
L 226.269943 251.263103 
L 231.906307 245.866349 
L 237.542671 240.484688 
L 243.179035 235.094403 
L 248.815398 229.967164 
L 254.451762 225.057692 
L 260.088125 220.234465 
L 265.724489 215.488858 
L 271.360852 210.833807 
L 276.997216 206.12701 
L 282.63358 201.441774 
L 288.269943 196.98293 
L 293.906307 192.614643 
L 299.54267 188.431782 
L 305.179034 184.13249 
L 310.815397 180.074684 
L 316.451761 176.176429 
L 322.088125 172.23074 
L 327.724488 168.405794 
L 333.360852 164.636907 
L 338.997215 161.027572 
L 344.63358 157.562696 
L 350.269944 154.354398 
L 355.906307 151.102978 
L 361.542671 147.797656 
L 367.179034 144.412556 
L 372.815398 141.174073 
L 378.451762 137.939902 
L 384.088125 134.960152 
L 389.724489 132.045086 
L 395.360852 129.153737 
L 400.997216 126.387442 
L 406.633579 123.610367 
L 412.269943 120.941098 
L 417.906307 118.297702 
L 423.54267 115.598248 
L 429.179034 112.985037 
L 434.815397 110.499038 
L 440.451761 108.168278 
L 446.088125 105.74265 
L 451.724488 103.511072 
L 457.360853 101.257933 
L 462.997216 99.039292 
L 468.63358 96.844367 
L 474.269944 94.630038 
L 479.906307 92.586042 
L 485.542671 90.615353 
L 491.179034 88.554108 
L 496.815398 86.531673 
L 502.451761 84.621357 
L 508.088125 82.689478 
" clip-path="url(#pfb7dcdc37d)" style="fill: none; stroke-dasharray: 9.99,4.32; stroke-dashoffset: 0; stroke: #1f77b4; stroke-opacity: 0.705882; stroke-width: 2.7"/>
   </g>
   <g id="line2d_30">
    <path d="M 6.451762 488.616767 
L 12.088125 485.649954 
L 17.724489 482.353255 
L 23.360853 478.6663 
L 28.997216 474.530873 
L 34.63358 470.076342 
L 40.269943 465.16687 
L 45.906307 459.938293 
L 51.542671 454.418641 
L 57.179034 448.57126 
L 62.815398 442.245221 
L 68.451761 435.638887 
L 74.088125 428.944153 
L 79.724488 422.195516 
L 85.360852 415.343385 
L 90.997216 408.374824 
L 96.633579 401.410576 
L 102.269943 394.558445 
L 107.906306 387.344087 
L 113.54267 380.300063 
L 119.179035 373.094329 
L 124.815398 366.102051 
L 130.451762 358.915723 
L 136.088125 351.830732 
L 141.724489 344.866484 
L 147.360853 337.753464 
L 152.997216 331.063042 
L 158.63358 324.301467 
L 164.269943 317.593797 
L 169.906307 310.886125 
L 175.54267 304.312134 
L 181.179034 297.856728 
L 186.815398 291.323702 
L 192.451761 285.219744 
L 198.088125 279.066194 
L 203.724488 272.994577 
L 209.360852 267.19463 
L 214.997215 261.366653 
L 220.633579 255.555926 
L 226.269943 249.89397 
L 231.906307 244.436846 
L 237.542671 238.981877 
L 243.179035 233.654119 
L 248.815398 228.281082 
L 254.451762 223.024476 
L 260.088125 217.938203 
L 265.724489 213.069698 
L 271.360852 208.151601 
L 276.997216 203.587108 
L 282.63358 198.98596 
L 288.269943 194.509868 
L 293.906307 190.163141 
L 299.54267 185.857381 
L 305.179034 181.599056 
L 310.815397 177.414039 
L 316.451761 173.619278 
L 322.088125 169.667121 
L 327.724488 165.801208 
L 333.360852 161.851207 
L 338.997215 158.345366 
L 344.63358 154.729562 
L 350.269944 151.187067 
L 355.906307 147.821373 
L 361.542671 144.393151 
L 367.179034 141.171917 
L 372.815398 138.000273 
L 378.451762 134.731604 
L 384.088125 131.669922 
L 389.724489 128.659987 
L 395.360852 125.785887 
L 400.997216 122.851416 
L 406.633579 120.085121 
L 412.269943 117.525814 
L 417.906307 114.830671 
L 423.54267 112.413667 
L 429.179034 109.899638 
L 434.815397 107.586128 
L 440.451761 105.296335 
L 446.088125 102.838364 
L 451.724488 100.52701 
L 457.360853 98.243685 
L 462.997216 96.186753 
L 468.63358 93.961642 
L 474.269944 91.883149 
L 479.906307 89.768001 
L 485.542671 87.75419 
L 491.179034 85.884839 
L 496.815398 83.976678 
L 502.451761 82.133201 
L 508.088125 80.214259 
" clip-path="url(#pfb7dcdc37d)" style="fill: none; stroke-dasharray: 9.99,4.32; stroke-dashoffset: 0; stroke: #ff7f0e; stroke-opacity: 0.705882; stroke-width: 2.7"/>
   </g>
   <g id="line2d_31">
    <path d="M 6.451762 487.267039 
L 12.088125 484.321787 
L 17.724489 480.837507 
L 23.360853 477.10743 
L 28.997216 473.060403 
L 34.63358 468.627433 
L 40.269943 463.940041 
L 45.906307 458.983134 
L 51.542671 453.946452 
L 57.179034 448.558323 
L 62.815398 442.935177 
L 68.451761 436.958429 
L 74.088125 431.117516 
L 79.724488 425.267978 
L 85.360852 419.172644 
L 90.997216 413.036343 
L 96.633579 406.744802 
L 102.269943 400.179435 
L 107.906306 393.659346 
L 113.54267 386.966768 
L 119.179035 380.287126 
L 124.815398 373.409122 
L 130.451762 366.630299 
L 136.088125 359.842852 
L 141.724489 352.982097 
L 147.360853 346.367139 
L 152.997216 339.407203 
L 158.63358 332.848304 
L 164.269943 326.373493 
L 169.906307 319.89437 
L 175.54267 313.372125 
L 181.179034 306.944749 
L 186.815398 300.722204 
L 192.451761 294.56003 
L 198.088125 288.572501 
L 203.724488 282.625938 
L 209.360852 276.780713 
L 214.997215 270.952736 
L 220.633579 265.049296 
L 226.269943 259.456336 
L 231.906307 253.63914 
L 237.542671 248.089303 
L 243.179035 242.576119 
L 248.815398 237.084496 
L 254.451762 231.920603 
L 260.088125 226.963697 
L 265.724489 222.002478 
L 271.360852 217.123192 
L 276.997216 212.347399 
L 282.63358 207.463801 
L 288.269943 202.750535 
L 293.906307 198.37578 
L 299.54267 193.843628 
L 305.179034 189.57021 
L 310.815397 185.210547 
L 316.451761 181.012593 
L 322.088125 176.933225 
L 327.724488 173.123372 
L 333.360852 169.363108 
L 338.997215 165.490728 
L 344.63358 161.896486 
L 350.269944 158.220311 
L 355.906307 154.574322 
L 361.542671 150.943426 
L 367.179034 147.480707 
L 372.815398 144.015831 
L 378.451762 140.770879 
L 384.088125 137.461245 
L 389.724489 134.26804 
L 395.360852 131.296914 
L 400.997216 128.319321 
L 406.633579 125.43444 
L 412.269943 122.620711 
L 417.906307 119.90832 
L 423.54267 117.411539 
L 429.179034 114.841452 
L 434.815397 112.316642 
L 440.451761 109.755178 
L 446.088125 107.346799 
L 451.724488 104.983698 
L 457.360853 102.734871 
L 462.997216 100.473107 
L 468.63358 98.336398 
L 474.269944 96.415301 
L 479.906307 94.261342 
L 485.542671 92.172068 
L 491.179034 90.324278 
L 496.815398 88.370839 
L 502.451761 86.602825 
L 508.088125 84.938305 
" clip-path="url(#pfb7dcdc37d)" style="fill: none; stroke-dasharray: 9.99,4.32; stroke-dashoffset: 0; stroke: #2ca02c; stroke-opacity: 0.705882; stroke-width: 2.7"/>
   </g>
   <g id="line2d_32">
    <path d="M 6.451762 490.246789 
L 12.088125 487.819004 
L 17.724489 484.809069 
L 23.360853 481.620176 
L 28.997216 477.95047 
L 34.63358 473.884039 
L 40.269943 469.48341 
L 45.906307 464.968507 
L 51.542671 460.037474 
L 57.179034 454.522134 
L 62.815398 448.99817 
L 68.451761 442.980456 
L 74.088125 436.361185 
L 79.724488 430.017898 
L 85.360852 423.193797 
L 90.997216 416.37832 
L 96.633579 409.722396 
L 102.269943 402.919856 
L 107.906306 395.98148 
L 113.54267 389.150911 
L 119.179035 382.408742 
L 124.815398 375.692447 
L 130.451762 368.842472 
L 136.088125 361.934283 
L 141.724489 354.974346 
L 147.360853 348.141621 
L 152.997216 341.226963 
L 158.63358 334.2929 
L 164.269943 327.539951 
L 169.906307 320.722318 
L 175.54267 313.889592 
L 181.179034 307.244449 
L 186.815398 300.528154 
L 192.451761 294.135275 
L 198.088125 287.619498 
L 203.724488 281.252494 
L 209.360852 275.038572 
L 214.997215 269.223533 
L 220.633579 263.190726 
L 226.269943 257.239851 
L 231.906307 251.306225 
L 237.542671 245.284198 
L 243.179035 239.57912 
L 248.815398 233.699397 
L 254.451762 228.218555 
L 260.088125 222.795928 
L 265.724489 217.478951 
L 271.360852 212.190003 
L 276.997216 207.017485 
L 282.63358 202.099389 
L 288.269943 197.17698 
L 293.906307 192.431373 
L 299.54267 187.627551 
L 305.179034 183.116961 
L 310.815397 178.552467 
L 316.451761 174.22299 
L 322.088125 169.949572 
L 327.724488 165.792584 
L 333.360852 161.67225 
L 338.997215 157.758903 
L 344.63358 153.834775 
L 350.269944 150.270718 
L 355.906307 146.484582 
L 361.542671 142.955023 
L 367.179034 139.462118 
L 372.815398 136.05977 
L 378.451762 132.715637 
L 384.088125 129.535369 
L 389.724489 126.264544 
L 395.360852 123.114461 
L 400.997216 120.072185 
L 406.633579 117.070874 
L 412.269943 114.239896 
L 417.906307 111.495163 
L 423.54267 108.892733 
L 429.179034 106.376548 
L 434.815397 103.899172 
L 440.451761 101.404548 
L 446.088125 98.991857 
L 451.724488 96.686971 
L 457.360853 94.302309 
L 462.997216 92.034077 
L 468.63358 89.785249 
L 474.269944 87.605419 
L 479.906307 85.455773 
L 485.542671 83.25438 
L 491.179034 81.303097 
L 496.815398 79.190105 
L 502.451761 77.223729 
L 508.088125 75.365159 
" clip-path="url(#pfb7dcdc37d)" style="fill: none; stroke-dasharray: 9.99,4.32; stroke-dashoffset: 0; stroke: #b42728; stroke-opacity: 0.705882; stroke-width: 2.7"/>
   </g>
   <g id="line2d_33">
    <path d="M 6.451762 491.803503 
L 12.088125 489.386499 
L 17.724489 486.594331 
L 23.360853 483.213545 
L 28.997216 479.505028 
L 34.63358 475.397631 
L 40.269943 471.191052 
L 45.906307 466.846482 
L 51.542671 462.040504 
L 57.179034 456.665312 
L 62.815398 451.352647 
L 68.451761 445.658349 
L 74.088125 439.58242 
L 79.724488 433.303816 
L 85.360852 426.78157 
L 90.997216 420.002748 
L 96.633579 412.95441 
L 102.269943 406.052689 
L 107.906306 398.885766 
L 113.54267 391.824493 
L 119.179035 384.62954 
L 124.815398 377.44968 
L 130.451762 370.228854 
L 136.088125 362.865724 
L 141.724489 355.899319 
L 147.360853 349.023472 
L 152.997216 342.037662 
L 158.63358 334.982857 
L 164.269943 328.119946 
L 169.906307 321.22038 
L 175.54267 314.363937 
L 181.179034 307.626081 
L 186.815398 300.909786 
L 192.451761 294.471629 
L 198.088125 287.820017 
L 203.724488 281.422826 
L 209.360852 275.157159 
L 214.997215 268.852681 
L 220.633579 262.576233 
L 226.269943 256.623202 
L 231.906307 250.706825 
L 237.542671 245.05565 
L 243.179035 239.266484 
L 248.815398 233.826608 
L 254.451762 228.227179 
L 260.088125 222.931764 
L 265.724489 217.453077 
L 271.360852 212.088665 
L 276.997216 206.88165 
L 282.63358 201.70482 
L 288.269943 196.903154 
L 293.906307 192.202825 
L 299.54267 187.37313 
L 305.179034 182.590869 
L 310.815397 178.261391 
L 316.451761 174.072062 
L 322.088125 169.818049 
L 327.724488 165.682622 
L 333.360852 161.642064 
L 338.997215 157.558384 
L 344.63358 153.785184 
L 350.269944 149.882618 
L 355.906307 145.98652 
L 361.542671 142.36856 
L 367.179034 138.657888 
L 372.815398 135.184388 
L 378.451762 131.777728 
L 384.088125 128.46378 
L 389.724489 125.261951 
L 395.360852 122.034248 
L 400.997216 118.927288 
L 406.633579 115.885011 
L 412.269943 112.821173 
L 417.906307 109.94276 
L 423.54267 107.027694 
L 429.179034 104.356269 
L 434.815397 101.738746 
L 440.451761 99.127692 
L 446.088125 96.717157 
L 451.724488 94.354055 
L 457.360853 92.09876 
L 462.997216 89.86287 
L 468.63358 87.683038 
L 474.269944 85.503207 
L 479.906307 83.364342 
L 485.542671 81.313878 
L 491.179034 79.300067 
L 496.815398 77.35094 
L 502.451761 75.526867 
L 508.088125 73.793352 
" clip-path="url(#pfb7dcdc37d)" style="fill: none; stroke-dasharray: 9.99,4.32; stroke-dashoffset: 0; stroke: #9467bd; stroke-opacity: 0.705882; stroke-width: 2.7"/>
   </g>
   <g id="line2d_34">
    <path d="M 6.451762 494.533144 
L 12.088125 493.396871 
L 17.724489 492.133389 
L 23.360853 490.624109 
L 28.997216 488.841002 
L 34.63358 486.943622 
L 40.269943 484.776727 
L 45.906307 482.461061 
L 51.542671 479.949188 
L 57.179034 477.200142 
L 62.815398 474.43816 
L 68.451761 471.508001 
L 74.088125 468.547657 
L 79.724488 465.391105 
L 85.360852 461.999538 
L 90.997216 458.45273 
L 96.633579 454.681687 
L 102.269943 450.858897 
L 107.906306 446.913208 
L 113.54267 443.010641 
L 119.179035 438.767409 
L 124.815398 434.675104 
L 130.451762 430.369344 
L 136.088125 425.97734 
L 141.724489 421.363256 
L 147.360853 416.846197 
L 152.997216 412.454192 
L 158.63358 407.75602 
L 164.269943 402.941417 
L 169.906307 398.510603 
L 175.54267 393.773619 
L 181.179034 388.993515 
L 186.815398 384.194005 
L 192.451761 379.355685 
L 198.088125 374.530302 
L 203.724488 369.694138 
L 209.360852 364.931282 
L 214.997215 359.875194 
L 220.633579 355.043342 
L 226.269943 350.254613 
L 231.906307 345.327892 
L 237.542671 340.653437 
L 243.179035 335.767682 
L 248.815398 330.987577 
L 254.451762 326.110447 
L 260.088125 321.336811 
L 265.724489 316.658043 
L 271.360852 311.873626 
L 276.997216 307.25523 
L 282.63358 302.41691 
L 288.269943 297.910631 
L 293.906307 293.333201 
L 299.54267 288.805361 
L 305.179034 284.501757 
L 310.815397 280.118378 
L 316.451761 275.853584 
L 322.088125 271.668567 
L 327.724488 267.362807 
L 333.360852 263.087232 
L 338.997215 258.925932 
L 344.63358 254.801286 
L 350.269944 250.644298 
L 355.906307 246.670579 
L 361.542671 242.567494 
L 367.179034 238.453629 
L 372.815398 234.594185 
L 378.451762 230.829609 
L 384.088125 226.909794 
L 389.724489 223.13875 
L 395.360852 219.453952 
L 400.997216 215.728186 
L 406.633579 212.157661 
L 412.269943 208.636727 
L 417.906307 205.171851 
L 423.54267 201.674635 
L 429.179034 198.179573 
L 434.815397 194.682357 
L 440.451761 191.284321 
L 446.088125 187.918627 
L 451.724488 184.667206 
L 457.360853 181.370508 
L 462.997216 178.196708 
L 468.63358 175.152275 
L 474.269944 172.131559 
L 479.906307 169.052628 
L 485.542671 165.952136 
L 491.179034 163.052163 
L 496.815398 160.012042 
L 502.451761 157.051697 
L 508.088125 154.237968 
" clip-path="url(#pfb7dcdc37d)" style="fill: none; stroke-dasharray: 9.99,4.32; stroke-dashoffset: 0; stroke: #8c564b; stroke-opacity: 0.705882; stroke-width: 2.7"/>
   </g>
   <g id="line2d_35">
    <path d="M 6.451762 486.087645 
L 12.088125 482.116083 
L 17.724489 477.909504 
L 23.360853 473.181146 
L 28.997216 468.11859 
L 34.63358 462.762802 
L 40.269943 456.861518 
L 45.906307 450.936517 
L 51.542671 444.595385 
L 57.179034 437.69582 
L 62.815398 430.496555 
L 68.451761 423.543087 
L 74.088125 416.421442 
L 79.724488 409.224333 
L 85.360852 402.003507 
L 90.997216 394.541197 
L 96.633579 386.822308 
L 102.269943 379.63598 
L 107.906306 372.111142 
L 113.54267 364.625113 
L 119.179035 357.404287 
L 124.815398 350.176992 
L 130.451762 343.025162 
L 136.088125 335.862551 
L 141.724489 328.531763 
L 147.360853 321.658072 
L 152.997216 314.838283 
L 158.63358 307.95381 
L 164.269943 301.237515 
L 169.906307 294.741143 
L 175.54267 288.149902 
L 181.179034 281.468105 
L 186.815398 275.144222 
L 192.451761 268.796622 
L 198.088125 262.582701 
L 203.724488 256.573612 
L 209.360852 250.601176 
L 214.997215 245.092304 
L 220.633579 239.488563 
L 226.269943 233.889135 
L 231.906307 228.339298 
L 237.542671 223.000759 
L 243.179035 217.761402 
L 248.815398 212.519888 
L 254.451762 207.325809 
L 260.088125 202.399089 
L 265.724489 197.353782 
L 271.360852 192.810849 
L 276.997216 188.242044 
L 282.63358 183.776732 
L 288.269943 179.378259 
L 293.906307 175.204022 
L 299.54267 171.111717 
L 305.179034 166.948261 
L 310.815397 162.864581 
L 316.451761 158.899487 
L 322.088125 155.078853 
L 327.724488 151.337995 
L 333.360852 147.776094 
L 338.997215 144.246535 
L 344.63358 140.798909 
L 350.269944 137.44184 
L 355.906307 134.214136 
L 361.542671 131.217138 
L 367.179034 128.045494 
L 372.815398 124.962251 
L 378.451762 122.146366 
L 384.088125 119.27011 
L 389.724489 116.585748 
L 395.360852 113.812985 
L 400.997216 111.135092 
L 406.633579 108.53913 
L 412.269943 106.091941 
L 417.906307 103.776274 
L 423.54267 101.395924 
L 429.179034 99.101819 
L 434.815397 96.921987 
L 440.451761 94.66238 
L 446.088125 92.540764 
L 451.724488 90.514016 
L 457.360853 88.579982 
L 462.997216 86.635167 
L 468.63358 84.742099 
L 474.269944 82.849031 
L 479.906307 81.091798 
L 485.542671 79.323784 
L 491.179034 77.536366 
L 496.815398 75.850284 
L 502.451761 74.274165 
L 508.088125 72.747636 
" clip-path="url(#pfb7dcdc37d)" style="fill: none; stroke-dasharray: 9.99,4.32; stroke-dashoffset: 0; stroke: #e377c2; stroke-opacity: 0.705882; stroke-width: 2.7"/>
   </g>
   <g id="line2d_36">
    <path d="M 6.451762 486.928529 
L 12.088125 483.580084 
L 17.724489 479.765918 
L 23.360853 475.755546 
L 28.997216 471.316107 
L 34.63358 466.639496 
L 40.269943 461.589877 
L 45.906307 456.404422 
L 51.542671 450.820087 
L 57.179034 445.143038 
L 62.815398 439.140416 
L 68.451761 432.952369 
L 74.088125 426.628486 
L 79.724488 420.364975 
L 85.360852 413.797451 
L 90.997216 407.014316 
L 96.633579 400.09319 
L 102.269943 393.32946 
L 107.906306 386.145288 
L 113.54267 379.034424 
L 119.179035 371.951589 
L 124.815398 365.23745 
L 130.451762 358.141678 
L 136.088125 351.211928 
L 141.724489 344.364109 
L 147.360853 337.852644 
L 152.997216 331.252779 
L 158.63358 324.672319 
L 164.269943 318.404495 
L 169.906307 312.022398 
L 175.54267 305.804165 
L 181.179034 299.689425 
L 186.815398 293.488441 
L 192.451761 287.513849 
L 198.088125 281.737619 
L 203.724488 275.905331 
L 209.360852 270.016983 
L 214.997215 264.277407 
L 220.633579 258.520583 
L 226.269943 253.097956 
L 231.906307 247.492059 
L 237.542671 242.000436 
L 243.179035 236.767547 
L 248.815398 231.510941 
L 254.451762 226.638123 
L 260.088125 221.549694 
L 265.724489 216.840741 
L 271.360852 212.008889 
L 276.997216 207.373244 
L 282.63358 202.748379 
L 288.269943 198.248569 
L 293.906307 193.947122 
L 299.54267 189.71467 
L 305.179034 185.452032 
L 310.815397 181.215268 
L 316.451761 177.043187 
L 322.088125 172.948727 
L 327.724488 169.177683 
L 333.360852 165.454074 
L 338.997215 161.83827 
L 344.63358 158.27637 
L 350.269944 154.768372 
L 355.906307 151.447957 
L 361.542671 148.263376 
L 367.179034 145.137011 
L 372.815398 142.066704 
L 378.451762 139.015803 
L 384.088125 135.990775 
L 389.724489 133.110206 
L 395.360852 130.371942 
L 400.997216 127.683267 
L 406.633579 124.906192 
L 412.269943 122.478408 
L 417.906307 120.087277 
L 423.54267 117.765142 
L 429.179034 115.464569 
L 434.815397 113.125185 
L 440.451761 110.887138 
L 446.088125 108.909982 
L 451.724488 106.82502 
L 457.360853 104.843551 
L 462.997216 102.903048 
L 468.63358 100.91511 
L 474.269944 98.981076 
L 479.906307 97.006076 
L 485.542671 95.175535 
L 491.179034 93.360087 
L 496.815398 91.475643 
L 502.451761 89.75722 
L 508.088125 88.146603 
" clip-path="url(#pfb7dcdc37d)" style="fill: none; stroke-dasharray: 9.99,4.32; stroke-dashoffset: 0; stroke: #aec7e8; stroke-opacity: 0.705882; stroke-width: 2.7"/>
   </g>
   <g id="line2d_37">
    <path d="M 6.451762 485.848316 
L 12.088125 481.855193 
L 17.724489 477.586087 
L 23.360853 472.844792 
L 28.997216 467.687367 
L 34.63358 462.273364 
L 40.269943 456.397954 
L 45.906307 450.438454 
L 51.542671 444.013234 
L 57.179034 437.081328 
L 62.815398 429.892843 
L 68.451761 422.991122 
L 74.088125 415.903975 
L 79.724488 408.706866 
L 85.360852 401.436449 
L 90.997216 393.954733 
L 96.633579 386.229377 
L 102.269943 379.019331 
L 107.906306 371.488025 
L 113.54267 364.083929 
L 119.179035 356.841542 
L 124.815398 349.612091 
L 130.451762 342.42145 
L 136.088125 335.213561 
L 141.724489 327.846119 
L 147.360853 320.875402 
L 152.997216 314.040521 
L 158.63358 307.147424 
L 164.269943 300.38585 
L 169.906307 293.865761 
L 175.54267 287.248647 
L 181.179034 280.547444 
L 186.815398 274.199844 
L 192.451761 267.852244 
L 198.088125 261.603826 
L 203.724488 255.588267 
L 209.360852 249.559772 
L 214.997215 244.025027 
L 220.633579 238.380321 
L 226.269943 232.795985 
L 231.906307 227.259084 
L 237.542671 221.847238 
L 243.179035 216.543197 
L 248.815398 211.234844 
L 254.451762 206.029985 
L 260.088125 201.103264 
L 265.724489 196.118328 
L 271.360852 191.586176 
L 276.997216 187.032464 
L 282.63358 182.590869 
L 288.269943 178.20102 
L 293.906307 174.054813 
L 299.54267 170.044441 
L 305.179034 165.915482 
L 310.815397 161.829646 
L 316.451761 157.929235 
L 322.088125 154.119382 
L 327.724488 150.421646 
L 333.360852 146.941678 
L 338.997215 143.509145 
L 344.63358 140.124045 
L 350.269944 136.784225 
L 355.906307 133.612581 
L 361.542671 130.645768 
L 367.179034 127.54312 
L 372.815398 124.48575 
L 378.451762 121.691426 
L 384.088125 118.856136 
L 389.724489 116.21274 
L 395.360852 113.49388 
L 400.997216 110.835392 
L 406.633579 108.263147 
L 412.269943 105.82027 
L 417.906307 103.524009 
L 423.54267 101.199718 
L 429.179034 98.916393 
L 434.815397 96.801245 
L 440.451761 94.561043 
L 446.088125 92.480392 
L 451.724488 90.505392 
L 457.360853 88.605855 
L 462.997216 86.684758 
L 468.63358 84.836968 
L 474.269944 82.969773 
L 479.906307 81.240569 
L 485.542671 79.517834 
L 491.179034 77.790787 
L 496.815398 76.15214 
L 502.451761 74.610519 
L 508.088125 73.107707 
" clip-path="url(#pfb7dcdc37d)" style="fill: none; stroke-dasharray: 9.99,4.32; stroke-dashoffset: 0; stroke: #bcbd22; stroke-opacity: 0.705882; stroke-width: 2.7"/>
   </g>
   <g id="line2d_38">
    <path d="M 6.451762 486.965183 
L 12.088125 483.547742 
L 17.724489 479.699079 
L 23.360853 475.656365 
L 28.997216 471.30317 
L 34.63358 466.585593 
L 40.269943 461.490695 
L 45.906307 456.210372 
L 51.542671 450.643285 
L 57.179034 445.015827 
L 62.815398 438.937742 
L 68.451761 432.695791 
L 74.088125 426.311538 
L 79.724488 419.989811 
L 85.360852 413.344667 
L 90.997216 406.568001 
L 96.633579 399.631782 
L 102.269943 392.699875 
L 107.906306 385.504922 
L 113.54267 378.325062 
L 119.179035 371.194793 
L 124.815398 364.424595 
L 130.451762 357.294325 
L 136.088125 350.358106 
L 141.724489 343.44776 
L 147.360853 336.884549 
L 152.997216 330.31487 
L 158.63358 323.704224 
L 164.269943 317.470898 
L 169.906307 311.159952 
L 175.54267 304.99131 
L 181.179034 298.94341 
L 186.815398 292.76183 
L 192.451761 286.767833 
L 198.088125 281.036882 
L 203.724488 275.208906 
L 209.360852 269.28606 
L 214.997215 263.587451 
L 220.633579 257.753006 
L 226.269943 252.315286 
L 231.906307 246.702921 
L 237.542671 241.15524 
L 243.179035 235.842574 
L 248.815398 230.594593 
L 254.451762 225.629062 
L 260.088125 220.501823 
L 265.724489 215.799338 
L 271.360852 210.945925 
L 276.997216 206.260689 
L 282.63358 201.644449 
L 288.269943 197.168356 
L 293.906307 192.823786 
L 299.54267 188.526651 
L 305.179034 184.242452 
L 310.815397 180.055278 
L 316.451761 175.893978 
L 322.088125 171.818923 
L 327.724488 168.004757 
L 333.360852 164.227245 
L 338.997215 160.581256 
L 344.63358 156.963296 
L 350.269944 153.457455 
L 355.906307 150.139195 
L 361.542671 146.967551 
L 367.179034 143.847654 
L 372.815398 140.747163 
L 378.451762 137.719978 
L 384.088125 134.710043 
L 389.724489 131.831631 
L 395.360852 129.106302 
L 400.997216 126.38313 
L 406.633579 123.638397 
L 412.269943 121.204144 
L 417.906307 118.802233 
L 423.54267 116.480098 
L 429.179034 114.153651 
L 434.815397 111.807799 
L 440.451761 109.561128 
L 446.088125 107.577503 
L 451.724488 105.473136 
L 457.360853 103.47873 
L 462.997216 101.568413 
L 468.63358 99.5891 
L 474.269944 97.661534 
L 479.906307 95.718875 
L 485.542671 93.894803 
L 491.179034 92.083667 
L 496.815398 90.205692 
L 502.451761 88.476488 
L 508.088125 86.842154 
" clip-path="url(#pfb7dcdc37d)" style="fill: none; stroke-dasharray: 9.99,4.32; stroke-dashoffset: 0; stroke: #17becf; stroke-opacity: 0.705882; stroke-width: 2.7"/>
   </g>
   <g id="line2d_39">
    <path d="M 6.451762 485.874189 
L 12.088125 481.960842 
L 17.724489 477.726234 
L 23.360853 473.023749 
L 28.997216 467.918071 
L 34.63358 462.583845 
L 40.269943 456.680404 
L 45.906307 450.748935 
L 51.542671 444.412115 
L 57.179034 437.467272 
L 62.815398 430.252914 
L 68.451761 423.321007 
L 74.088125 416.212299 
L 79.724488 408.92679 
L 85.360852 401.682246 
L 90.997216 394.260901 
L 96.633579 386.580823 
L 102.269943 379.314719 
L 107.906306 371.703636 
L 113.54267 364.245637 
L 119.179035 356.929942 
L 124.815398 349.732833 
L 130.451762 342.552973 
L 136.088125 335.293337 
L 141.724489 327.949613 
L 147.360853 321.032799 
L 152.997216 314.124609 
L 158.63358 307.175453 
L 164.269943 300.377225 
L 169.906307 293.809702 
L 175.54267 287.194744 
L 181.179034 280.476293 
L 186.815398 274.087727 
L 192.451761 267.757376 
L 198.088125 261.508957 
L 203.724488 255.467525 
L 209.360852 249.434718 
L 214.997215 243.977593 
L 220.633579 238.341511 
L 226.269943 232.780893 
L 231.906307 227.235367 
L 237.542671 221.801959 
L 243.179035 216.536729 
L 248.815398 211.275811 
L 254.451762 206.103293 
L 260.088125 201.224007 
L 265.724489 196.232603 
L 271.360852 191.700451 
L 276.997216 187.127333 
L 282.63358 182.683582 
L 288.269943 178.293733 
L 293.906307 174.141058 
L 299.54267 170.154402 
L 305.179034 166.053474 
L 310.815397 162.006447 
L 316.451761 158.030573 
L 322.088125 154.201314 
L 327.724488 150.488486 
L 333.360852 146.965395 
L 338.997215 143.506988 
L 344.63358 140.072299 
L 350.269944 136.732478 
L 355.906307 133.541429 
L 361.542671 130.596177 
L 367.179034 127.461188 
L 372.815398 124.371476 
L 378.451762 121.555591 
L 384.088125 118.741862 
L 389.724489 116.107091 
L 395.360852 113.388231 
L 400.997216 110.734054 
L 406.633579 108.125156 
L 412.269943 105.701684 
L 417.906307 103.377393 
L 423.54267 100.997043 
L 429.179034 98.694313 
L 434.815397 96.52095 
L 440.451761 94.25703 
L 446.088125 92.144039 
L 451.724488 90.13454 
L 457.360853 88.23716 
L 462.997216 86.279408 
L 468.63358 84.392809 
L 474.269944 82.516989 
L 479.906307 80.772693 
L 485.542671 79.039177 
L 491.179034 77.260383 
L 496.815398 75.591551 
L 502.451761 74.049929 
L 508.088125 72.544961 
" clip-path="url(#pfb7dcdc37d)" style="fill: none; stroke-dasharray: 9.99,4.32; stroke-dashoffset: 0; stroke: #ffbb78; stroke-opacity: 0.705882; stroke-width: 2.7"/>
   </g>
   <g id="line2d_40">
    <path d="M 6.451762 484.032868 
L 12.088125 479.908222 
L 17.724489 475.421348 
L 23.360853 470.423476 
L 28.997216 464.847765 
L 34.63358 458.879641 
L 40.269943 452.790775 
L 45.906307 446.835587 
L 51.542671 440.343528 
L 57.179034 433.653106 
L 62.815398 426.807444 
L 68.451761 419.817322 
L 74.088125 412.762517 
L 79.724488 405.477007 
L 85.360852 398.077223 
L 90.997216 390.545917 
L 96.633579 383.146134 
L 102.269943 375.319439 
L 107.906306 367.615644 
L 113.54267 360.077868 
L 119.179035 352.516376 
L 124.815398 344.885889 
L 130.451762 337.436515 
L 136.088125 329.920301 
L 141.724489 322.395463 
L 147.360853 314.937464 
L 152.997216 307.600208 
L 158.63358 300.349196 
L 164.269943 292.975286 
L 169.906307 285.780333 
L 175.54267 278.91311 
L 181.179034 272.067448 
L 186.815398 265.510705 
L 192.451761 259.160948 
L 198.088125 252.815505 
L 203.724488 246.584335 
L 209.360852 240.346697 
L 214.997215 234.053 
L 220.633579 228.134467 
L 226.269943 222.358237 
L 231.906307 216.566914 
L 237.542671 211.133507 
L 243.179035 205.792812 
L 248.815398 200.380966 
L 254.451762 195.186887 
L 260.088125 190.281728 
L 265.724489 185.19761 
L 271.360852 180.354978 
L 276.997216 175.398072 
L 282.63358 170.794769 
L 288.269943 166.409232 
L 293.906307 162.004291 
L 299.54267 157.607975 
L 305.179034 153.36043 
L 310.815397 149.214222 
L 316.451761 145.134855 
L 322.088125 141.292659 
L 327.724488 137.625109 
L 333.360852 133.64061 
L 338.997215 129.908377 
L 344.63358 126.417628 
L 350.269944 122.857884 
L 355.906307 119.483565 
L 361.542671 116.01869 
L 367.179034 112.821173 
L 372.815398 109.653841 
L 378.451762 106.630969 
L 384.088125 103.500291 
L 389.724489 100.563664 
L 395.360852 97.754247 
L 400.997216 95.087134 
L 406.633579 92.35965 
L 412.269943 89.765845 
L 417.906307 87.264752 
L 423.54267 84.8305 
L 429.179034 82.45015 
L 434.815397 80.089205 
L 440.451761 77.896437 
L 446.088125 75.703668 
L 451.724488 73.493652 
L 457.360853 71.326757 
L 462.997216 69.252575 
L 468.63358 67.314229 
L 474.269944 65.457814 
L 479.906307 63.55181 
L 485.542671 61.839855 
L 491.179034 60.073998 
L 496.815398 58.357731 
L 502.451761 56.854919 
L 508.088125 55.298205 
" clip-path="url(#pfb7dcdc37d)" style="fill: none; stroke-dasharray: 9.99,4.32; stroke-dashoffset: 0; stroke: #ff0000; stroke-opacity: 0.705882; stroke-width: 2.7"/>
   </g>
   <g id="patch_3">
    <path d="M 61.688125 472.220813 
L 61.688125 28.700813 
" style="fill: none; stroke: #000000; stroke-width: 0.8; stroke-linejoin: miter; stroke-linecap: square"/>
   </g>
   <g id="patch_4">
    <path d="M 508.088125 472.220813 
L 508.088125 28.700813 
" style="fill: none; stroke: #000000; stroke-width: 0.8; stroke-linejoin: miter; stroke-linecap: square"/>
   </g>
   <g id="patch_5">
    <path d="M 61.688125 472.220812 
L 508.088125 472.220812 
" style="fill: none; stroke: #000000; stroke-width: 0.8; stroke-linejoin: miter; stroke-linecap: square"/>
   </g>
   <g id="patch_6">
    <path d="M 61.688125 28.700812 
L 508.088125 28.700812 
" style="fill: none; stroke: #000000; stroke-width: 0.8; stroke-linejoin: miter; stroke-linecap: square"/>
   </g>
   <g id="text_17">
    <!-- HO3D Joint AUC -->
    <g transform="translate(204.249156 22.700812) scale(0.204 -0.204)">
     <defs>
      <path id="DejaVuSans-48" d="M 628 4666 
L 1259 4666 
L 1259 2753 
L 3553 2753 
L 3553 4666 
L 4184 4666 
L 4184 0 
L 3553 0 
L 3553 2222 
L 1259 2222 
L 1259 0 
L 628 0 
L 628 4666 
z
" transform="scale(0.015625)"/>
      <path id="DejaVuSans-4f" d="M 2522 4238 
Q 1834 4238 1429 3725 
Q 1025 3213 1025 2328 
Q 1025 1447 1429 934 
Q 1834 422 2522 422 
Q 3209 422 3611 934 
Q 4013 1447 4013 2328 
Q 4013 3213 3611 3725 
Q 3209 4238 2522 4238 
z
M 2522 4750 
Q 3503 4750 4090 4092 
Q 4678 3434 4678 2328 
Q 4678 1225 4090 567 
Q 3503 -91 2522 -91 
Q 1538 -91 948 565 
Q 359 1222 359 2328 
Q 359 3434 948 4092 
Q 1538 4750 2522 4750 
z
" transform="scale(0.015625)"/>
      <path id="DejaVuSans-41" d="M 2188 4044 
L 1331 1722 
L 3047 1722 
L 2188 4044 
z
M 1831 4666 
L 2547 4666 
L 4325 0 
L 3669 0 
L 3244 1197 
L 1141 1197 
L 716 0 
L 50 0 
L 1831 4666 
z
" transform="scale(0.015625)"/>
      <path id="DejaVuSans-55" d="M 556 4666 
L 1191 4666 
L 1191 1831 
Q 1191 1081 1462 751 
Q 1734 422 2344 422 
Q 2950 422 3222 751 
Q 3494 1081 3494 1831 
L 3494 4666 
L 4128 4666 
L 4128 1753 
Q 4128 841 3676 375 
Q 3225 -91 2344 -91 
Q 1459 -91 1007 375 
Q 556 841 556 1753 
L 556 4666 
z
" transform="scale(0.015625)"/>
     </defs>
     <use xlink:href="#DejaVuSans-48"/>
     <use xlink:href="#DejaVuSans-4f" x="75.195312"/>
     <use xlink:href="#DejaVuSans-33" x="153.90625"/>
     <use xlink:href="#DejaVuSans-44" x="217.529297"/>
     <use xlink:href="#DejaVuSans-20" x="294.53125"/>
     <use xlink:href="#DejaVuSans-4a" x="326.318359"/>
     <use xlink:href="#DejaVuSans-6f" x="355.810547"/>
     <use xlink:href="#DejaVuSans-69" x="416.992188"/>
     <use xlink:href="#DejaVuSans-6e" x="444.775391"/>
     <use xlink:href="#DejaVuSans-74" x="508.154297"/>
     <use xlink:href="#DejaVuSans-20" x="547.363281"/>
     <use xlink:href="#DejaVuSans-41" x="579.150391"/>
     <use xlink:href="#DejaVuSans-55" x="647.558594"/>
     <use xlink:href="#DejaVuSans-43" x="720.751953"/>
    </g>
   </g>
   <g id="legend_1">
    <g id="patch_7">
     <path d="M 172.507828 465.140313 
L 498.175425 465.140313 
Q 501.007625 465.140313 501.007625 462.308112 
L 501.007625 214.295899 
Q 501.007625 211.463699 498.175425 211.463699 
L 172.507828 211.463699 
Q 169.675628 211.463699 169.675628 214.295899 
L 169.675628 462.308112 
Q 169.675628 465.140313 172.507828 465.140313 
z
" style="fill: #ffffff; opacity: 0.75; stroke: #cccccc; stroke-linejoin: miter"/>
    </g>
    <g id="line2d_41">
     <path d="M 175.340028 222.931896 
L 189.501028 222.931896 
L 203.662028 222.931896 
" style="fill: none; stroke-dasharray: 9.99,4.32; stroke-dashoffset: 0; stroke: #1f77b4; stroke-opacity: 0.705882; stroke-width: 2.7"/>
    </g>
    <g id="text_18">
     <!-- HandOccNet (CVPR2022): AUC=48.0 -->
     <g transform="translate(214.990828 227.888246) scale(0.14161 -0.14161)">
      <defs>
       <path id="DejaVuSans-61" d="M 2194 1759 
Q 1497 1759 1228 1600 
Q 959 1441 959 1056 
Q 959 750 1161 570 
Q 1363 391 1709 391 
Q 2188 391 2477 730 
Q 2766 1069 2766 1631 
L 2766 1759 
L 2194 1759 
z
M 3341 1997 
L 3341 0 
L 2766 0 
L 2766 531 
Q 2569 213 2275 61 
Q 1981 -91 1556 -91 
Q 1019 -91 701 211 
Q 384 513 384 1019 
Q 384 1609 779 1909 
Q 1175 2209 1959 2209 
L 2766 2209 
L 2766 2266 
Q 2766 2663 2505 2880 
Q 2244 3097 1772 3097 
Q 1472 3097 1187 3025 
Q 903 2953 641 2809 
L 641 3341 
Q 956 3463 1253 3523 
Q 1550 3584 1831 3584 
Q 2591 3584 2966 3190 
Q 3341 2797 3341 1997 
z
" transform="scale(0.015625)"/>
       <path id="DejaVuSans-63" d="M 3122 3366 
L 3122 2828 
Q 2878 2963 2633 3030 
Q 2388 3097 2138 3097 
Q 1578 3097 1268 2742 
Q 959 2388 959 1747 
Q 959 1106 1268 751 
Q 1578 397 2138 397 
Q 2388 397 2633 464 
Q 2878 531 3122 666 
L 3122 134 
Q 2881 22 2623 -34 
Q 2366 -91 2075 -91 
Q 1284 -91 818 406 
Q 353 903 353 1747 
Q 353 2603 823 3093 
Q 1294 3584 2113 3584 
Q 2378 3584 2631 3529 
Q 2884 3475 3122 3366 
z
" transform="scale(0.015625)"/>
       <path id="DejaVuSans-4e" d="M 628 4666 
L 1478 4666 
L 3547 763 
L 3547 4666 
L 4159 4666 
L 4159 0 
L 3309 0 
L 1241 3903 
L 1241 0 
L 628 0 
L 628 4666 
z
" transform="scale(0.015625)"/>
       <path id="DejaVuSans-56" d="M 1831 0 
L 50 4666 
L 709 4666 
L 2188 738 
L 3669 4666 
L 4325 4666 
L 2547 0 
L 1831 0 
z
" transform="scale(0.015625)"/>
       <path id="DejaVuSans-52" d="M 2841 2188 
Q 3044 2119 3236 1894 
Q 3428 1669 3622 1275 
L 4263 0 
L 3584 0 
L 2988 1197 
Q 2756 1666 2539 1819 
Q 2322 1972 1947 1972 
L 1259 1972 
L 1259 0 
L 628 0 
L 628 4666 
L 2053 4666 
Q 2853 4666 3247 4331 
Q 3641 3997 3641 3322 
Q 3641 2881 3436 2590 
Q 3231 2300 2841 2188 
z
M 1259 4147 
L 1259 2491 
L 2053 2491 
Q 2509 2491 2742 2702 
Q 2975 2913 2975 3322 
Q 2975 3731 2742 3939 
Q 2509 4147 2053 4147 
L 1259 4147 
z
" transform="scale(0.015625)"/>
       <path id="DejaVuSans-3a" d="M 750 794 
L 1409 794 
L 1409 0 
L 750 0 
L 750 794 
z
M 750 3309 
L 1409 3309 
L 1409 2516 
L 750 2516 
L 750 3309 
z
" transform="scale(0.015625)"/>
       <path id="DejaVuSans-3d" d="M 678 2906 
L 4684 2906 
L 4684 2381 
L 678 2381 
L 678 2906 
z
M 678 1631 
L 4684 1631 
L 4684 1100 
L 678 1100 
L 678 1631 
z
" transform="scale(0.015625)"/>
      </defs>
      <use xlink:href="#DejaVuSans-48"/>
      <use xlink:href="#DejaVuSans-61" x="75.195312"/>
      <use xlink:href="#DejaVuSans-6e" x="136.474609"/>
      <use xlink:href="#DejaVuSans-64" x="199.853516"/>
      <use xlink:href="#DejaVuSans-4f" x="263.330078"/>
      <use xlink:href="#DejaVuSans-63" x="342.041016"/>
      <use xlink:href="#DejaVuSans-63" x="397.021484"/>
      <use xlink:href="#DejaVuSans-4e" x="452.001953"/>
      <use xlink:href="#DejaVuSans-65" x="526.806641"/>
      <use xlink:href="#DejaVuSans-74" x="588.330078"/>
      <use xlink:href="#DejaVuSans-20" x="627.539062"/>
      <use xlink:href="#DejaVuSans-28" x="659.326172"/>
      <use xlink:href="#DejaVuSans-43" x="698.339844"/>
      <use xlink:href="#DejaVuSans-56" x="768.164062"/>
      <use xlink:href="#DejaVuSans-50" x="836.572266"/>
      <use xlink:href="#DejaVuSans-52" x="896.875"/>
      <use xlink:href="#DejaVuSans-32" x="966.357422"/>
      <use xlink:href="#DejaVuSans-30" x="1029.980469"/>
      <use xlink:href="#DejaVuSans-32" x="1093.603516"/>
      <use xlink:href="#DejaVuSans-32" x="1157.226562"/>
      <use xlink:href="#DejaVuSans-29" x="1220.849609"/>
      <use xlink:href="#DejaVuSans-3a" x="1259.863281"/>
      <use xlink:href="#DejaVuSans-20" x="1293.554688"/>
      <use xlink:href="#DejaVuSans-41" x="1325.341797"/>
      <use xlink:href="#DejaVuSans-55" x="1393.75"/>
      <use xlink:href="#DejaVuSans-43" x="1466.943359"/>
      <use xlink:href="#DejaVuSans-3d" x="1536.767578"/>
      <use xlink:href="#DejaVuSans-34" x="1620.556641"/>
      <use xlink:href="#DejaVuSans-38" x="1684.179688"/>
      <use xlink:href="#DejaVuSans-2e" x="1747.802734"/>
      <use xlink:href="#DejaVuSans-30" x="1779.589844"/>
     </g>
    </g>
    <g id="line2d_42">
     <path d="M 175.340028 243.717589 
L 189.501028 243.717589 
L 203.662028 243.717589 
" style="fill: none; stroke-dasharray: 9.99,4.32; stroke-dashoffset: 0; stroke: #ff7f0e; stroke-opacity: 0.705882; stroke-width: 2.7"/>
    </g>
    <g id="text_19">
     <!-- MobRecon (CVPR2022): AUC=48.1 -->
     <g transform="translate(214.990828 248.673939) scale(0.14161 -0.14161)">
      <defs>
       <path id="DejaVuSans-4d" d="M 628 4666 
L 1569 4666 
L 2759 1491 
L 3956 4666 
L 4897 4666 
L 4897 0 
L 4281 0 
L 4281 4097 
L 3078 897 
L 2444 897 
L 1241 4097 
L 1241 0 
L 628 0 
L 628 4666 
z
" transform="scale(0.015625)"/>
       <path id="DejaVuSans-62" d="M 3116 1747 
Q 3116 2381 2855 2742 
Q 2594 3103 2138 3103 
Q 1681 3103 1420 2742 
Q 1159 2381 1159 1747 
Q 1159 1113 1420 752 
Q 1681 391 2138 391 
Q 2594 391 2855 752 
Q 3116 1113 3116 1747 
z
M 1159 2969 
Q 1341 3281 1617 3432 
Q 1894 3584 2278 3584 
Q 2916 3584 3314 3078 
Q 3713 2572 3713 1747 
Q 3713 922 3314 415 
Q 2916 -91 2278 -91 
Q 1894 -91 1617 61 
Q 1341 213 1159 525 
L 1159 0 
L 581 0 
L 581 4863 
L 1159 4863 
L 1159 2969 
z
" transform="scale(0.015625)"/>
      </defs>
      <use xlink:href="#DejaVuSans-4d"/>
      <use xlink:href="#DejaVuSans-6f" x="86.279297"/>
      <use xlink:href="#DejaVuSans-62" x="147.460938"/>
      <use xlink:href="#DejaVuSans-52" x="210.9375"/>
      <use xlink:href="#DejaVuSans-65" x="275.919922"/>
      <use xlink:href="#DejaVuSans-63" x="337.443359"/>
      <use xlink:href="#DejaVuSans-6f" x="392.423828"/>
      <use xlink:href="#DejaVuSans-6e" x="453.605469"/>
      <use xlink:href="#DejaVuSans-20" x="516.984375"/>
      <use xlink:href="#DejaVuSans-28" x="548.771484"/>
      <use xlink:href="#DejaVuSans-43" x="587.785156"/>
      <use xlink:href="#DejaVuSans-56" x="657.609375"/>
      <use xlink:href="#DejaVuSans-50" x="726.017578"/>
      <use xlink:href="#DejaVuSans-52" x="786.320312"/>
      <use xlink:href="#DejaVuSans-32" x="855.802734"/>
      <use xlink:href="#DejaVuSans-30" x="919.425781"/>
      <use xlink:href="#DejaVuSans-32" x="983.048828"/>
      <use xlink:href="#DejaVuSans-32" x="1046.671875"/>
      <use xlink:href="#DejaVuSans-29" x="1110.294922"/>
      <use xlink:href="#DejaVuSans-3a" x="1149.308594"/>
      <use xlink:href="#DejaVuSans-20" x="1183"/>
      <use xlink:href="#DejaVuSans-41" x="1214.787109"/>
      <use xlink:href="#DejaVuSans-55" x="1283.195312"/>
      <use xlink:href="#DejaVuSans-43" x="1356.388672"/>
      <use xlink:href="#DejaVuSans-3d" x="1426.212891"/>
      <use xlink:href="#DejaVuSans-34" x="1510.001953"/>
      <use xlink:href="#DejaVuSans-38" x="1573.625"/>
      <use xlink:href="#DejaVuSans-2e" x="1637.248047"/>
      <use xlink:href="#DejaVuSans-31" x="1669.035156"/>
     </g>
    </g>
    <g id="line2d_43">
     <path d="M 175.340028 264.503282 
L 189.501028 264.503282 
L 203.662028 264.503282 
" style="fill: none; stroke-dasharray: 9.99,4.32; stroke-dashoffset: 0; stroke: #2ca02c; stroke-opacity: 0.705882; stroke-width: 2.7"/>
    </g>
    <g id="text_20">
     <!-- H2ONet (CVPR2023): AUC=47.1 -->
     <g transform="translate(214.990828 269.459632) scale(0.14161 -0.14161)">
      <use xlink:href="#DejaVuSans-48"/>
      <use xlink:href="#DejaVuSans-32" x="75.195312"/>
      <use xlink:href="#DejaVuSans-4f" x="138.818359"/>
      <use xlink:href="#DejaVuSans-4e" x="217.529297"/>
      <use xlink:href="#DejaVuSans-65" x="292.333984"/>
      <use xlink:href="#DejaVuSans-74" x="353.857422"/>
      <use xlink:href="#DejaVuSans-20" x="393.066406"/>
      <use xlink:href="#DejaVuSans-28" x="424.853516"/>
      <use xlink:href="#DejaVuSans-43" x="463.867188"/>
      <use xlink:href="#DejaVuSans-56" x="533.691406"/>
      <use xlink:href="#DejaVuSans-50" x="602.099609"/>
      <use xlink:href="#DejaVuSans-52" x="662.402344"/>
      <use xlink:href="#DejaVuSans-32" x="731.884766"/>
      <use xlink:href="#DejaVuSans-30" x="795.507812"/>
      <use xlink:href="#DejaVuSans-32" x="859.130859"/>
      <use xlink:href="#DejaVuSans-33" x="922.753906"/>
      <use xlink:href="#DejaVuSans-29" x="986.376953"/>
      <use xlink:href="#DejaVuSans-3a" x="1025.390625"/>
      <use xlink:href="#DejaVuSans-20" x="1059.082031"/>
      <use xlink:href="#DejaVuSans-41" x="1090.869141"/>
      <use xlink:href="#DejaVuSans-55" x="1159.277344"/>
      <use xlink:href="#DejaVuSans-43" x="1232.470703"/>
      <use xlink:href="#DejaVuSans-3d" x="1302.294922"/>
      <use xlink:href="#DejaVuSans-34" x="1386.083984"/>
      <use xlink:href="#DejaVuSans-37" x="1449.707031"/>
      <use xlink:href="#DejaVuSans-2e" x="1513.330078"/>
      <use xlink:href="#DejaVuSans-31" x="1545.117188"/>
     </g>
    </g>
    <g id="line2d_44">
     <path d="M 175.340028 285.288975 
L 189.501028 285.288975 
L 203.662028 285.288975 
" style="fill: none; stroke-dasharray: 9.99,4.32; stroke-dashoffset: 0; stroke: #b42728; stroke-opacity: 0.705882; stroke-width: 2.7"/>
    </g>
    <g id="text_21">
     <!-- SimpleHand (CVPR2024): AUC=47.6 -->
     <g transform="translate(214.990828 290.245325) scale(0.14161 -0.14161)">
      <defs>
       <path id="DejaVuSans-53" d="M 3425 4513 
L 3425 3897 
Q 3066 4069 2747 4153 
Q 2428 4238 2131 4238 
Q 1616 4238 1336 4038 
Q 1056 3838 1056 3469 
Q 1056 3159 1242 3001 
Q 1428 2844 1947 2747 
L 2328 2669 
Q 3034 2534 3370 2195 
Q 3706 1856 3706 1288 
Q 3706 609 3251 259 
Q 2797 -91 1919 -91 
Q 1588 -91 1214 -16 
Q 841 59 441 206 
L 441 856 
Q 825 641 1194 531 
Q 1563 422 1919 422 
Q 2459 422 2753 634 
Q 3047 847 3047 1241 
Q 3047 1584 2836 1778 
Q 2625 1972 2144 2069 
L 1759 2144 
Q 1053 2284 737 2584 
Q 422 2884 422 3419 
Q 422 4038 858 4394 
Q 1294 4750 2059 4750 
Q 2388 4750 2728 4690 
Q 3069 4631 3425 4513 
z
" transform="scale(0.015625)"/>
       <path id="DejaVuSans-70" d="M 1159 525 
L 1159 -1331 
L 581 -1331 
L 581 3500 
L 1159 3500 
L 1159 2969 
Q 1341 3281 1617 3432 
Q 1894 3584 2278 3584 
Q 2916 3584 3314 3078 
Q 3713 2572 3713 1747 
Q 3713 922 3314 415 
Q 2916 -91 2278 -91 
Q 1894 -91 1617 61 
Q 1341 213 1159 525 
z
M 3116 1747 
Q 3116 2381 2855 2742 
Q 2594 3103 2138 3103 
Q 1681 3103 1420 2742 
Q 1159 2381 1159 1747 
Q 1159 1113 1420 752 
Q 1681 391 2138 391 
Q 2594 391 2855 752 
Q 3116 1113 3116 1747 
z
" transform="scale(0.015625)"/>
      </defs>
      <use xlink:href="#DejaVuSans-53"/>
      <use xlink:href="#DejaVuSans-69" x="63.476562"/>
      <use xlink:href="#DejaVuSans-6d" x="91.259766"/>
      <use xlink:href="#DejaVuSans-70" x="188.671875"/>
      <use xlink:href="#DejaVuSans-6c" x="252.148438"/>
      <use xlink:href="#DejaVuSans-65" x="279.931641"/>
      <use xlink:href="#DejaVuSans-48" x="341.455078"/>
      <use xlink:href="#DejaVuSans-61" x="416.650391"/>
      <use xlink:href="#DejaVuSans-6e" x="477.929688"/>
      <use xlink:href="#DejaVuSans-64" x="541.308594"/>
      <use xlink:href="#DejaVuSans-20" x="604.785156"/>
      <use xlink:href="#DejaVuSans-28" x="636.572266"/>
      <use xlink:href="#DejaVuSans-43" x="675.585938"/>
      <use xlink:href="#DejaVuSans-56" x="745.410156"/>
      <use xlink:href="#DejaVuSans-50" x="813.818359"/>
      <use xlink:href="#DejaVuSans-52" x="874.121094"/>
      <use xlink:href="#DejaVuSans-32" x="943.603516"/>
      <use xlink:href="#DejaVuSans-30" x="1007.226562"/>
      <use xlink:href="#DejaVuSans-32" x="1070.849609"/>
      <use xlink:href="#DejaVuSans-34" x="1134.472656"/>
      <use xlink:href="#DejaVuSans-29" x="1198.095703"/>
      <use xlink:href="#DejaVuSans-3a" x="1237.109375"/>
      <use xlink:href="#DejaVuSans-20" x="1270.800781"/>
      <use xlink:href="#DejaVuSans-41" x="1302.587891"/>
      <use xlink:href="#DejaVuSans-55" x="1370.996094"/>
      <use xlink:href="#DejaVuSans-43" x="1444.189453"/>
      <use xlink:href="#DejaVuSans-3d" x="1514.013672"/>
      <use xlink:href="#DejaVuSans-34" x="1597.802734"/>
      <use xlink:href="#DejaVuSans-37" x="1661.425781"/>
      <use xlink:href="#DejaVuSans-2e" x="1725.048828"/>
      <use xlink:href="#DejaVuSans-36" x="1756.835938"/>
     </g>
    </g>
    <g id="line2d_45">
     <path d="M 175.340028 306.074667 
L 189.501028 306.074667 
L 203.662028 306.074667 
" style="fill: none; stroke-dasharray: 9.99,4.32; stroke-dashoffset: 0; stroke: #9467bd; stroke-opacity: 0.705882; stroke-width: 2.7"/>
    </g>
    <g id="text_22">
     <!-- Liu et al. (CVPR2021): AUC=47.6 -->
     <g transform="translate(214.990828 311.031017) scale(0.14161 -0.14161)">
      <defs>
       <path id="DejaVuSans-4c" d="M 628 4666 
L 1259 4666 
L 1259 531 
L 3531 531 
L 3531 0 
L 628 0 
L 628 4666 
z
" transform="scale(0.015625)"/>
       <path id="DejaVuSans-75" d="M 544 1381 
L 544 3500 
L 1119 3500 
L 1119 1403 
Q 1119 906 1312 657 
Q 1506 409 1894 409 
Q 2359 409 2629 706 
Q 2900 1003 2900 1516 
L 2900 3500 
L 3475 3500 
L 3475 0 
L 2900 0 
L 2900 538 
Q 2691 219 2414 64 
Q 2138 -91 1772 -91 
Q 1169 -91 856 284 
Q 544 659 544 1381 
z
M 1991 3584 
L 1991 3584 
z
" transform="scale(0.015625)"/>
      </defs>
      <use xlink:href="#DejaVuSans-4c"/>
      <use xlink:href="#DejaVuSans-69" x="55.712891"/>
      <use xlink:href="#DejaVuSans-75" x="83.496094"/>
      <use xlink:href="#DejaVuSans-20" x="146.875"/>
      <use xlink:href="#DejaVuSans-65" x="178.662109"/>
      <use xlink:href="#DejaVuSans-74" x="240.185547"/>
      <use xlink:href="#DejaVuSans-20" x="279.394531"/>
      <use xlink:href="#DejaVuSans-61" x="311.181641"/>
      <use xlink:href="#DejaVuSans-6c" x="372.460938"/>
      <use xlink:href="#DejaVuSans-2e" x="400.244141"/>
      <use xlink:href="#DejaVuSans-20" x="432.03125"/>
      <use xlink:href="#DejaVuSans-28" x="463.818359"/>
      <use xlink:href="#DejaVuSans-43" x="502.832031"/>
      <use xlink:href="#DejaVuSans-56" x="572.65625"/>
      <use xlink:href="#DejaVuSans-50" x="641.064453"/>
      <use xlink:href="#DejaVuSans-52" x="701.367188"/>
      <use xlink:href="#DejaVuSans-32" x="770.849609"/>
      <use xlink:href="#DejaVuSans-30" x="834.472656"/>
      <use xlink:href="#DejaVuSans-32" x="898.095703"/>
      <use xlink:href="#DejaVuSans-31" x="961.71875"/>
      <use xlink:href="#DejaVuSans-29" x="1025.341797"/>
      <use xlink:href="#DejaVuSans-3a" x="1064.355469"/>
      <use xlink:href="#DejaVuSans-20" x="1098.046875"/>
      <use xlink:href="#DejaVuSans-41" x="1129.833984"/>
      <use xlink:href="#DejaVuSans-55" x="1198.242188"/>
      <use xlink:href="#DejaVuSans-43" x="1271.435547"/>
      <use xlink:href="#DejaVuSans-3d" x="1341.259766"/>
      <use xlink:href="#DejaVuSans-34" x="1425.048828"/>
      <use xlink:href="#DejaVuSans-37" x="1488.671875"/>
      <use xlink:href="#DejaVuSans-2e" x="1552.294922"/>
      <use xlink:href="#DejaVuSans-36" x="1584.082031"/>
     </g>
    </g>
    <g id="line2d_46">
     <path d="M 175.340028 326.86036 
L 189.501028 326.86036 
L 203.662028 326.86036 
" style="fill: none; stroke-dasharray: 9.99,4.32; stroke-dashoffset: 0; stroke: #8c564b; stroke-opacity: 0.705882; stroke-width: 2.7"/>
    </g>
    <g id="text_23">
     <!-- Keypoint Trans. (CVPR2022): AUC=34.5 -->
     <g transform="translate(214.990828 331.81671) scale(0.14161 -0.14161)">
      <defs>
       <path id="DejaVuSans-79" d="M 2059 -325 
Q 1816 -950 1584 -1140 
Q 1353 -1331 966 -1331 
L 506 -1331 
L 506 -850 
L 844 -850 
Q 1081 -850 1212 -737 
Q 1344 -625 1503 -206 
L 1606 56 
L 191 3500 
L 800 3500 
L 1894 763 
L 2988 3500 
L 3597 3500 
L 2059 -325 
z
" transform="scale(0.015625)"/>
       <path id="DejaVuSans-54" d="M -19 4666 
L 3928 4666 
L 3928 4134 
L 2272 4134 
L 2272 0 
L 1638 0 
L 1638 4134 
L -19 4134 
L -19 4666 
z
" transform="scale(0.015625)"/>
      </defs>
      <use xlink:href="#DejaVuSans-4b"/>
      <use xlink:href="#DejaVuSans-65" x="60.576172"/>
      <use xlink:href="#DejaVuSans-79" x="122.099609"/>
      <use xlink:href="#DejaVuSans-70" x="181.279297"/>
      <use xlink:href="#DejaVuSans-6f" x="244.755859"/>
      <use xlink:href="#DejaVuSans-69" x="305.9375"/>
      <use xlink:href="#DejaVuSans-6e" x="333.720703"/>
      <use xlink:href="#DejaVuSans-74" x="397.099609"/>
      <use xlink:href="#DejaVuSans-20" x="436.308594"/>
      <use xlink:href="#DejaVuSans-54" x="468.095703"/>
      <use xlink:href="#DejaVuSans-72" x="514.429688"/>
      <use xlink:href="#DejaVuSans-61" x="555.542969"/>
      <use xlink:href="#DejaVuSans-6e" x="616.822266"/>
      <use xlink:href="#DejaVuSans-73" x="680.201172"/>
      <use xlink:href="#DejaVuSans-2e" x="732.300781"/>
      <use xlink:href="#DejaVuSans-20" x="764.087891"/>
      <use xlink:href="#DejaVuSans-28" x="795.875"/>
      <use xlink:href="#DejaVuSans-43" x="834.888672"/>
      <use xlink:href="#DejaVuSans-56" x="904.712891"/>
      <use xlink:href="#DejaVuSans-50" x="973.121094"/>
      <use xlink:href="#DejaVuSans-52" x="1033.423828"/>
      <use xlink:href="#DejaVuSans-32" x="1102.90625"/>
      <use xlink:href="#DejaVuSans-30" x="1166.529297"/>
      <use xlink:href="#DejaVuSans-32" x="1230.152344"/>
      <use xlink:href="#DejaVuSans-32" x="1293.775391"/>
      <use xlink:href="#DejaVuSans-29" x="1357.398438"/>
      <use xlink:href="#DejaVuSans-3a" x="1396.412109"/>
      <use xlink:href="#DejaVuSans-20" x="1430.103516"/>
      <use xlink:href="#DejaVuSans-41" x="1461.890625"/>
      <use xlink:href="#DejaVuSans-55" x="1530.298828"/>
      <use xlink:href="#DejaVuSans-43" x="1603.492188"/>
      <use xlink:href="#DejaVuSans-3d" x="1673.316406"/>
      <use xlink:href="#DejaVuSans-33" x="1757.105469"/>
      <use xlink:href="#DejaVuSans-34" x="1820.728516"/>
      <use xlink:href="#DejaVuSans-2e" x="1884.351562"/>
      <use xlink:href="#DejaVuSans-35" x="1916.138672"/>
     </g>
    </g>
    <g id="line2d_47">
     <path d="M 175.340028 347.646053 
L 189.501028 347.646053 
L 203.662028 347.646053 
" style="fill: none; stroke-dasharray: 9.99,4.32; stroke-dashoffset: 0; stroke: #e377c2; stroke-opacity: 0.705882; stroke-width: 2.7"/>
    </g>
    <g id="text_24">
     <!-- HFL-Net (CVPR2023): AUC=50.3 -->
     <g transform="translate(214.990828 352.602403) scale(0.14161 -0.14161)">
      <defs>
       <path id="DejaVuSans-46" d="M 628 4666 
L 3309 4666 
L 3309 4134 
L 1259 4134 
L 1259 2759 
L 3109 2759 
L 3109 2228 
L 1259 2228 
L 1259 0 
L 628 0 
L 628 4666 
z
" transform="scale(0.015625)"/>
       <path id="DejaVuSans-2d" d="M 313 2009 
L 1997 2009 
L 1997 1497 
L 313 1497 
L 313 2009 
z
" transform="scale(0.015625)"/>
      </defs>
      <use xlink:href="#DejaVuSans-48"/>
      <use xlink:href="#DejaVuSans-46" x="75.195312"/>
      <use xlink:href="#DejaVuSans-4c" x="132.714844"/>
      <use xlink:href="#DejaVuSans-2d" x="186.677734"/>
      <use xlink:href="#DejaVuSans-4e" x="222.761719"/>
      <use xlink:href="#DejaVuSans-65" x="297.566406"/>
      <use xlink:href="#DejaVuSans-74" x="359.089844"/>
      <use xlink:href="#DejaVuSans-20" x="398.298828"/>
      <use xlink:href="#DejaVuSans-28" x="430.085938"/>
      <use xlink:href="#DejaVuSans-43" x="469.099609"/>
      <use xlink:href="#DejaVuSans-56" x="538.923828"/>
      <use xlink:href="#DejaVuSans-50" x="607.332031"/>
      <use xlink:href="#DejaVuSans-52" x="667.634766"/>
      <use xlink:href="#DejaVuSans-32" x="737.117188"/>
      <use xlink:href="#DejaVuSans-30" x="800.740234"/>
      <use xlink:href="#DejaVuSans-32" x="864.363281"/>
      <use xlink:href="#DejaVuSans-33" x="927.986328"/>
      <use xlink:href="#DejaVuSans-29" x="991.609375"/>
      <use xlink:href="#DejaVuSans-3a" x="1030.623047"/>
      <use xlink:href="#DejaVuSans-20" x="1064.314453"/>
      <use xlink:href="#DejaVuSans-41" x="1096.101562"/>
      <use xlink:href="#DejaVuSans-55" x="1164.509766"/>
      <use xlink:href="#DejaVuSans-43" x="1237.703125"/>
      <use xlink:href="#DejaVuSans-3d" x="1307.527344"/>
      <use xlink:href="#DejaVuSans-35" x="1391.316406"/>
      <use xlink:href="#DejaVuSans-30" x="1454.939453"/>
      <use xlink:href="#DejaVuSans-2e" x="1518.5625"/>
      <use xlink:href="#DejaVuSans-33" x="1550.349609"/>
     </g>
    </g>
    <g id="line2d_48">
     <path d="M 175.340028 368.431746 
L 189.501028 368.431746 
L 203.662028 368.431746 
" style="fill: none; stroke-dasharray: 9.99,4.32; stroke-dashoffset: 0; stroke: #aec7e8; stroke-opacity: 0.705882; stroke-width: 2.7"/>
    </g>
    <g id="text_25">
     <!-- H2ONet$\dagger$ + HFL-Net$\dagger$: AUC=47.7 -->
     <g transform="translate(214.990828 373.388096) scale(0.14161 -0.14161)">
      <defs>
       <path id="DejaVuSans-2020" d="M 1325 4666 
L 1875 4666 
L 1875 3353 
L 3022 3353 
L 3022 2875 
L 1875 2875 
L 1875 -616 
L 1325 -616 
L 1325 2875 
L 178 2875 
L 178 3353 
L 1325 3353 
L 1325 4666 
z
" transform="scale(0.015625)"/>
       <path id="DejaVuSans-2b" d="M 2944 4013 
L 2944 2272 
L 4684 2272 
L 4684 1741 
L 2944 1741 
L 2944 0 
L 2419 0 
L 2419 1741 
L 678 1741 
L 678 2272 
L 2419 2272 
L 2419 4013 
L 2944 4013 
z
" transform="scale(0.015625)"/>
      </defs>
      <use xlink:href="#DejaVuSans-48" transform="translate(0 0.78125)"/>
      <use xlink:href="#DejaVuSans-32" transform="translate(75.195312 0.78125)"/>
      <use xlink:href="#DejaVuSans-4f" transform="translate(138.818359 0.78125)"/>
      <use xlink:href="#DejaVuSans-4e" transform="translate(217.529297 0.78125)"/>
      <use xlink:href="#DejaVuSans-65" transform="translate(292.333984 0.78125)"/>
      <use xlink:href="#DejaVuSans-74" transform="translate(353.857422 0.78125)"/>
      <use xlink:href="#DejaVuSans-2020" transform="translate(393.066406 0.78125)"/>
      <use xlink:href="#DejaVuSans-20" transform="translate(443.066406 0.78125)"/>
      <use xlink:href="#DejaVuSans-2b" transform="translate(474.853516 0.78125)"/>
      <use xlink:href="#DejaVuSans-20" transform="translate(558.642578 0.78125)"/>
      <use xlink:href="#DejaVuSans-48" transform="translate(590.429688 0.78125)"/>
      <use xlink:href="#DejaVuSans-46" transform="translate(665.625 0.78125)"/>
      <use xlink:href="#DejaVuSans-4c" transform="translate(723.144531 0.78125)"/>
      <use xlink:href="#DejaVuSans-2d" transform="translate(778.857422 0.78125)"/>
      <use xlink:href="#DejaVuSans-4e" transform="translate(814.941406 0.78125)"/>
      <use xlink:href="#DejaVuSans-65" transform="translate(889.746094 0.78125)"/>
      <use xlink:href="#DejaVuSans-74" transform="translate(951.269531 0.78125)"/>
      <use xlink:href="#DejaVuSans-2020" transform="translate(990.478516 0.78125)"/>
      <use xlink:href="#DejaVuSans-3a" transform="translate(1040.478516 0.78125)"/>
      <use xlink:href="#DejaVuSans-20" transform="translate(1074.169922 0.78125)"/>
      <use xlink:href="#DejaVuSans-41" transform="translate(1105.957031 0.78125)"/>
      <use xlink:href="#DejaVuSans-55" transform="translate(1174.365234 0.78125)"/>
      <use xlink:href="#DejaVuSans-43" transform="translate(1247.558594 0.78125)"/>
      <use xlink:href="#DejaVuSans-3d" transform="translate(1317.382812 0.78125)"/>
      <use xlink:href="#DejaVuSans-34" transform="translate(1401.171875 0.78125)"/>
      <use xlink:href="#DejaVuSans-37" transform="translate(1464.794922 0.78125)"/>
      <use xlink:href="#DejaVuSans-2e" transform="translate(1528.417969 0.78125)"/>
      <use xlink:href="#DejaVuSans-37" transform="translate(1552.455078 0.78125)"/>
     </g>
    </g>
    <g id="line2d_49">
     <path d="M 175.340028 389.217439 
L 189.501028 389.217439 
L 203.662028 389.217439 
" style="fill: none; stroke-dasharray: 9.99,4.32; stroke-dashoffset: 0; stroke: #bcbd22; stroke-opacity: 0.705882; stroke-width: 2.7"/>
    </g>
    <g id="text_26">
     <!-- H2ONet$$ + HFL-Net$$: AUC=50.4 -->
     <g transform="translate(214.990828 394.173789) scale(0.14161 -0.14161)">
      <defs>
       <path id="DejaVuSans-2021" d="M 3022 697 
L 1875 697 
L 1875 -616 
L 1325 -616 
L 1325 697 
L 178 697 
L 178 1178 
L 1325 1178 
L 1325 2875 
L 178 2875 
L 178 3353 
L 1325 3353 
L 1325 4666 
L 1875 4666 
L 1875 3353 
L 3022 3353 
L 3022 2875 
L 1875 2875 
L 1875 1178 
L 3022 1178 
L 3022 697 
z
" transform="scale(0.015625)"/>
      </defs>
      <use xlink:href="#DejaVuSans-48" transform="translate(0 0.78125)"/>
      <use xlink:href="#DejaVuSans-32" transform="translate(75.195312 0.78125)"/>
      <use xlink:href="#DejaVuSans-4f" transform="translate(138.818359 0.78125)"/>
      <use xlink:href="#DejaVuSans-4e" transform="translate(217.529297 0.78125)"/>
      <use xlink:href="#DejaVuSans-65" transform="translate(292.333984 0.78125)"/>
      <use xlink:href="#DejaVuSans-74" transform="translate(353.857422 0.78125)"/>
      <use xlink:href="#DejaVuSans-2021" transform="translate(393.066406 0.78125)"/>
      <use xlink:href="#DejaVuSans-20" transform="translate(443.066406 0.78125)"/>
      <use xlink:href="#DejaVuSans-2b" transform="translate(474.853516 0.78125)"/>
      <use xlink:href="#DejaVuSans-20" transform="translate(558.642578 0.78125)"/>
      <use xlink:href="#DejaVuSans-48" transform="translate(590.429688 0.78125)"/>
      <use xlink:href="#DejaVuSans-46" transform="translate(665.625 0.78125)"/>
      <use xlink:href="#DejaVuSans-4c" transform="translate(723.144531 0.78125)"/>
      <use xlink:href="#DejaVuSans-2d" transform="translate(778.857422 0.78125)"/>
      <use xlink:href="#DejaVuSans-4e" transform="translate(814.941406 0.78125)"/>
      <use xlink:href="#DejaVuSans-65" transform="translate(889.746094 0.78125)"/>
      <use xlink:href="#DejaVuSans-74" transform="translate(951.269531 0.78125)"/>
      <use xlink:href="#DejaVuSans-2021" transform="translate(990.478516 0.78125)"/>
      <use xlink:href="#DejaVuSans-3a" transform="translate(1040.478516 0.78125)"/>
      <use xlink:href="#DejaVuSans-20" transform="translate(1074.169922 0.78125)"/>
      <use xlink:href="#DejaVuSans-41" transform="translate(1105.957031 0.78125)"/>
      <use xlink:href="#DejaVuSans-55" transform="translate(1174.365234 0.78125)"/>
      <use xlink:href="#DejaVuSans-43" transform="translate(1247.558594 0.78125)"/>
      <use xlink:href="#DejaVuSans-3d" transform="translate(1317.382812 0.78125)"/>
      <use xlink:href="#DejaVuSans-35" transform="translate(1401.171875 0.78125)"/>
      <use xlink:href="#DejaVuSans-30" transform="translate(1464.794922 0.78125)"/>
      <use xlink:href="#DejaVuSans-2e" transform="translate(1528.417969 0.78125)"/>
      <use xlink:href="#DejaVuSans-34" transform="translate(1560.205078 0.78125)"/>
     </g>
    </g>
    <g id="line2d_50">
     <path d="M 175.340028 410.003131 
L 189.501028 410.003131 
L 203.662028 410.003131 
" style="fill: none; stroke-dasharray: 9.99,4.32; stroke-dashoffset: 0; stroke: #17becf; stroke-opacity: 0.705882; stroke-width: 2.7"/>
    </g>
    <g id="text_27">
     <!-- HandOccNet$\dagger$ + HFL-Net$\dagger$: AUC=47.9 -->
     <g transform="translate(214.990828 414.959481) scale(0.14161 -0.14161)">
      <use xlink:href="#DejaVuSans-48" transform="translate(0 0.015625)"/>
      <use xlink:href="#DejaVuSans-61" transform="translate(75.195312 0.015625)"/>
      <use xlink:href="#DejaVuSans-6e" transform="translate(136.474609 0.015625)"/>
      <use xlink:href="#DejaVuSans-64" transform="translate(199.853516 0.015625)"/>
      <use xlink:href="#DejaVuSans-4f" transform="translate(263.330078 0.015625)"/>
      <use xlink:href="#DejaVuSans-63" transform="translate(342.041016 0.015625)"/>
      <use xlink:href="#DejaVuSans-63" transform="translate(397.021484 0.015625)"/>
      <use xlink:href="#DejaVuSans-4e" transform="translate(452.001953 0.015625)"/>
      <use xlink:href="#DejaVuSans-65" transform="translate(526.806641 0.015625)"/>
      <use xlink:href="#DejaVuSans-74" transform="translate(588.330078 0.015625)"/>
      <use xlink:href="#DejaVuSans-2020" transform="translate(627.539062 0.015625)"/>
      <use xlink:href="#DejaVuSans-20" transform="translate(677.539062 0.015625)"/>
      <use xlink:href="#DejaVuSans-2b" transform="translate(709.326172 0.015625)"/>
      <use xlink:href="#DejaVuSans-20" transform="translate(793.115234 0.015625)"/>
      <use xlink:href="#DejaVuSans-48" transform="translate(824.902344 0.015625)"/>
      <use xlink:href="#DejaVuSans-46" transform="translate(900.097656 0.015625)"/>
      <use xlink:href="#DejaVuSans-4c" transform="translate(957.617188 0.015625)"/>
      <use xlink:href="#DejaVuSans-2d" transform="translate(1013.330078 0.015625)"/>
      <use xlink:href="#DejaVuSans-4e" transform="translate(1049.414062 0.015625)"/>
      <use xlink:href="#DejaVuSans-65" transform="translate(1124.21875 0.015625)"/>
      <use xlink:href="#DejaVuSans-74" transform="translate(1185.742188 0.015625)"/>
      <use xlink:href="#DejaVuSans-2020" transform="translate(1224.951172 0.015625)"/>
      <use xlink:href="#DejaVuSans-3a" transform="translate(1274.951172 0.015625)"/>
      <use xlink:href="#DejaVuSans-20" transform="translate(1308.642578 0.015625)"/>
      <use xlink:href="#DejaVuSans-41" transform="translate(1340.429688 0.015625)"/>
      <use xlink:href="#DejaVuSans-55" transform="translate(1408.837891 0.015625)"/>
      <use xlink:href="#DejaVuSans-43" transform="translate(1482.03125 0.015625)"/>
      <use xlink:href="#DejaVuSans-3d" transform="translate(1551.855469 0.015625)"/>
      <use xlink:href="#DejaVuSans-34" transform="translate(1635.644531 0.015625)"/>
      <use xlink:href="#DejaVuSans-37" transform="translate(1699.267578 0.015625)"/>
      <use xlink:href="#DejaVuSans-2e" transform="translate(1762.890625 0.015625)"/>
      <use xlink:href="#DejaVuSans-39" transform="translate(1794.677734 0.015625)"/>
     </g>
    </g>
    <g id="line2d_51">
     <path d="M 175.340028 430.788824 
L 189.501028 430.788824 
L 203.662028 430.788824 
" style="fill: none; stroke-dasharray: 9.99,4.32; stroke-dashoffset: 0; stroke: #ffbb78; stroke-opacity: 0.705882; stroke-width: 2.7"/>
    </g>
    <g id="text_28">
     <!-- HandOccNet$$ + HFL-Net$$: AUC=50.4 -->
     <g transform="translate(214.990828 435.745174) scale(0.14161 -0.14161)">
      <use xlink:href="#DejaVuSans-48" transform="translate(0 0.015625)"/>
      <use xlink:href="#DejaVuSans-61" transform="translate(75.195312 0.015625)"/>
      <use xlink:href="#DejaVuSans-6e" transform="translate(136.474609 0.015625)"/>
      <use xlink:href="#DejaVuSans-64" transform="translate(199.853516 0.015625)"/>
      <use xlink:href="#DejaVuSans-4f" transform="translate(263.330078 0.015625)"/>
      <use xlink:href="#DejaVuSans-63" transform="translate(342.041016 0.015625)"/>
      <use xlink:href="#DejaVuSans-63" transform="translate(397.021484 0.015625)"/>
      <use xlink:href="#DejaVuSans-4e" transform="translate(452.001953 0.015625)"/>
      <use xlink:href="#DejaVuSans-65" transform="translate(526.806641 0.015625)"/>
      <use xlink:href="#DejaVuSans-74" transform="translate(588.330078 0.015625)"/>
      <use xlink:href="#DejaVuSans-2021" transform="translate(627.539062 0.015625)"/>
      <use xlink:href="#DejaVuSans-20" transform="translate(677.539062 0.015625)"/>
      <use xlink:href="#DejaVuSans-2b" transform="translate(709.326172 0.015625)"/>
      <use xlink:href="#DejaVuSans-20" transform="translate(793.115234 0.015625)"/>
      <use xlink:href="#DejaVuSans-48" transform="translate(824.902344 0.015625)"/>
      <use xlink:href="#DejaVuSans-46" transform="translate(900.097656 0.015625)"/>
      <use xlink:href="#DejaVuSans-4c" transform="translate(957.617188 0.015625)"/>
      <use xlink:href="#DejaVuSans-2d" transform="translate(1013.330078 0.015625)"/>
      <use xlink:href="#DejaVuSans-4e" transform="translate(1049.414062 0.015625)"/>
      <use xlink:href="#DejaVuSans-65" transform="translate(1124.21875 0.015625)"/>
      <use xlink:href="#DejaVuSans-74" transform="translate(1185.742188 0.015625)"/>
      <use xlink:href="#DejaVuSans-2021" transform="translate(1224.951172 0.015625)"/>
      <use xlink:href="#DejaVuSans-3a" transform="translate(1274.951172 0.015625)"/>
      <use xlink:href="#DejaVuSans-20" transform="translate(1308.642578 0.015625)"/>
      <use xlink:href="#DejaVuSans-41" transform="translate(1340.429688 0.015625)"/>
      <use xlink:href="#DejaVuSans-55" transform="translate(1408.837891 0.015625)"/>
      <use xlink:href="#DejaVuSans-43" transform="translate(1482.03125 0.015625)"/>
      <use xlink:href="#DejaVuSans-3d" transform="translate(1551.855469 0.015625)"/>
      <use xlink:href="#DejaVuSans-35" transform="translate(1635.644531 0.015625)"/>
      <use xlink:href="#DejaVuSans-30" transform="translate(1699.267578 0.015625)"/>
      <use xlink:href="#DejaVuSans-2e" transform="translate(1762.890625 0.015625)"/>
      <use xlink:href="#DejaVuSans-34" transform="translate(1794.677734 0.015625)"/>
     </g>
    </g>
    <g id="line2d_52">
     <path d="M 175.340028 451.574517 
L 189.501028 451.574517 
L 203.662028 451.574517 
" style="fill: none; stroke-dasharray: 9.99,4.32; stroke-dashoffset: 0; stroke: #ff0000; stroke-opacity: 0.705882; stroke-width: 2.7"/>
    </g>
    <g id="text_29">
     <!-- Ours: AUC=52.3 -->
     <g transform="translate(214.990828 456.530867) scale(0.14161 -0.14161)">
      <use xlink:href="#DejaVuSans-4f"/>
      <use xlink:href="#DejaVuSans-75" x="78.710938"/>
      <use xlink:href="#DejaVuSans-72" x="142.089844"/>
      <use xlink:href="#DejaVuSans-73" x="183.203125"/>
      <use xlink:href="#DejaVuSans-3a" x="235.302734"/>
      <use xlink:href="#DejaVuSans-20" x="268.994141"/>
      <use xlink:href="#DejaVuSans-41" x="300.78125"/>
      <use xlink:href="#DejaVuSans-55" x="369.189453"/>
      <use xlink:href="#DejaVuSans-43" x="442.382812"/>
      <use xlink:href="#DejaVuSans-3d" x="512.207031"/>
      <use xlink:href="#DejaVuSans-35" x="595.996094"/>
      <use xlink:href="#DejaVuSans-32" x="659.619141"/>
      <use xlink:href="#DejaVuSans-2e" x="723.242188"/>
      <use xlink:href="#DejaVuSans-33" x="755.029297"/>
     </g>
    </g>
   </g>
  </g>
 </g>
 <defs>
  <clipPath id="pfb7dcdc37d">
   <rect x="61.688125" y="28.700812" width="446.4" height="443.52"/>
  </clipPath>
 </defs>
</svg>
